<svg width="116" height="84" viewBox="0 0 116 84" fill="none" xmlns="http://www.w3.org/2000/svg">
<path d="M87.2477 59.4463C84.2478 61.6362 80.5108 64.0625 76.5566 66.1065C79.5244 67.7484 83.9591 70.2304 85.6008 71.3018C88.1541 72.9707 91.4769 74.8059 90.2798 68.0421C89.7516 65.0542 88.6363 62.1458 87.2477 59.4463Z" fill="#97CBE0"/>
<path d="M110.109 16.5063C107.174 17.9749 102.845 20.5554 99.8738 21.8167C97.4865 17.3822 92.0673 15.3058 85.3593 16.1445C79.5629 16.8679 75.7601 20.6504 72.3186 23.0275C69.2389 25.1531 61.3323 31.4773 54.329 34.1345C46.6076 37.5809 39.5991 37.0308 34.769 35.8255C32.246 35.1939 21.2462 30.5113 29.2155 14.8155C33.1323 7.09901 32.6246 2.03964 31.1458 0.931074C29.2155 -0.517113 22.6959 4.19085 18.7114 7.45199C14.7266 4.91563 4.22226 -0.15552 1.92695 0.328191C-0.908477 0.922464 -0.955829 9.19743 4.10195 14.8153C8.44833 19.6453 12.2292 22.9459 12.5534 26.6486C13.7605 40.4125 16.8912 48.4942 23.9013 56.3514C28.7925 61.8301 34.8891 65.1851 41.2677 66.9914C41.6583 65.4787 42.0131 64.0697 42.2863 62.9779C42.6275 61.6113 42.8383 60.737 42.8398 60.7351L44.8177 61.2173C43.5528 66.0866 40.9179 76.0591 39.9908 78.3223C38.7531 81.3462 37.4798 85.2408 44.0689 83.0778C55.2047 79.4225 64.0468 69.6042 67.6629 57.8472L69.2301 58.0934C68.7427 61.1103 67.4561 64.2836 65.6003 67.387C68.7056 66.667 71.5256 65.6941 73.8871 64.5602C80.7037 61.2884 87.1686 56.5909 90.5491 53.6927C105.281 40.8949 110.109 30.7523 114.456 23.9917C118.804 17.2295 112.875 15.1227 110.109 16.5063Z" fill="#97CBE0"/>
</svg>
