<svg width="45" height="63" viewBox="0 0 45 63" fill="none" xmlns="http://www.w3.org/2000/svg">
<path d="M14.3055 26.8018C12.8201 26.8018 11.6172 27.9665 11.6172 29.4038C11.6172 30.8399 12.8201 32.0047 14.3055 32.0047C15.7888 32.0047 16.9918 30.8399 16.9918 29.4038C16.9917 27.9666 15.7886 26.8018 14.3055 26.8018Z" fill="#163767"/>
<path d="M30.6952 26.8018C29.2119 26.8018 28.0078 27.9665 28.0078 29.4038C28.0078 30.8399 29.2119 32.0047 30.6952 32.0047C32.1794 32.0047 33.3825 30.8399 33.3825 29.4038C33.3825 27.9666 32.1794 26.8018 30.6952 26.8018Z" fill="#163767"/>
<path d="M40.0955 16.4286H4.90459C2.19996 16.4286 0 18.5587 0 21.1774V57.6581C0 60.2768 2.19996 62.4069 4.90459 62.4069H40.0955C42.801 62.4069 45 60.2768 45 57.6581V21.1774C45 18.5587 42.801 16.4286 40.0955 16.4286ZM13.7294 59.4097C13.7375 59.3499 13.7654 59.2977 13.7654 59.2358L14.3076 47.3268L14.8486 59.2358C14.8486 59.2977 14.8765 59.3499 14.8847 59.4097H13.7294ZM30.1173 59.4097C30.1253 59.3499 30.1533 59.2977 30.1533 59.2358L30.6943 47.3268L31.2355 59.2358C31.2355 59.2977 31.2635 59.3499 31.272 59.4097H30.1173ZM41.9046 57.6581C41.9046 58.6244 41.0934 59.4097 40.0955 59.4097H33.9264C33.9345 59.3499 33.9624 59.2977 33.9624 59.2358L34.5005 39.865L34.9938 45.0679C35.0212 45.6272 35.5117 46.0588 36.0882 46.0312C36.6649 46.0047 37.1106 45.5309 37.0831 44.9715V36.4056C37.0831 32.8207 32.6029 32.6448 30.6942 32.6448C28.7866 32.6448 24.3064 32.8207 24.3064 36.4056V44.9715C24.279 45.5308 24.7246 46.0046 25.3013 46.0312C25.878 46.0587 26.3673 45.6272 26.3958 45.0679L26.8892 39.865L27.4262 59.2358C27.4262 59.2977 27.4542 59.3499 27.4629 59.4097H17.539C17.5477 59.3499 17.5755 59.2977 17.5755 59.2358L18.1135 39.865L18.606 45.0679C18.6333 45.6272 19.1238 46.0588 19.7005 46.0312C20.2771 46.0047 20.7228 45.5309 20.6953 44.9715V36.4056C20.6953 32.8207 16.2152 32.6448 14.3076 32.6448C12.3999 32.6448 7.91865 32.8207 7.91865 36.4056V44.9715C7.89121 45.5308 8.33684 46.0046 8.91352 46.0312C9.4902 46.0587 9.98052 45.6272 10.008 45.0679L10.5014 39.865L11.0395 59.2358C11.0395 59.2977 11.0674 59.3499 11.0755 59.4097H4.90447C3.90746 59.4097 3.09525 58.6244 3.09525 57.6581V21.1774C3.09525 20.2112 3.90746 19.4257 4.90447 19.4257H40.0954C41.0933 19.4257 41.9045 20.2112 41.9045 21.1774L41.9046 57.6581Z" fill="#163767"/>
<path d="M26.3317 8.62276L30.0088 5.06245V13.067C30.0088 13.7973 30.62 14.3892 31.3741 14.3892C32.1284 14.3892 32.7396 13.7975 32.7396 13.067V5.06245L36.4178 8.62276C36.684 8.8814 37.0332 9.01011 37.3834 9.01011C37.7326 9.01011 38.0829 8.8814 38.3489 8.62276C38.8829 8.10669 38.8829 7.26921 38.3489 6.75216L32.3398 0.934872L31.3743 0L30.4087 0.934872L24.3997 6.75216C23.8668 7.26921 23.8668 8.10669 24.3997 8.62276C24.9336 9.13883 25.7987 9.13883 26.3317 8.62276Z" fill="#163767"/>
<path d="M13.2954 14.0021L14.261 14.9369L15.2265 14.0021L21.2358 8.18369C21.7687 7.66762 21.7687 6.83014 21.2358 6.31407C20.7028 5.798 19.8377 5.798 19.3047 6.31407L15.6265 9.87438V1.87008C15.6265 1.13973 15.0154 0.547852 14.2611 0.547852C13.5068 0.547852 12.8956 1.13961 12.8956 1.87008V9.87451L9.21854 6.31419C8.68555 5.79812 7.82059 5.79812 7.28647 6.31419C6.75347 6.83026 6.75347 7.66774 7.28647 8.18381L13.2954 14.0021Z" fill="#163767"/>
</svg>
