<svg width="1161" height="578" viewBox="0 0 1161 578" fill="none" xmlns="http://www.w3.org/2000/svg">
<path d="M631.065 344.386C638.485 353.191 643.279 355.341 652.002 358.103C668.029 358.543 674.12 355.53 683.048 347.995M630.565 323.448C630.565 324.552 630.849 325.619 631.379 326.643L630.565 325.558V327.058V344.386V344.568L630.683 344.708C634.414 349.136 637.507 351.916 640.782 353.936C644.054 355.954 647.484 357.197 651.851 358.58L651.918 358.601L651.989 358.603C660.031 358.823 665.63 358.18 670.353 356.511C675.011 354.865 678.778 352.237 683.173 348.544L691.407 350.646L699.891 352.812L708.374 354.978L716.857 357.144L717.006 357.182L717.151 357.13C718.141 356.772 719.072 356.443 719.95 356.132C727.058 353.616 730.746 352.311 735.41 346.877L735.53 346.737V346.551V336.805V327.058V325.537L734.72 326.637C735.248 325.614 735.53 324.549 735.53 323.448C735.53 320.837 733.942 318.429 731.255 316.311C728.562 314.188 724.696 312.299 719.963 310.721C710.493 307.564 697.441 305.62 683.048 305.62C668.654 305.62 655.603 307.564 646.132 310.721C641.4 312.299 637.534 314.188 634.841 316.311C632.153 318.429 630.565 320.837 630.565 323.448ZM683.065 341.276C694.606 341.274 705.283 340.023 713.943 337.899C716.277 337.462 718.368 336.991 720.249 336.48C727.401 334.536 731.562 332.001 734.53 328.497V336.805V346.366C730.104 351.473 726.657 352.694 719.61 355.191C718.778 355.485 717.896 355.798 716.956 356.137L708.621 354.009L700.138 351.843L691.655 349.677L683.171 347.511L682.922 347.447L682.725 347.613C678.277 351.367 674.577 353.958 670.02 355.568C665.474 357.174 660.032 357.818 652.086 357.605C647.763 356.235 644.452 355.024 641.307 353.085C638.184 351.159 635.2 348.498 631.565 344.203V328.467C635.077 332.475 640.593 335.407 648.433 337.457C653.298 338.73 659.078 339.668 665.862 340.31C671.245 340.936 677.026 341.275 683.041 341.276L683.058 341.276L683.065 341.276Z" fill="#CBDDFF" stroke="#204C74"/>
<path d="M630.565 343.664V343.846L630.683 343.986C634.414 348.414 637.507 351.194 640.782 353.214C644.054 355.232 647.484 356.475 651.851 357.858L651.918 357.879L651.989 357.881C660.031 358.102 665.63 357.458 670.353 355.789C675.011 354.143 678.778 351.515 683.173 347.822L691.407 349.924L699.891 352.09L708.374 354.256L716.857 356.422L717.006 356.46L717.151 356.408C718.141 356.05 719.072 355.721 719.95 355.41C727.058 352.894 730.746 351.589 735.41 346.155L735.53 346.015V345.83V336.083V326.336V324.815L734.628 326.039C731.774 329.912 727.745 332.684 719.987 334.793C712.209 336.906 700.734 338.339 683.037 339.553C668.392 339.174 657.119 337.973 648.686 335.768C640.246 333.56 634.71 330.362 631.465 326.036L630.565 324.836V326.336V343.664Z" fill="#CBDDFF" stroke="#204C74"/>
<path d="M1127.85 442.082V440.803L1132.65 435.548C1133.21 434.932 1133.68 434.397 1134.04 433.942C1134.41 433.483 1134.68 433.052 1134.85 432.65C1135.03 432.243 1135.12 431.817 1135.12 431.371C1135.12 430.86 1135 430.417 1134.75 430.043C1134.51 429.669 1134.18 429.38 1133.76 429.177C1133.34 428.973 1132.86 428.871 1132.34 428.871C1131.78 428.871 1131.29 428.987 1130.88 429.219C1130.46 429.447 1130.14 429.766 1129.92 430.178C1129.69 430.59 1129.58 431.073 1129.58 431.627H1127.91C1127.91 430.775 1128.1 430.027 1128.5 429.383C1128.89 428.739 1129.42 428.237 1130.1 427.877C1130.78 427.517 1131.55 427.337 1132.4 427.337C1133.25 427.337 1134 427.517 1134.66 427.877C1135.32 428.237 1135.84 428.722 1136.21 429.333C1136.58 429.944 1136.77 430.623 1136.77 431.371C1136.77 431.906 1136.67 432.43 1136.48 432.941C1136.29 433.448 1135.96 434.013 1135.49 434.638C1135.02 435.259 1134.37 436.016 1133.53 436.911L1130.27 440.406V440.519H1137.03V442.082H1127.85ZM1140.22 442.082V427.536H1148.94V429.099H1141.98V434.013H1148.28V435.576H1141.98V442.082H1140.22Z" fill="#163767"/>
<path d="M560.372 148.957V147.678L565.174 142.423C565.737 141.807 566.201 141.272 566.566 140.818C566.93 140.358 567.2 139.927 567.375 139.525C567.555 139.118 567.645 138.692 567.645 138.247C567.645 137.735 567.522 137.292 567.276 136.918C567.034 136.544 566.703 136.256 566.281 136.052C565.86 135.848 565.387 135.747 564.861 135.747C564.302 135.747 563.815 135.863 563.398 136.095C562.986 136.322 562.666 136.641 562.439 137.053C562.217 137.465 562.105 137.948 562.105 138.502H560.429C560.429 137.65 560.626 136.902 561.019 136.258C561.412 135.614 561.947 135.112 562.624 134.752C563.306 134.392 564.07 134.212 564.918 134.212C565.77 134.212 566.525 134.392 567.183 134.752C567.842 135.112 568.358 135.597 568.732 136.208C569.106 136.819 569.293 137.498 569.293 138.247C569.293 138.782 569.196 139.305 569.002 139.816C568.812 140.323 568.481 140.889 568.007 141.514C567.539 142.134 566.888 142.891 566.054 143.786L562.787 147.281V147.394H569.549V148.957H560.372ZM572.737 148.957V134.411H581.459V135.974H574.499V140.889H580.806V142.451H574.499V148.957H572.737Z" fill="#163767"/>
<path d="M1005.77 264.968V240.42L1115.52 270.021V293.847L1005.77 264.968Z" fill="#CBDDFF"/>
<path d="M866.431 278.685V256.304L906.862 215.873L963.177 231.034L945.849 249.806L906.862 240.42L866.431 278.685Z" fill="#CBDDFF"/>
<path d="M901.808 345.108L942.961 304.677V326.336L901.808 368.933V345.108Z" fill="#CBDDFF"/>
<path d="M277.294 225.98V200.711L303.285 207.931L368.263 144.396V167.5L322.998 212.263L337.94 216.595L402.919 151.616V176.886L356.4 222.371L381.259 228.868L446.96 165.334V187.715L400.969 233.2L415.914 236.81L481.615 173.276V197.823L415.914 261.358L400.969 257.748V233.2L381.259 252.694L356.4 246.918V222.371L337.94 240.42L322.998 236.81V212.263L303.285 231.756L277.294 225.98Z" fill="#CBDDFF"/>
<path d="M603.63 310.452L556.701 298.179L546.593 309.008L539.373 308.286L539.905 247.64L540.095 225.98C542.359 209.447 544.951 200.792 553.091 186.993L574.75 166.778L703.985 199.267L618.28 287.349L603.63 301.789V310.452Z" fill="#CBDDFF"/>
<path d="M906.862 240.42L866.431 278.685V256.304L906.862 215.873M906.862 240.42V215.873M906.862 240.42L945.849 249.806L963.177 231.034L906.862 215.873M303.285 231.756L277.294 225.98V200.711L303.285 207.931M303.285 231.756V207.931M303.285 231.756L322.998 212.263M303.285 207.931L368.263 144.396V167.5L322.998 212.263M322.998 212.263V236.81L337.94 240.42M322.998 212.263L337.94 216.595M337.94 240.42V216.595M337.94 240.42L356.4 222.371M337.94 216.595L402.919 151.616V176.886L356.4 222.371M356.4 222.371V246.918L381.259 252.694M356.4 222.371L381.259 228.868M381.259 252.694V228.868M381.259 252.694L400.969 233.2M381.259 228.868L446.96 165.334V187.715L400.969 233.2M400.969 233.2V257.748L415.914 261.358M400.969 233.2L415.914 236.81M415.914 261.358V236.81M415.914 261.358L481.615 197.823V173.276L415.914 236.81M539.905 247.64L539.373 308.286L546.593 309.008L556.701 298.179L603.63 310.452V301.789L618.28 287.349M539.905 247.64L540.095 225.98C542.359 209.447 544.951 200.792 553.091 186.993L574.75 166.778L703.985 199.267L618.28 287.349M539.905 247.64C539.905 247.64 544.323 260.982 553.091 269.299C570.361 285.682 618.28 287.349 618.28 287.349M1005.77 240.42V264.968L1115.52 293.847V270.021L1005.77 240.42ZM942.961 304.677L901.808 345.108V368.933L942.961 326.336V304.677Z" stroke="#163767"/>
<circle cx="740.806" cy="313.34" r="4.33189" fill="#163767"/>
<circle cx="496.776" cy="210.819" r="4.33189" fill="#163767"/>
<path d="M149.382 155.679C152.498 155.679 155.024 153.152 155.024 150.04C155.024 146.92 152.498 144.396 149.382 144.396C146.265 144.396 143.741 146.92 143.741 150.04C143.741 153.152 146.265 155.679 149.382 155.679ZM149.382 146.225C151.485 146.225 153.194 147.936 153.194 150.04C153.194 152.142 151.485 153.85 149.382 153.85C147.281 153.85 145.57 152.142 145.57 150.04C145.57 147.936 147.281 146.225 149.382 146.225Z" fill="#163767"/>
<path d="M154.271 158.352H149.326H144.38C141.648 158.352 138.673 161.326 138.673 164.061V183.021C138.673 184.388 139.781 185.495 141.148 185.495C141.82 185.495 141.148 185.495 142.874 185.495L143.816 201.665C143.816 203.121 144.995 204.3 146.45 204.3C147.064 204.3 148.196 204.3 149.326 204.3C150.457 204.3 151.591 204.3 152.204 204.3C153.659 204.3 154.838 203.121 154.838 201.665L155.778 185.495C157.505 185.495 156.832 185.495 157.505 185.495C158.872 185.495 159.979 184.388 159.979 183.021V164.061C159.979 161.326 157.006 158.352 154.271 158.352ZM158.151 183.021C158.151 183.376 157.862 183.666 157.505 183.666H155.778H154.053L153.952 185.389L153.012 201.559L153.009 201.612V201.665C153.009 202.109 152.648 202.471 152.204 202.471H149.326H146.45C146.007 202.471 145.645 202.109 145.645 201.665V201.612L145.642 201.559L144.7 185.389L144.6 183.666H142.874H141.148C140.792 183.666 140.502 183.376 140.502 183.021V164.061C140.502 162.32 142.64 160.181 144.38 160.181H149.326H154.271C156.012 160.181 158.151 162.32 158.151 164.061V183.021Z" fill="#163767"/>
<path d="M175.835 155.679C178.951 155.679 181.476 153.152 181.476 150.04C181.476 146.92 178.951 144.396 175.835 144.396C172.717 144.396 170.193 146.92 170.193 150.04C170.193 153.152 172.717 155.679 175.835 155.679ZM175.835 146.225C177.937 146.225 179.646 147.936 179.646 150.04C179.646 152.142 177.937 153.85 175.835 153.85C173.732 153.85 172.022 152.142 172.022 150.04C172.022 147.936 173.732 146.225 175.835 146.225Z" fill="#163767"/>
<path d="M189.272 188.497L183.427 174.752L185.372 164.94C185.573 161.215 182.772 158.423 180.038 158.423H171.629C168.895 158.423 166.094 161.215 166.295 164.94L168.24 174.752L162.394 188.497C162.132 189.113 162.198 189.821 162.567 190.38C162.936 190.939 163.563 191.275 164.232 191.275H170.394L171.988 202.094C171.988 203.154 172.847 204.014 173.909 204.014C174.294 204.014 177.374 204.014 177.759 204.014C178.819 204.014 179.678 203.154 179.678 202.094L181.272 191.275H187.435C188.105 191.275 188.731 190.939 189.1 190.38C189.469 189.821 189.535 189.113 189.272 188.497ZM187.575 189.37C187.544 189.418 187.491 189.447 187.435 189.447H181.272H179.693L179.464 191.009L177.869 201.828L177.849 201.959V202.095C177.849 202.144 177.809 202.185 177.759 202.185H173.909C173.858 202.185 173.818 202.144 173.818 202.095V201.959L173.798 201.828L172.204 191.009L171.973 189.447H170.395H164.233C164.175 189.447 164.124 189.418 164.092 189.37C164.061 189.324 164.056 189.265 164.078 189.213L169.924 175.467L170.144 174.949L170.035 174.395L168.116 164.72C168.061 162.996 168.864 161.88 169.354 161.361C170.012 160.667 170.862 160.252 171.628 160.252H180.038C180.804 160.252 181.654 160.667 182.312 161.361C182.803 161.88 183.605 162.996 183.55 164.72L181.633 174.395L181.523 174.949L181.743 175.467L187.59 189.213C187.611 189.265 187.606 189.324 187.575 189.37Z" fill="#163767"/>
<path d="M154.781 231.388C154.703 231.156 154.537 230.964 154.319 230.855C154.1 230.746 153.847 230.728 153.615 230.805L148.843 232.395L141.828 218.364C141.751 218.211 141.634 218.082 141.488 217.992C141.342 217.902 141.175 217.854 141.003 217.854H121.649V211.437C121.954 211.417 122.26 211.403 122.57 211.403H135.473C135.718 211.403 135.952 211.306 136.125 211.133C136.298 210.96 136.395 210.726 136.395 210.481C136.395 210.237 136.298 210.002 136.125 209.83C135.952 209.657 135.718 209.56 135.473 209.56H122.57C122.261 209.56 121.954 209.571 121.649 209.589V203.03C123.016 202.799 124.246 202.062 125.096 200.967C125.946 199.871 126.354 198.497 126.238 197.115C126.122 195.733 125.491 194.445 124.47 193.507C123.45 192.568 122.114 192.047 120.727 192.047C119.341 192.047 118.005 192.568 116.984 193.507C115.963 194.445 115.333 195.733 115.217 197.115C115.101 198.497 115.508 199.871 116.358 200.967C117.208 202.062 118.438 202.799 119.805 203.03V209.809C116.913 210.328 114.225 211.65 112.048 213.624C109.871 215.598 108.293 218.145 107.495 220.973C106.697 223.801 106.71 226.797 107.533 229.618C108.356 232.439 109.956 234.971 112.15 236.926C114.344 238.881 117.044 240.179 119.941 240.673C122.838 241.167 125.815 240.836 128.533 239.718C131.25 238.599 133.599 236.74 135.31 234.35C137.021 231.961 138.025 229.139 138.208 226.206C138.216 226.085 138.2 225.964 138.16 225.849C138.121 225.735 138.06 225.629 137.979 225.538C137.899 225.448 137.802 225.373 137.693 225.32C137.584 225.267 137.466 225.236 137.345 225.228C137.224 225.221 137.103 225.237 136.989 225.277C136.874 225.316 136.768 225.378 136.678 225.458C136.587 225.538 136.513 225.636 136.46 225.745C136.407 225.853 136.376 225.972 136.369 226.093C136.207 228.667 135.329 231.144 133.833 233.245C132.337 235.346 130.283 236.987 127.904 237.982C125.525 238.977 122.914 239.286 120.368 238.875C117.822 238.464 115.442 237.349 113.496 235.656C111.55 233.964 110.117 231.76 109.358 229.295C108.599 226.83 108.545 224.202 109.201 221.708C109.857 219.214 111.198 216.953 113.072 215.181C114.946 213.409 117.279 212.197 119.805 211.681V218.776C119.805 219.021 119.903 219.255 120.075 219.428C120.248 219.601 120.483 219.698 120.727 219.698H140.434L147.552 233.935C147.651 234.133 147.819 234.289 148.024 234.374C148.229 234.459 148.457 234.467 148.668 234.397L154.198 232.554C154.43 232.476 154.621 232.31 154.731 232.091C154.84 231.873 154.858 231.62 154.781 231.388ZM117.041 197.578C117.041 196.849 117.257 196.136 117.662 195.53C118.067 194.924 118.643 194.451 119.316 194.172C119.99 193.893 120.731 193.82 121.446 193.962C122.161 194.105 122.818 194.456 123.334 194.971C123.85 195.487 124.201 196.144 124.343 196.859C124.485 197.574 124.412 198.315 124.133 198.989C123.854 199.663 123.382 200.238 122.775 200.643C122.169 201.049 121.456 201.265 120.727 201.265C119.75 201.264 118.813 200.875 118.122 200.184C117.43 199.493 117.042 198.556 117.041 197.578Z" fill="#163767"/>
<path d="M87.3663 223.364C86.3832 223.364 85.4587 223.747 84.7635 224.443C84.0681 225.138 83.6854 226.062 83.685 227.046L83.6851 228.387C83.6851 230.614 83.1232 231.483 82.516 232.09C82.5158 232.09 82.5158 232.09 82.5157 232.091C82.2941 232.312 82.0508 232.511 81.793 232.722C81.5164 232.949 81.2307 233.183 80.9535 233.46C80.0817 234.332 79.6077 235.374 79.4665 236.761C78.6514 236.888 77.8982 237.27 77.3011 237.867C76.5577 238.61 76.1482 239.595 76.1483 240.641C76.1484 241.686 76.5568 242.67 77.2986 243.413C76.8314 243.685 76.3954 244.018 76.0024 244.411C74.8165 245.597 74.1635 247.168 74.1634 248.835L74.1638 273.822C74.164 277.275 76.9735 280.085 80.4268 280.085L94.3081 280.085C95.9751 280.085 97.5463 279.432 98.732 278.247C99.9179 277.061 100.571 275.489 100.571 273.822L100.571 248.836C100.57 247.169 99.9174 245.597 98.7315 244.412C98.3385 244.019 97.9022 243.685 97.4351 243.414C98.1767 242.671 98.5852 241.686 98.5851 240.642C98.5853 239.596 98.1758 238.611 97.4323 237.867C96.835 237.269 96.081 236.888 95.2653 236.761C95.0211 234.428 93.8793 233.491 92.9404 232.723C91.9251 231.892 91.0481 231.174 91.048 228.388L91.0482 227.046C91.0479 225.016 89.3964 223.365 87.3663 223.364ZM98.4545 247.837L92.9008 247.837C92.3494 247.837 91.9025 248.284 91.9023 248.836C91.9022 249.387 92.3493 249.834 92.9007 249.834L98.5737 249.834L98.5737 254.084L92.9007 254.084C92.3493 254.084 91.9024 254.531 91.9023 255.082C91.9021 255.634 92.3492 256.081 92.9007 256.081L98.5738 256.081L98.5737 260.331L92.901 260.33C92.3496 260.33 91.9027 260.777 91.9026 261.329C91.9025 261.88 92.3495 262.327 92.901 262.327L98.5739 262.327L98.5739 266.577L92.9008 266.577C92.3493 266.577 91.9025 267.024 91.9024 267.575C91.9025 268.127 92.3496 268.574 92.9008 268.574L98.5739 268.574L98.574 272.823L92.1287 272.823C91.5772 272.823 91.1303 273.27 91.1302 273.822C91.1301 274.373 91.5772 274.82 92.1286 274.82L98.4551 274.82C98.2731 275.574 97.886 276.268 97.3199 276.834C96.5112 277.643 95.4415 278.088 94.3079 278.088L80.4267 278.088C78.0744 278.088 76.1606 276.174 76.1606 273.822L76.1602 249.834L79.8345 249.834C80.1102 249.834 80.3598 249.722 80.5404 249.541C80.7212 249.36 80.8328 249.111 80.833 248.835C80.8328 248.284 80.3858 247.837 79.8344 247.837L76.2793 247.837C76.4612 247.083 76.8484 246.389 77.4144 245.823C78.223 245.014 79.2926 244.569 80.4262 244.569L94.3073 244.569C95.441 244.569 96.511 245.015 97.3196 245.823C97.8853 246.389 98.2725 247.083 98.4545 247.837ZM96.5883 240.642C96.5882 241.154 96.3866 241.638 96.0202 242.005C95.6539 242.371 95.1702 242.572 94.6578 242.572L80.0758 242.572C79.5634 242.572 79.0795 242.371 78.7132 242.004C78.3469 241.638 78.1451 241.154 78.1452 240.641C78.1452 240.129 78.3469 239.645 78.7133 239.279C79.0796 238.912 79.5637 238.71 80.0761 238.71L80.4152 238.71C80.4164 238.71 80.4174 238.711 80.4187 238.711L94.3151 238.711C94.3162 238.711 94.3173 238.711 94.3184 238.71L94.6574 238.711C95.1698 238.711 95.6538 238.912 96.0201 239.279C96.3865 239.645 96.5883 240.129 96.5883 240.642ZM89.0511 227.046L89.051 228.388C89.0512 232.12 90.5063 233.311 91.6754 234.268C92.456 234.907 93.0591 235.401 93.2515 236.714L81.4836 236.714C81.6276 235.746 81.9857 235.252 82.3654 234.872C82.5722 234.665 82.8082 234.472 83.0579 234.268C83.3419 234.035 83.6357 233.795 83.9274 233.503C83.9275 233.503 83.9275 233.503 83.9277 233.503C85.1408 232.29 85.6818 230.712 85.6817 228.388L85.6817 227.046C85.6818 226.596 85.857 226.173 86.1752 225.855C86.4934 225.537 86.9162 225.361 87.3662 225.361C88.2953 225.361 89.0512 226.117 89.0511 227.046Z" fill="#163767"/>
<path d="M89.2367 272.823C88.6853 272.823 88.2384 273.27 88.2383 273.821C88.2382 274.373 88.6852 274.82 89.2367 274.82L89.2605 274.82C89.5362 274.82 89.7858 274.708 89.9666 274.527C90.1472 274.347 90.2589 274.097 90.259 273.822C90.2591 273.27 89.812 272.823 89.2605 272.823L89.2367 272.823Z" fill="#163767"/>
<path d="M82.6952 247.837C82.1438 247.841 81.6999 248.292 81.7041 248.843C81.7081 249.394 82.1585 249.838 82.7099 249.834L82.7334 249.834C83.0066 249.832 83.2531 249.721 83.4321 249.542C83.6145 249.359 83.7266 249.107 83.7246 248.828C83.7206 248.277 83.2702 247.833 82.7189 247.837L82.6952 247.837Z" fill="#163767"/>
<path d="M508.511 356.437C506.842 356.437 505.491 357.745 505.491 359.359C505.491 360.972 506.842 362.28 508.511 362.28C510.176 362.28 511.528 360.972 511.528 359.359C511.527 357.745 510.176 356.437 508.511 356.437Z" fill="#163767"/>
<path d="M526.918 356.437C525.252 356.437 523.9 357.745 523.9 359.359C523.9 360.972 525.252 362.28 526.918 362.28C528.585 362.28 529.936 360.972 529.936 359.359C529.936 357.745 528.585 356.437 526.918 356.437Z" fill="#163767"/>
<path d="M537.475 344.787H497.953C494.915 344.787 492.444 347.179 492.444 350.12V391.091C492.444 394.032 494.915 396.424 497.953 396.424H537.475C540.513 396.424 542.983 394.032 542.983 391.091V350.12C542.983 347.179 540.513 344.787 537.475 344.787ZM507.864 393.058C507.873 392.991 507.904 392.932 507.904 392.863L508.513 379.488L509.121 392.863C509.121 392.932 509.152 392.991 509.161 393.058H507.864ZM526.269 393.058C526.278 392.991 526.309 392.932 526.309 392.863L526.917 379.488L527.524 392.863C527.524 392.932 527.556 392.991 527.565 393.058H526.269ZM539.507 391.091C539.507 392.176 538.596 393.058 537.475 393.058H530.547C530.556 392.991 530.587 392.932 530.587 392.863L531.191 371.108L531.745 376.951C531.776 377.579 532.327 378.064 532.974 378.033C533.622 378.003 534.123 377.471 534.092 376.843V367.223C534.092 363.196 529.06 362.999 526.917 362.999C524.774 362.999 519.743 363.196 519.743 367.223V376.843C519.712 377.471 520.212 378.003 520.86 378.033C521.507 378.064 522.057 377.579 522.089 376.951L522.643 371.108L523.246 392.863C523.246 392.932 523.278 392.991 523.287 393.058H512.142C512.152 392.991 512.183 392.932 512.183 392.863L512.787 371.108L513.34 376.951C513.371 377.579 513.922 378.064 514.57 378.033C515.217 378.003 515.718 377.471 515.687 376.843V367.223C515.687 363.196 510.655 362.999 508.513 362.999C506.37 362.999 501.338 363.196 501.338 367.223V376.843C501.307 377.471 501.807 378.003 502.455 378.033C503.103 378.064 503.653 377.579 503.684 376.951L504.238 371.108L504.843 392.863C504.843 392.932 504.874 392.991 504.883 393.058H497.952C496.833 393.058 495.921 392.176 495.921 391.091V350.12C495.921 349.035 496.833 348.153 497.952 348.153H537.475C538.596 348.153 539.507 349.035 539.507 350.12L539.507 391.091Z" fill="#163767"/>
<path d="M522.017 336.02L526.147 332.022V341.011C526.147 341.832 526.833 342.496 527.68 342.496C528.527 342.496 529.214 341.832 529.214 341.011V332.022L533.345 336.02C533.644 336.311 534.036 336.455 534.429 336.455C534.821 336.455 535.215 336.311 535.513 336.02C536.113 335.441 536.113 334.5 535.513 333.919L528.765 327.386L527.68 326.336L526.596 327.386L519.847 333.919C519.249 334.5 519.249 335.441 519.847 336.02C520.447 336.6 521.419 336.6 522.017 336.02Z" fill="#163767"/>
<path d="M507.376 342.062L508.461 343.112L509.545 342.062L516.294 335.527C516.893 334.948 516.893 334.007 516.294 333.427C515.696 332.848 514.724 332.848 514.125 333.427L509.994 337.426V328.436C509.994 327.616 509.308 326.951 508.461 326.951C507.614 326.951 506.927 327.616 506.927 328.436V337.426L502.798 333.427C502.199 332.848 501.228 332.848 500.628 333.427C500.029 334.007 500.029 334.948 500.628 335.527L507.376 342.062Z" fill="#163767"/>
<path d="M958.435 366.512C956.528 366.512 954.984 368.007 954.984 369.852C954.984 371.695 956.528 373.191 958.435 373.191C960.339 373.191 961.883 371.695 961.883 369.852C961.883 368.008 960.339 366.512 958.435 366.512Z" fill="#163767"/>
<path d="M979.471 366.512C977.567 366.512 976.022 368.007 976.022 369.852C976.022 371.695 977.567 373.191 979.471 373.191C981.376 373.191 982.92 371.695 982.92 369.852C982.92 368.008 981.376 366.512 979.471 366.512Z" fill="#163767"/>
<path d="M991.537 353.2H946.369C942.897 353.2 940.073 355.934 940.073 359.295V406.119C940.073 409.48 942.897 412.214 946.369 412.214H991.537C995.01 412.214 997.832 409.48 997.832 406.119V359.295C997.832 355.934 995.01 353.2 991.537 353.2ZM957.695 408.367C957.706 408.29 957.742 408.223 957.742 408.144L958.438 392.858L959.132 408.144C959.132 408.223 959.168 408.29 959.178 408.367H957.695ZM978.73 408.367C978.74 408.29 978.776 408.223 978.776 408.144L979.47 392.858L980.165 408.144C980.165 408.223 980.201 408.29 980.212 408.367H978.73ZM993.859 406.119C993.859 407.359 992.818 408.367 991.537 408.367H983.619C983.629 408.29 983.665 408.223 983.665 408.144L984.356 383.281L984.989 389.959C985.024 390.677 985.654 391.231 986.394 391.195C987.134 391.161 987.706 390.553 987.671 389.835V378.841C987.671 374.239 981.92 374.014 979.47 374.014C977.022 374.014 971.271 374.239 971.271 378.841V389.835C971.236 390.553 971.808 391.161 972.548 391.195C973.289 391.231 973.917 390.677 973.953 389.959L974.586 383.281L975.276 408.144C975.276 408.223 975.312 408.29 975.323 408.367H962.585C962.596 408.29 962.632 408.223 962.632 408.144L963.323 383.281L963.955 389.959C963.99 390.677 964.619 391.231 965.359 391.195C966.1 391.161 966.672 390.553 966.636 389.835V378.841C966.636 374.239 960.886 374.014 958.438 374.014C955.989 374.014 950.237 374.239 950.237 378.841V389.835C950.202 390.553 950.774 391.161 951.514 391.195C952.254 391.231 952.884 390.677 952.919 389.959L953.552 383.281L954.243 408.144C954.243 408.223 954.279 408.29 954.289 408.367H946.368C945.089 408.367 944.046 407.359 944.046 406.119V359.295C944.046 358.055 945.089 357.047 946.368 357.047H991.537C992.818 357.047 993.859 358.055 993.859 359.295L993.859 406.119Z" fill="#163767"/>
<path d="M973.871 343.179L978.59 338.61V348.884C978.59 349.821 979.375 350.581 980.343 350.581C981.311 350.581 982.095 349.821 982.095 348.884V338.61L986.817 343.179C987.158 343.511 987.606 343.677 988.056 343.677C988.504 343.677 988.954 343.511 989.295 343.179C989.981 342.517 989.981 341.442 989.295 340.778L981.582 333.312L980.343 332.112L979.104 333.312L971.391 340.778C970.707 341.442 970.707 342.517 971.391 343.179C972.076 343.842 973.187 343.842 973.871 343.179Z" fill="#163767"/>
<path d="M957.139 350.084L958.378 351.284L959.617 350.084L967.33 342.616C968.014 341.953 968.014 340.878 967.33 340.216C966.646 339.554 965.536 339.554 964.852 340.216L960.131 344.786V334.512C960.131 333.575 959.346 332.815 958.378 332.815C957.41 332.815 956.625 333.574 956.625 334.512V344.786L951.906 340.216C951.222 339.554 950.111 339.554 949.426 340.216C948.742 340.879 948.742 341.953 949.426 342.616L957.139 350.084Z" fill="#163767"/>
<g filter="url(#filter0_d_459_3343)">
<circle cx="611.571" cy="91.6917" r="27.1573" stroke="#163767" stroke-width="2" shape-rendering="crispEdges"/>
</g>
<g filter="url(#filter1_d_459_3343)">
<circle cx="496.054" cy="28.1573" r="27.1573" stroke="#163767" stroke-width="2" shape-rendering="crispEdges"/>
</g>
<g filter="url(#filter2_d_459_3343)">
<circle cx="820.946" cy="153.782" r="27.1573" stroke="#163767" stroke-width="2" shape-rendering="crispEdges"/>
</g>
<path d="M613.737 118.405V176.164" stroke="#163767"/>
<path d="M795.677 153.782H740.806V311.896M496.054 55.5927V208.653" stroke="#163767"/>
<path d="M667.96 82.3382V84.6922H679.532V82.3382H667.96ZM668.598 86.1442V88.3882H676.782V86.1442H668.598ZM664.858 90.4782V92.8762H679.994V90.4782H664.858ZM667.652 95.1642V97.4082H679.752V95.1642H667.652ZM667.982 79.8302C667.3 82.3602 666.046 84.8682 664.462 86.3862C665.078 86.7162 666.2 87.4642 666.684 87.9042C668.268 86.1442 669.72 83.3062 670.556 80.4022L667.982 79.8302ZM667.542 86.1442C667.212 90.0382 666.486 95.1642 665.87 98.2882L668.378 98.4642C668.928 95.3402 669.566 90.1702 669.984 86.1442H667.542ZM671.722 86.9802C671.568 89.9502 671.172 93.8662 670.82 96.3082H673.086C673.416 93.9542 673.79 90.0382 674.01 86.9802H671.722ZM676.056 86.1442V86.6282C675.792 94.4602 675.462 97.4082 674.912 98.0462C674.692 98.3322 674.472 98.3982 674.098 98.3982C673.658 98.3982 672.822 98.3982 671.854 98.3102C672.206 98.9042 672.47 99.8282 672.492 100.466C673.592 100.51 674.626 100.532 675.308 100.422C676.034 100.312 676.562 100.092 677.068 99.4102C677.794 98.4422 678.146 95.5162 678.454 87.2222C678.476 86.9142 678.498 86.1442 678.498 86.1442H676.056ZM660.15 81.9202C661.426 82.5362 662.988 83.5482 663.736 84.2962L665.32 82.1842C664.528 81.4362 662.878 80.5562 661.624 80.0061L660.15 81.9202ZM659.138 87.8162C660.414 88.3882 661.998 89.3342 662.724 90.0602L664.286 87.9262C663.472 87.2222 661.866 86.3642 660.59 85.8802L659.138 87.8162ZM659.556 98.8382L661.932 100.29C662.944 98.1342 664.022 95.5382 664.88 93.1622L662.79 91.7102C661.8 94.3062 660.48 97.1222 659.556 98.8382ZM684.504 94.1302V96.1762H698.848V94.1302H684.504ZM685.076 90.5882V92.7662H699.838V90.5882H685.076ZM681.798 97.6722V99.9382H701.268V97.6722H681.798ZM690.202 89.2462V99.2562H692.952V89.2462H690.202ZM686.506 85.6602H696.274V86.8262H686.506V85.6602ZM686.506 82.6242H696.274V83.7902H686.506V82.6242ZM683.932 80.6222V88.8502H699.024V80.6222H683.932ZM685.054 88.6302C684.262 90.4122 682.81 92.1942 681.292 93.3382C681.908 93.7122 682.986 94.5042 683.492 94.9882C685.01 93.6462 686.66 91.5122 687.65 89.3782L685.054 88.6302Z" fill="#163767"/>
<path d="M549.555 20.2477V22.6017H561.127V20.2477H549.555ZM550.193 24.0537V26.2977H558.377V24.0537H550.193ZM546.453 28.3877V30.7857H561.589V28.3877H546.453ZM549.247 33.0737V35.3177H561.347V33.0737H549.247ZM549.577 17.7397C548.895 20.2697 547.641 22.7777 546.057 24.2957C546.673 24.6257 547.795 25.3737 548.279 25.8137C549.863 24.0537 551.315 21.2157 552.151 18.3117L549.577 17.7397ZM549.137 24.0537C548.807 27.9477 548.081 33.0737 547.465 36.1977L549.973 36.3737C550.523 33.2497 551.161 28.0797 551.579 24.0537H549.137ZM553.317 24.8897C553.163 27.8597 552.767 31.7757 552.415 34.2177H554.681C555.011 31.8637 555.385 27.9477 555.605 24.8897H553.317ZM557.651 24.0537V24.5377C557.387 32.3697 557.057 35.3177 556.507 35.9557C556.287 36.2417 556.067 36.3077 555.693 36.3077C555.253 36.3077 554.417 36.3077 553.449 36.2197C553.801 36.8137 554.065 37.7377 554.087 38.3757C555.187 38.4197 556.221 38.4417 556.903 38.3317C557.629 38.2217 558.157 38.0017 558.663 37.3197C559.389 36.3517 559.741 33.4257 560.049 25.1317C560.071 24.8237 560.093 24.0537 560.093 24.0537H557.651ZM541.745 19.8297C543.021 20.4457 544.583 21.4577 545.331 22.2057L546.915 20.0937C546.123 19.3457 544.473 18.4657 543.219 17.9157L541.745 19.8297ZM540.733 25.7257C542.009 26.2977 543.593 27.2437 544.319 27.9697L545.881 25.8357C545.067 25.1317 543.461 24.2737 542.185 23.7897L540.733 25.7257ZM541.151 36.7477L543.527 38.1997C544.539 36.0437 545.617 33.4477 546.475 31.0717L544.385 29.6197C543.395 32.2157 542.075 35.0317 541.151 36.7477ZM568.387 17.7177C567.309 19.2357 565.417 20.9737 562.843 22.2277C563.349 22.5797 564.075 23.3277 564.405 23.8337C567.199 22.2277 569.223 20.2917 570.741 18.2237L568.387 17.7177ZM568.915 18.8837L567.595 20.5337H574.701V18.8837H568.915ZM573.579 21.8097V35.9997H575.823V21.8097H573.579ZM565.373 21.5017V25.7037H570.719V24.1637H567.727V21.5017H565.373ZM566.891 21.5017V23.0417H578.419V24.1637H574.701V25.7257H580.773V21.5017H566.891ZM570.125 21.8097V34.9217C570.125 37.5177 571.005 38.2217 574.173 38.2217C574.877 38.2217 579.057 38.2217 579.805 38.2217C582.401 38.2217 583.061 37.5177 583.391 35.1417C582.731 35.0097 581.873 34.7017 581.367 34.3717C581.191 36.0877 580.905 36.4397 579.607 36.4397C578.705 36.4397 575.075 36.4397 574.305 36.4397C572.655 36.4397 572.391 36.1977 572.391 34.9437V21.8097H570.125ZM574.657 26.5837V28.2337H579.849V33.5137H574.701V35.1637H581.939V26.5837H574.657ZM564.295 26.3637V27.4637H567.397V29.9717H564.207V31.0497H569.223V26.3637H564.295ZM564.295 31.7317V32.8097H567.375V35.4937H564.207V36.5497H569.223V31.7317H564.295ZM578.067 28.4537C577.605 29.9277 576.813 31.3577 575.845 32.3697C576.175 32.5897 576.747 33.0517 577.011 33.2937C578.001 32.1937 578.925 30.4777 579.475 28.8057L578.067 28.4537ZM575.691 29.9717C576.901 30.7857 578.331 31.9517 578.969 32.8317L579.871 31.6877C579.211 30.8517 577.781 29.7297 576.549 28.9817L575.691 29.9717ZM563.305 28.0797V29.3117H568.013V28.0797H563.305ZM568.167 27.7937V29.5757H574.635V27.7937H568.167ZM563.305 33.4697V34.7017H567.991V33.4697H563.305ZM568.167 33.2277V34.9877H574.657V33.2277H568.167ZM573.953 18.8837V19.2797C573.579 20.0057 572.765 21.1277 572.061 21.8097C572.545 22.0737 573.227 22.5577 573.623 22.9097C574.547 22.1837 575.713 20.9517 576.483 19.9177L574.855 18.7737L574.503 18.8837H573.953Z" fill="#163767"/>
<path d="M863.221 148.777V151.439H869.359V148.777H863.221ZM871.779 143.409V160.613C871.779 161.031 871.625 161.163 871.185 161.185C870.701 161.185 869.315 161.185 867.863 161.119C868.281 161.911 868.809 163.253 868.919 164.067C870.921 164.067 872.373 163.957 873.319 163.495C874.243 163.011 874.573 162.219 874.573 160.635V143.409H871.779ZM868.457 148.777V149.349C867.709 154.211 865.553 158.039 862.539 160.063C863.177 160.459 864.255 161.537 864.717 162.153C867.863 159.843 870.283 155.355 871.295 149.349L869.469 148.689L869.007 148.777H868.457ZM874.419 146.621L872.329 147.061C873.891 153.859 876.509 159.579 881.613 162.461C882.053 161.647 882.977 160.547 883.637 159.997C878.709 157.643 875.827 152.451 874.419 146.621ZM880.579 146.819C879.215 148.777 876.883 151.175 875.101 152.649L876.993 154.145C878.841 152.759 881.195 150.537 883.065 148.557L880.579 146.819ZM884.737 144.861C887.333 148.007 887.707 151.263 887.707 155.377C887.707 158.061 887.597 160.789 887.179 161.361C887.047 161.537 886.849 161.647 886.607 161.669C886.277 161.691 885.793 161.691 885.155 161.647C885.529 162.351 885.683 163.253 885.683 164.023C886.453 164.045 887.201 164.023 887.795 163.891C888.301 163.759 888.719 163.517 889.005 163.121C889.907 161.801 890.039 158.501 890.039 155.443C890.039 151.065 889.665 147.347 886.541 143.629L884.737 144.861ZM887.839 151.659C887.157 153.485 885.771 155.619 884.495 156.719C885.023 157.181 885.683 158.083 886.013 158.677C887.399 157.225 888.873 154.739 889.643 152.693L887.839 151.659ZM888.873 143.717C887.905 145.917 886.233 148.381 884.473 149.899C885.023 150.295 885.815 151.021 886.233 151.483C888.081 149.789 889.885 147.281 891.095 144.773L888.873 143.717ZM890.523 145.565V147.831H897.981V145.565H890.523ZM897.937 144.069V146.159H903.921V144.069H897.937ZM892.987 143.365V150.317H893.339V155.223H895.011V150.317H895.341V143.365H892.987ZM893.009 155.003V164.023H895.363V155.003H893.009ZM892.503 151.241H895.891V153.705H892.503V151.241ZM890.787 149.239V155.707H897.695V149.239H890.787ZM893.009 154.673C892.393 156.499 891.095 158.831 889.797 160.041C890.171 160.723 890.677 161.823 890.897 162.571C892.393 160.943 893.757 157.841 894.505 155.355L893.009 154.673ZM895.033 156.103L893.955 157.093C894.703 157.973 896.177 159.931 896.727 160.965L898.135 158.963C897.695 158.479 895.627 156.565 895.033 156.103ZM902.975 144.069V144.355C902.909 147.193 902.843 148.205 902.667 148.469C902.535 148.645 902.381 148.667 902.161 148.667C901.919 148.667 901.457 148.667 900.907 148.601C901.193 149.107 901.391 149.943 901.435 150.559C902.161 150.581 902.843 150.559 903.261 150.493C903.767 150.427 904.119 150.251 904.449 149.855C904.845 149.349 904.955 147.963 905.021 144.817C905.043 144.575 905.043 144.069 905.043 144.069H902.975ZM899.389 145.015C899.279 147.061 898.685 148.579 897.189 149.547C897.651 149.877 898.443 150.625 898.729 151.043C900.511 149.767 901.325 147.809 901.545 145.125L899.389 145.015ZM900.401 155.157H902.579V156.081H900.401V155.157ZM900.401 157.643H902.579V158.567H900.401V157.643ZM900.401 152.671H902.579V153.595H900.401V152.671ZM898.355 151.021V160.217H904.713V151.021H898.355ZM901.743 160.789C902.491 161.779 903.393 163.187 903.789 164.045L905.615 162.857C905.175 161.999 904.273 160.723 903.481 159.777L901.743 160.789ZM899.345 159.777C898.685 160.723 897.431 161.955 896.287 162.637C896.793 163.011 897.541 163.671 897.937 164.067C899.081 163.341 900.467 162.043 901.303 160.943L899.345 159.777Z" fill="#163767"/>
<path d="M343.716 137.899L277.294 200.711L304.007 207.931L367.541 142.953L343.716 137.899Z" stroke="#163767"/>
<path d="M389.201 148.006L324.223 212.263L339.384 216.595L402.197 150.172L389.201 148.006Z" stroke="#163767"/>
<path d="M446.238 163.89L424.578 157.392L356.712 222.371L381.259 228.868L446.238 163.89Z" stroke="#163767"/>
<path d="M416.636 237.532L480.893 171.832L467.175 168.222L400.753 233.2L416.636 237.532Z" stroke="#163767"/>
<path d="M1046.2 405.754L998.553 452.684M1046.2 405.754V394.924M1046.2 405.754L1064.25 385.539M1046.2 405.754V413.696M998.553 452.684V428.137M998.553 452.684L854.878 415.141V390.594M998.553 428.137L932.13 410.78M998.553 428.137L1026.85 400.7M1046.2 381.93L1026.85 400.7M1046.2 381.93L1041.87 380.485M1046.2 381.93V387.705M854.878 390.594L919.857 407.573M854.878 390.594L866.43 379.403M932.13 410.78V395.648M932.13 410.78L919.857 407.573M932.13 395.648L919.857 407.573M932.13 395.648L866.43 379.403M901.085 343.665V368.934L885.201 384.096M901.085 343.665L883.757 362.617M901.085 343.665L873.65 337.167M866.43 379.403L883.757 362.617M942.238 303.956V328.503L953.79 316.23V290.96M942.238 303.956L953.79 290.96M942.238 303.956L914.081 296.037M953.79 290.96H896.031M896.031 290.96L857.044 332.113M896.031 290.96L914.081 296.037M857.044 332.113V357.383M857.044 332.113L873.65 337.167M857.044 332.113L848.38 340.055M857.044 357.383L873.65 360.637M857.044 357.383L848.38 364.603M883.757 362.617L873.65 360.637M873.65 337.167L914.081 296.037M873.65 337.167V360.637M848.38 340.055V364.603M848.38 340.055L841.161 338.478M848.38 364.603L841.161 362.86M785.568 326.337V349.441M785.568 326.337L795.486 328.503M785.568 326.337L737.917 362.86M785.568 349.441L795.486 351.835M785.568 349.441L737.917 386.984M841.161 338.478V362.86M841.161 338.478L795.486 328.503M841.161 362.86L795.486 351.835M795.486 328.503V351.835M737.917 362.86V386.984M737.917 362.86L683.046 347.997M737.917 386.984L683.046 371.822M683.046 347.997V371.822M683.046 347.997C668.11 362.765 646.05 360.193 597.13 347.997M683.046 371.822C668.828 385.759 646.81 383.438 597.13 371.822M597.13 347.997V371.822M597.13 347.997L498.219 445.465V476.508M597.13 347.997L557.421 337.889V360.993L577.637 365.325M597.13 371.822L498.219 468.568L460.676 457.737M603.628 301.79V325.616L666.441 299.624M603.628 301.79L644.781 285.234M603.628 301.79L703.984 202.155V227.424L644.781 285.234M666.441 299.624V276.521M666.441 299.624C725.092 290.433 758.517 289.22 820.223 301.79M666.441 276.521C727.199 265.951 761.026 265.916 820.223 278.687M666.441 276.521L674.383 264.968C730.268 257.712 762.302 255.566 825.999 270.021M666.441 276.521L644.781 285.234M820.223 278.687V301.79M820.223 278.687L825.999 270.021M820.223 278.687L851.268 268.577M820.223 301.79L851.268 293.847M825.999 270.021V276.521M851.268 268.577V293.847M851.268 268.577L854.878 265.329M851.268 293.847L865.708 278.687M865.708 255.582V278.687M865.708 255.582L854.878 252.694M865.708 255.582L854.878 265.329M865.708 255.582L905.417 215.151M865.708 278.687L905.417 240.42M854.878 252.694V265.329M854.878 252.694L894.587 212.263L905.417 215.151M905.417 215.151V240.42M905.417 215.151L911.915 208.653L969.673 223.815M905.417 215.151L962.66 231.034M905.417 240.42L945.126 249.084L962.66 231.034M969.673 223.815L962.66 231.034M969.673 223.815V236.81M969.673 236.81L940.794 252.694V276.521L977.615 257.748M969.673 236.81L977.615 233.2M977.615 257.748V233.2M977.615 257.748L1005.05 265.329V240.42M977.615 233.2L1005.05 240.42M1005.05 240.42L1012.99 236.81L1119.85 265.329M1005.05 240.42L1114.79 270.743M1119.85 265.329L1114.79 270.743M1119.85 265.329V272.187M1114.79 270.743L1119.85 272.187M1114.79 270.743V295.215L1131.84 298.901M1119.85 272.187L1150.89 280.851M1150.89 280.851V305.399L1144.39 310.452M1150.89 280.851L1135.73 295.215M1082.3 345.83L1012.99 328.502V353.049H1023.1M1082.3 345.83V370.377M1082.3 345.83L1096.02 332.834M1023.1 353.049V360.269M1023.1 353.049L1005.05 371.099M1023.1 360.269H1034.65M1023.1 360.269L1010.1 373.028M1034.65 360.269V368.933M1034.65 360.269L1020.93 375.699M1034.65 368.933H1044.04M1034.65 368.933L1026.85 377.157M1044.04 368.933V377.597M1044.04 368.933L1034.65 379.081M1044.04 377.597H1054.15M1044.04 377.597L1041.87 380.485M1054.15 377.597V385.539M1054.15 377.597L1046.2 387.705M1054.15 385.539H1064.25M1054.15 385.539L1046.2 394.924M1064.25 385.539V394.924M1064.25 394.924H1072.92M1064.25 394.924L1046.2 413.696M1072.92 394.924V402.866M1072.92 394.924L1054.15 413.696M1072.92 402.866H1080.14L1064.25 422.36M1072.92 402.866L1054.15 422.36M1082.3 370.377V413.696L1064.25 432.467V422.36M1082.3 370.377L1096.02 357.381M1096.02 357.381V332.834M1096.02 357.381L1105.41 360.269M1096.02 332.834L1105.41 336.444M1096.02 332.834L1131.84 298.901M1105.41 360.269V336.444M1105.41 360.269L1144.39 323.448V298.901M1105.41 336.444L1144.39 298.901M1144.39 298.901L1135.73 295.215M1135.73 295.215L1131.84 298.901M997.11 369.655L1005.05 371.099M997.11 393.48L1026.85 400.7M1005.05 371.099L1010.1 373.028M1010.1 373.028L1020.93 375.699M1020.93 375.699L1026.85 377.157M1026.85 377.157L1034.65 379.081M1034.65 379.081L1041.87 380.485M1046.2 387.705V394.924M1046.2 413.696H1054.15M1054.15 413.696V422.36M1054.15 422.36H1064.25M498.219 476.508L490.999 483.006M498.219 476.508L460.676 464.957M490.999 483.006V488.782M490.999 483.006L453.456 470.733M490.999 488.782L484.501 494.558M490.999 488.782L453.456 476.508M484.501 494.558V500.334M484.501 494.558L446.236 483.006M484.501 500.334L477.281 507.554M484.501 500.334L444.792 488.782M477.281 507.554V514.773L439.016 503.222V496.724M477.281 507.554L439.016 496.724M439.016 496.724L446.236 488.782V483.006M446.236 483.006L453.456 476.508M453.456 476.508V470.733M453.456 470.733L460.676 464.957M460.676 464.957V457.737M460.676 457.737L470.062 448.351L291.732 402.866L361.764 335L355.988 293.847L255.633 267.855L184.879 289.515L142.282 332.112L117.012 326.336C117.012 326.336 111.292 331.616 107.626 335C138.672 342.701 196.142 365.901 177.659 397.09C159.176 428.28 98.2407 438.965 70.0834 440.409C51.0712 444.5 19.1115 458.314 43.3701 480.84C67.6287 503.366 119.419 522.956 142.282 529.935L211.592 490.226L236.861 504.666L142.282 555.926C82.5978 539.321 -27.8174 494.847 7.99293 449.795C52.7558 393.48 121.506 421.213 135.063 397.09C147.679 374.644 107.714 362.132 85.245 358.825M85.245 358.825V335L78.0252 333.48M85.245 358.825L57.8097 353.049V329.224M57.8097 329.224L78.0252 333.48M57.8097 329.224L78.0252 309.838M78.0252 333.48L251.301 166.056V143.675L99.2183 289.515M78.0252 309.838L5.82698 289.515V267.855M78.0252 309.838L99.2183 289.515M5.82698 267.855L158.887 118.405M5.82698 267.855L23.8765 272.042M99.2183 289.515L23.8765 272.042M158.887 118.405V143.675M158.887 118.405L224.588 135.011M158.887 143.675L155.277 148.006M158.887 143.675L165.385 145.118M132.896 168.944L23.8765 272.042M224.588 135.011V160.28M224.588 135.011L304.728 57.0366M224.588 160.28L182.713 149.45M224.588 160.28L304.728 81.584M304.728 57.0366V81.584M304.728 57.0366L374.038 75.8082M304.728 81.584L353.1 93.8577M374.038 75.8082L340.827 106.853M374.038 75.8082L529.264 155.859M340.827 106.853V131.401L553.09 186.993M340.827 106.853L529.264 155.859M553.09 186.993L574.027 167.5L529.264 155.859M553.09 186.993L490.277 246.918L496.775 297.457L540.094 309.008C540.094 309.008 540.094 238.254 540.094 227.424C540.094 216.595 542.082 208.825 553.09 186.993ZM443.348 509.72L431.797 521.993L423.133 519.827L426.743 537.877L457.788 529.213L447.68 525.603L457.788 514.773L443.348 509.72ZM223.866 487.338L236.861 477.952L228.92 473.62L259.243 471.454V490.226L251.301 485.172L237.583 496.002L223.866 487.338ZM516.99 133.567L529.264 124.181L543.704 131.401L549.48 125.625L555.256 146.562H526.376L532.874 140.787L516.99 133.567ZM1122.73 429.58L1112.63 440.409L1096.74 436.077L1090.97 441.853L1082.3 423.804L1111.18 418.028L1106.85 425.248L1122.73 429.58Z" stroke="#163767" stroke-width="2"/>
<path d="M609.507 74.98C609.697 74.5784 609.991 74.2403 610.355 74.0039C610.72 73.7675 611.14 73.6422 611.569 73.6422C611.998 73.6422 612.419 73.7675 612.783 74.0039C613.147 74.2403 613.441 74.5784 613.631 74.98L617.517 83.2006L626.206 84.5209C626.631 84.5848 627.03 84.7716 627.358 85.0601C627.687 85.3486 627.931 85.7273 628.064 86.1533C628.197 86.5794 628.213 87.0357 628.11 87.4708C628.008 87.9058 627.791 88.3022 627.483 88.6151L621.193 95.0139L622.678 104.048C622.75 104.49 622.703 104.944 622.542 105.359C622.38 105.774 622.11 106.133 621.763 106.397C621.416 106.66 621.005 106.817 620.577 106.849C620.149 106.881 619.721 106.788 619.341 106.579L611.569 102.312L603.797 106.579C603.417 106.788 602.989 106.881 602.561 106.849C602.133 106.817 601.722 106.66 601.375 106.397C601.028 106.133 600.758 105.774 600.597 105.359C600.435 104.944 600.388 104.49 600.461 104.048L601.942 95.0139L595.658 88.6124C595.351 88.2996 595.135 87.9037 595.032 87.4692C594.93 87.0347 594.946 86.579 595.079 86.1535C595.211 85.7281 595.455 85.3498 595.783 85.0613C596.11 84.7728 596.508 84.5856 596.932 84.5209L605.619 83.2006L609.507 74.98ZM611.567 76.6471L607.852 84.5075C607.687 84.8561 607.443 85.1577 607.142 85.3863C606.841 85.6149 606.491 85.7637 606.122 85.8198L597.811 87.0814L603.825 93.2002C604.092 93.4721 604.292 93.8078 604.406 94.1781C604.521 94.5485 604.548 94.9424 604.485 95.326L603.067 103.968L610.501 99.887C610.831 99.7062 611.198 99.6117 611.57 99.6117C611.943 99.6117 612.31 99.7062 612.64 99.887L620.074 103.968L618.654 95.326C618.59 94.9424 618.617 94.5485 618.732 94.1781C618.847 93.8078 619.046 93.4721 619.313 93.2002L625.327 87.0814L617.016 85.8198C616.648 85.7637 616.298 85.6149 615.996 85.3863C615.695 85.1577 615.451 84.8561 615.286 84.5075L611.567 76.6471Z" fill="#163767"/>
<path d="M478.297 22.7404C478.879 22.683 479.571 22.8763 480.213 23.1728C480.57 24.6573 481.917 25.78 482.93 26.5605C481.596 27.1818 479.555 28.7957 478.219 28.7387C476.621 28.6689 474.271 26.803 474.026 25.4403C475.138 24.477 477.03 22.9226 478.297 22.7404ZM488.701 18.2257L489.246 19.0211C488.512 19.6372 487.914 20.3208 487.458 21.1532C486.968 20.4492 486.437 19.8843 485.694 19.7238C486.655 19.1544 487.702 18.6357 488.701 18.2257ZM475.677 24.957C476.905 25.0178 478.034 24.933 478.771 25.3004C479.013 24.7027 479.073 24.1294 478.64 23.5914C477.477 23.6593 476.502 24.2694 475.677 24.957ZM490.016 17.7333C490.795 17.4596 491.588 17.23 492.405 17.0477C491.677 17.423 490.938 17.8289 490.349 18.2105L490.016 17.7333ZM485.488 21.0845C486.63 21.9534 486.674 22.9165 486.674 24.046C485.566 23.3303 484.498 22.5086 483.488 21.5993C484.036 21.1703 484.866 20.8625 485.488 21.0845ZM482.154 22.2376C491.542 31.0455 505.565 31.7255 514.745 26.1926C515.912 28.7125 511.371 29.6841 509.777 30.1471C505.903 31.2497 500.56 31.9883 495.876 30.8153C492.118 29.8804 488.356 28.4129 485.43 26.6343C484.369 25.776 481.872 24.4438 481.562 23.0025C481.517 22.6432 481.89 22.4555 482.154 22.2376ZM495.13 17.3488C494.606 18.1135 494.232 18.9219 493.875 19.6963C493.396 19.3179 492.794 19.0009 492.034 18.7888C493.009 18.2466 494.174 17.7275 495.13 17.3488ZM490.331 19.8936C491.946 19.9803 492.748 20.3917 493.289 20.9768C492.946 21.9988 492.675 23.3156 492.485 24.4558C491.737 22.8198 489.639 22.1444 488.355 22.4604C488.752 21.3772 489.384 20.6426 490.331 19.8936ZM497.404 16.84C497.936 17.6592 498.471 18.4851 498.762 19.3661C497.685 19.0166 496.451 19.1289 495.512 19.4573C496.005 18.4621 496.534 17.5582 497.404 16.84ZM499.052 16.8757C500.374 17.4415 501.668 18.2414 502.851 19.0553C502.074 19.0814 501.224 19.2467 500.251 19.677C500.045 18.6093 499.557 17.6916 499.052 16.8757ZM489.834 23.7108C491.11 24.0699 491.488 25.5442 491.742 26.605C490.183 26.023 488.665 25.2848 487.224 24.3971C488.017 24.0148 488.996 23.5472 489.834 23.7108ZM499.276 21.1113C499.934 22.3338 500.346 23.9945 500.523 25.3914C498.354 23.6817 495.996 23.4005 493.833 24.7197C494.019 23.6405 494.27 22.4187 494.549 21.5225C496.147 20.5476 497.671 20.0512 499.276 21.1113ZM502.877 17.4204C503.985 17.7365 505.033 18.1261 506.015 18.5739C505.772 18.73 505.555 18.9331 505.365 19.1728C504.616 18.6246 503.775 18.0126 502.877 17.4204ZM500.72 20.9442C502.634 20.0226 503.73 20.3788 505.16 20.7625C506.189 21.9848 506.999 23.3008 507.572 24.6853C505.606 23.7649 503.367 23.8056 501.886 25.2312C501.719 23.8716 501.355 22.3057 500.72 20.9442ZM497.236 25.2555C498.576 25.4549 499.885 26.4007 500.832 27.7579L501.248 28.3468C498.551 28.338 495.813 27.9257 493.148 27.0858C494.256 25.8479 495.655 25.033 497.236 25.2555ZM507.931 19.5619C509.213 20.3086 510.362 21.165 511.376 22.0977C510.014 22.3935 509.29 23.6161 509.065 24.7567C508.458 23.0925 507.548 21.5211 506.374 20.0913C506.742 19.5407 507.382 19.4733 507.931 19.5619ZM487.721 29.4629C488.717 29.9551 489.742 30.4065 490.785 30.807C490.901 32.2176 491.651 33.5551 492.688 34.332C493.97 35.2914 495.531 35.7616 497.262 37.191C498.007 37.8264 500.16 41.0387 499.178 41.6013C495.056 41.3764 489.31 38.9212 487.343 35.4709C486.831 33.3424 487.198 31.4249 487.721 29.4629ZM504.909 25.3815C506.119 25.3744 507.566 25.9874 508.82 27.2921C506.609 27.9473 504.243 28.3072 501.824 28.3451C502.355 26.617 503.196 25.3867 504.909 25.3815ZM511.379 23.4893C512.703 23.1787 513.313 24.1028 513.988 25.0451C512.872 25.7176 511.673 26.2877 510.416 26.7599C510.175 25.6244 510.33 24.026 511.379 23.4893ZM507.056 32.1721C507.802 32.0342 508.524 31.8828 509.218 31.7111C510.252 32.4135 511.77 33.3216 512.468 34.3882C512.998 35.5649 513.216 36.7202 513.334 37.892C509.083 37.2571 507.594 35.2299 507.056 32.1721Z" fill="#163767"/>
<path d="M815.235 146.762C815.384 146.762 815.528 146.703 815.633 146.597C815.739 146.492 815.799 146.348 815.799 146.199C815.799 146.049 815.739 145.906 815.633 145.8C815.528 145.694 815.384 145.635 815.235 145.635C815.085 145.635 814.942 145.694 814.836 145.8C814.73 145.906 814.671 146.049 814.671 146.199C814.671 146.348 814.73 146.492 814.836 146.597C814.942 146.703 815.085 146.762 815.235 146.762ZM806.707 146.199C806.707 146.348 806.647 146.492 806.542 146.597C806.436 146.703 806.292 146.762 806.143 146.762C805.993 146.762 805.85 146.703 805.744 146.597C805.639 146.492 805.579 146.348 805.579 146.199C805.579 146.049 805.639 145.906 805.744 145.8C805.85 145.694 805.993 145.635 806.143 145.635C806.292 145.635 806.436 145.694 806.542 145.8C806.647 145.906 806.707 146.049 806.707 146.199ZM812.677 150.832L811.766 149.95C811.518 149.712 811.188 149.58 810.844 149.581C810.509 149.581 810.175 149.704 809.922 149.95L809.01 150.832C808.89 150.945 808.795 151.082 808.729 151.234C808.664 151.385 808.63 151.549 808.63 151.714C808.63 151.879 808.664 152.042 808.729 152.194C808.795 152.346 808.89 152.482 809.01 152.595C809.518 153.087 810.325 153.087 810.833 152.595L810.844 152.584L810.855 152.595C811.363 153.087 812.17 153.087 812.677 152.595C813.174 152.105 813.174 151.324 812.677 150.832ZM810.817 151.59C810.619 151.59 810.43 151.511 810.291 151.372C810.151 151.232 810.073 151.043 810.073 150.845C810.073 150.648 810.151 150.459 810.291 150.319C810.43 150.18 810.619 150.101 810.817 150.101C811.014 150.101 811.204 150.18 811.343 150.319C811.483 150.459 811.561 150.648 811.561 150.845C811.561 151.043 811.483 151.232 811.343 151.372C811.204 151.511 811.014 151.59 810.817 151.59ZM809.272 149.581C809.272 149.88 809.153 150.167 808.942 150.379C808.73 150.59 808.443 150.709 808.144 150.709C807.845 150.709 807.559 150.59 807.347 150.379C807.136 150.167 807.017 149.88 807.017 149.581C807.017 149.282 807.136 148.996 807.347 148.784C807.559 148.573 807.845 148.454 808.144 148.454C808.443 148.454 808.73 148.573 808.942 148.784C809.153 148.996 809.272 149.282 809.272 149.581ZM814.662 149.581C814.662 149.88 814.543 150.167 814.332 150.379C814.12 150.59 813.833 150.709 813.534 150.709C813.235 150.709 812.948 150.59 812.737 150.379C812.526 150.167 812.407 149.88 812.407 149.581C812.407 149.282 812.526 148.996 812.737 148.784C812.948 148.573 813.235 148.454 813.534 148.454C813.833 148.454 814.12 148.573 814.332 148.784C814.543 148.996 814.662 149.282 814.662 149.581Z" fill="#163767"/>
<path d="M826.344 137.18L826.305 137.177H826.192C823.098 137.118 822.121 141.254 824.805 142.651C826.139 143.348 827.235 144.254 828.026 145.346C827.476 145.531 826.981 145.85 826.584 146.274C826.187 146.697 825.901 147.213 825.751 147.773C823.457 148.095 821.377 149.296 819.952 151.122C819.579 150.809 819.15 150.571 818.688 150.421C818.68 149.578 818.547 148.742 818.293 147.938C818.688 147.27 818.851 146.489 818.756 145.719C818.662 144.948 818.314 144.23 817.769 143.678C817.223 143.125 816.51 142.769 815.74 142.664C814.971 142.56 814.189 142.713 813.515 143.099C812.657 142.792 811.752 142.636 810.841 142.637C809.901 142.637 809.003 142.8 808.166 143.099C807.496 142.714 806.718 142.56 805.952 142.661C805.186 142.763 804.474 143.114 803.928 143.66C803.381 144.206 803.029 144.917 802.927 145.683C802.826 146.449 802.979 147.227 803.363 147.897C803.057 148.756 802.901 149.661 802.901 150.573V158.421C802.901 164.744 808.04 169.878 814.369 169.878H827.528C833.86 169.878 838.996 164.742 838.996 158.41V149.942C838.996 142.854 833.263 137.421 826.344 137.18ZM825.848 140.65C825.239 140.335 825.476 139.41 826.164 139.432H826.265L826.475 139.443H826.479C827.243 139.484 828 139.601 828.74 139.793C833.338 140.994 836.741 145.009 836.741 149.942V158.41C836.741 163.496 832.614 167.623 827.528 167.623H814.369C809.283 167.623 805.156 163.496 805.156 158.421V150.573C805.156 150.198 805.192 149.83 805.262 149.475C805.408 148.725 805.706 148.013 806.137 147.382C805.822 147.313 805.546 147.123 805.368 146.853C805.169 146.585 805.084 146.248 805.133 145.917C805.182 145.586 805.361 145.287 805.629 145.088C805.898 144.889 806.235 144.804 806.566 144.853C806.897 144.902 807.195 145.08 807.395 145.349C807.516 145.499 807.606 145.676 807.648 145.871C808.588 145.229 809.701 144.887 810.84 144.89C811.978 144.887 813.091 145.229 814.031 145.871C814.099 145.561 814.284 145.288 814.547 145.11C814.815 144.909 815.151 144.823 815.483 144.87C815.814 144.917 816.113 145.094 816.314 145.361C816.515 145.629 816.601 145.966 816.554 146.297C816.507 146.628 816.33 146.927 816.063 147.128C815.911 147.253 815.733 147.34 815.542 147.382C815.668 147.568 815.781 147.763 815.88 147.965C816.112 148.441 816.266 148.955 816.351 149.496C816.407 149.853 816.434 150.213 816.432 150.573V152.01C816.167 151.938 815.893 151.901 815.617 151.902H814.371C814.198 151.901 814.026 151.935 813.866 152.001C813.706 152.067 813.56 152.164 813.438 152.286C813.315 152.409 813.217 152.554 813.151 152.714C813.084 152.874 813.05 153.045 813.05 153.219V154.459C813.05 154.797 813.113 155.137 813.213 155.438C813.503 155.249 813.742 154.987 813.867 154.648C814.007 154.311 814.272 154.041 814.607 153.895C814.942 153.75 815.32 153.741 815.662 153.869C816.004 153.998 816.282 154.254 816.438 154.585C816.594 154.915 816.616 155.293 816.498 155.638C816.401 155.892 816.28 156.136 816.138 156.368C815.829 156.816 815.442 157.207 814.997 157.52C814.308 158.012 813.532 158.302 812.861 158.302H810.505L810.753 159.045C811.658 161.757 814.192 163.135 817.064 163.135H821.507V163.112C821.656 163.112 821.8 163.053 821.905 162.947C822.011 162.841 822.07 162.698 822.07 162.548V159.729C822.07 158.085 822.724 156.507 823.887 155.344C825.05 154.181 826.627 153.528 828.272 153.528H828.836C828.986 153.528 829.129 153.468 829.235 153.362C829.341 153.257 829.4 153.113 829.4 152.964V151.554C829.4 151.33 829.489 151.115 829.648 150.956C829.806 150.798 830.021 150.709 830.246 150.709C830.47 150.709 830.685 150.798 830.844 150.956C831.002 151.115 831.091 151.33 831.091 151.554V152.964C831.091 153.113 831.151 153.257 831.256 153.362C831.362 153.468 831.506 153.528 831.655 153.528C831.805 153.528 831.948 153.468 832.054 153.362C832.16 153.257 832.219 153.113 832.219 152.964V151.554C832.219 151.034 832.018 150.562 831.689 150.209V149.761C831.688 149.123 831.63 148.486 831.513 147.858C831.363 147.059 831.11 146.284 830.762 145.55C830.076 144.108 829.041 142.875 827.763 141.878C827.289 141.508 826.789 141.174 826.265 140.878L826.216 140.85L826.164 140.822L826.119 140.797L825.848 140.65ZM830.415 149.588C830.142 149.564 829.868 149.598 829.609 149.686C829.35 149.774 829.113 149.915 828.911 150.1C828.71 150.285 828.549 150.51 828.439 150.76C828.329 151.01 828.272 151.281 828.272 151.554V152.4C827.158 152.399 826.059 152.652 825.057 153.141C824.056 153.629 823.179 154.34 822.494 155.219H820.46C820.609 154.527 820.867 153.863 821.225 153.252C821.814 152.244 822.657 151.408 823.67 150.827C824.683 150.246 825.83 149.941 826.998 149.942H827.889V148.679C827.889 148.513 827.921 148.349 827.984 148.195C828.048 148.042 828.141 147.903 828.258 147.785C828.375 147.668 828.515 147.575 828.668 147.511C828.822 147.448 828.986 147.416 829.152 147.416C829.318 147.416 829.482 147.448 829.635 147.511C829.789 147.575 829.928 147.668 830.046 147.785C830.163 147.903 830.256 148.042 830.319 148.195C830.383 148.349 830.415 148.513 830.415 148.679V149.588ZM821.768 156.347C821.224 157.391 820.941 158.552 820.943 159.729V162.007H817.064C814.852 162.007 813.035 161.096 812.142 159.429H812.861C813.831 159.429 814.83 159.024 815.652 158.437C816.026 158.172 816.368 157.864 816.67 157.519H817.366C817.691 157.52 818.005 157.401 818.247 157.184C818.49 156.968 818.644 156.67 818.68 156.347H821.768ZM818.688 154.961C818.688 153.946 818.195 153.049 817.435 152.492L817.515 152.49C817.716 152.49 817.916 152.529 818.103 152.606C818.289 152.683 818.458 152.795 818.601 152.938C818.743 153.081 818.856 153.25 818.933 153.436C819.01 153.622 819.049 153.822 819.048 154.024L819.047 154.091C819.039 154.297 818.989 154.498 818.901 154.683L818.892 154.7C818.836 154.813 818.768 154.917 818.688 155.013V154.961Z" fill="#163767"/>
<path d="M411.644 561.931V560.652L416.445 555.397C417.009 554.781 417.473 554.246 417.837 553.791C418.202 553.332 418.472 552.901 418.647 552.499C418.827 552.092 418.917 551.666 418.917 551.22C418.917 550.709 418.794 550.266 418.548 549.892C418.306 549.518 417.975 549.229 417.553 549.026C417.132 548.822 416.658 548.72 416.133 548.72C415.574 548.72 415.086 548.836 414.67 549.068C414.258 549.296 413.938 549.615 413.711 550.027C413.488 550.439 413.377 550.922 413.377 551.476H411.701C411.701 550.624 411.897 549.876 412.29 549.232C412.683 548.588 413.218 548.086 413.896 547.726C414.577 547.366 415.342 547.186 416.19 547.186C417.042 547.186 417.797 547.366 418.455 547.726C419.113 548.086 419.629 548.571 420.003 549.182C420.378 549.793 420.565 550.472 420.565 551.22C420.565 551.755 420.467 552.279 420.273 552.79C420.084 553.297 419.753 553.862 419.279 554.487C418.81 555.108 418.159 555.865 417.326 556.76L414.059 560.255V560.368H420.82V561.931H411.644ZM424.009 561.931V547.385H432.731V548.948H425.771V553.862H432.077V555.425H425.771V561.931H424.009Z" fill="#163767"/>
<path d="M254.252 456.521V455.243L259.053 449.987C259.616 449.372 260.08 448.837 260.445 448.382C260.81 447.923 261.079 447.492 261.255 447.089C261.435 446.682 261.525 446.256 261.525 445.811C261.525 445.3 261.401 444.857 261.155 444.483C260.914 444.109 260.582 443.82 260.161 443.616C259.739 443.413 259.266 443.311 258.74 443.311C258.182 443.311 257.694 443.427 257.277 443.659C256.865 443.886 256.546 444.206 256.319 444.618C256.096 445.03 255.985 445.513 255.985 446.067H254.309C254.309 445.214 254.505 444.466 254.898 443.822C255.291 443.178 255.826 442.677 256.503 442.317C257.185 441.957 257.95 441.777 258.797 441.777C259.65 441.777 260.405 441.957 261.063 442.317C261.721 442.677 262.237 443.162 262.611 443.773C262.985 444.383 263.172 445.063 263.172 445.811C263.172 446.346 263.075 446.869 262.881 447.381C262.692 447.887 262.36 448.453 261.887 449.078C261.418 449.698 260.767 450.456 259.934 451.351L256.667 454.845V454.959H263.428V456.521H254.252ZM266.617 456.521V441.976H275.338V443.538H268.378V448.453H274.685V450.016H268.378V456.521H266.617Z" fill="#163767"/>
<defs>
<filter id="filter0_d_459_3343" x="579.414" y="63.5344" width="64.3147" height="64.3146" filterUnits="userSpaceOnUse" color-interpolation-filters="sRGB">
<feFlood flood-opacity="0" result="BackgroundImageFix"/>
<feColorMatrix in="SourceAlpha" type="matrix" values="0 0 0 0 0 0 0 0 0 0 0 0 0 0 0 0 0 0 127 0" result="hardAlpha"/>
<feOffset dy="4"/>
<feGaussianBlur stdDeviation="2"/>
<feComposite in2="hardAlpha" operator="out"/>
<feColorMatrix type="matrix" values="0 0 0 0 0 0 0 0 0 0 0 0 0 0 0 0 0 0 0.25 0"/>
<feBlend mode="normal" in2="BackgroundImageFix" result="effect1_dropShadow_459_3343"/>
<feBlend mode="normal" in="SourceGraphic" in2="effect1_dropShadow_459_3343" result="shape"/>
</filter>
<filter id="filter1_d_459_3343" x="463.897" y="0" width="64.3147" height="64.3146" filterUnits="userSpaceOnUse" color-interpolation-filters="sRGB">
<feFlood flood-opacity="0" result="BackgroundImageFix"/>
<feColorMatrix in="SourceAlpha" type="matrix" values="0 0 0 0 0 0 0 0 0 0 0 0 0 0 0 0 0 0 127 0" result="hardAlpha"/>
<feOffset dy="4"/>
<feGaussianBlur stdDeviation="2"/>
<feComposite in2="hardAlpha" operator="out"/>
<feColorMatrix type="matrix" values="0 0 0 0 0 0 0 0 0 0 0 0 0 0 0 0 0 0 0.25 0"/>
<feBlend mode="normal" in2="BackgroundImageFix" result="effect1_dropShadow_459_3343"/>
<feBlend mode="normal" in="SourceGraphic" in2="effect1_dropShadow_459_3343" result="shape"/>
</filter>
<filter id="filter2_d_459_3343" x="788.789" y="125.625" width="64.3147" height="64.3146" filterUnits="userSpaceOnUse" color-interpolation-filters="sRGB">
<feFlood flood-opacity="0" result="BackgroundImageFix"/>
<feColorMatrix in="SourceAlpha" type="matrix" values="0 0 0 0 0 0 0 0 0 0 0 0 0 0 0 0 0 0 127 0" result="hardAlpha"/>
<feOffset dy="4"/>
<feGaussianBlur stdDeviation="2"/>
<feComposite in2="hardAlpha" operator="out"/>
<feColorMatrix type="matrix" values="0 0 0 0 0 0 0 0 0 0 0 0 0 0 0 0 0 0 0.25 0"/>
<feBlend mode="normal" in2="BackgroundImageFix" result="effect1_dropShadow_459_3343"/>
<feBlend mode="normal" in="SourceGraphic" in2="effect1_dropShadow_459_3343" result="shape"/>
</filter>
</defs>
</svg>
