<?xml version="1.0" encoding="utf-8"?>
<!-- Generator: Adobe Illustrator 24.1.0, SVG Export Plug-In . SVG Version: 6.00 Build 0)  -->
<svg version="1.1" id="_x32_" xmlns="http://www.w3.org/2000/svg" xmlns:xlink="http://www.w3.org/1999/xlink" x="0px" y="0px"
	 viewBox="0 0 512 512" style="enable-background:new 0 0 512 512;" xml:space="preserve">
<style type="text/css">
	.st0{fill:#FFFFFF;}
</style>
<g>
	<path class="st0" d="M504.4,369.3c28.6-102.2-26.2-181.8-108.7-219.1c-23.9-29.4-40.9-75.1-74.4-86.3c-32.9-11-16.6,39.9-31,63.2
		c-1.2,0-2.5-0.2-3.7,0C196.1,141.3,132.5,187.6,97,259.3c-13.8,22.2-16.7,33.2-32.8,47.5C35.2,332.7,10.1,362.6,0,386.3
		c44,6.3,80.5-12,80.5-12c18.3,23.9,53.9,39.6,59,37.9c18.2-37.9-36.5-75.8,30.9-129.1c29-12.2,45.6-21.1,79.1-21.1
		c9.3,0,33.1,2.3,44.2,6.4c4.9-5.7,9.4-11.5,13.1-17l6.9,4.8c-3.4,5.1-7.5,10.3-11.8,15.6c-4.7,5.7-9.8,11.4-14.9,16.9
		c-27.2,29.7-54.4,55.4-24.7,55.4c50.9,0,90.5-8.9,114.7-18.7c2.2,2,4.4,4.1,6.7,6.3c6.4,6,12.9,12.2,19.6,18.7
		c16.7,16.1,44.3,30.7,51.3,53.2c20.3,64.7,58.2,50,49.7,22.6C496,398.8,494.7,404,504.4,369.3z M452.5,331.8
		c-6,0-10.9-4.9-10.9-10.9c0-6,4.9-10.9,10.9-10.9c6,0,10.8,4.9,10.8,10.9C463.4,326.9,458.5,331.8,452.5,331.8z"/>
</g>
</svg>
