<?xml version="1.0" encoding="utf-8"?>
<!-- Generator: Adobe Illustrator 24.1.0, SVG Export Plug-In . SVG Version: 6.00 Build 0)  -->
<svg version="1.1" id="圖層_1" xmlns="http://www.w3.org/2000/svg" xmlns:xlink="http://www.w3.org/1999/xlink" x="0px" y="0px"
	 viewBox="0 0 512 512" style="enable-background:new 0 0 512 512;" xml:space="preserve">
<style type="text/css">
	.st0{fill:#FFFFFF;}
</style>
<path class="st0" d="M512,364.7c-0.4-5-5.9-3-9.5-3.6c-1.9-0.3-4.7-1.7-5.1-3.2c-0.8-3.5-2.9-4.1-5.7-4.1c-2,0-4-0.1-6-0.1
	c-3.3-0.1-5.1-1.5-4.3-5.1c0.8-3.3-0.6-5-3.7-5.8c-1.6-0.4-3.1-1-4.7-1.5c-3.6-1.2-5.6-2.8-2.8-6.8c2.2-3.1,0.9-5.7-2.3-7.5
	c-1.3-0.7-2.5-1.4-4.3-2.4c2.5-2.8,5-7.5,6.8-7.3c5.9,0.9,11.1-0.8,16.5-2.2c1.5-0.4,3.4,0.1,5-0.4c1.5-0.5,3.2-1.6,3.6-2.9
	c0.3-0.8-1.3-2.8-2.5-3.6c-12.1-7.2-25.1-9.5-39-7.3c-13.5,2.2-27,4.5-40.4,7c-8.8,1.6-16.2-0.2-21.9-7.4c-1.3-1.7-3-3.1-4.4-4.7
	c-22.7-27.4-52.8-44.6-83.7-60.5c-2.4-1.2-5-2-7.5-2.7c-35.8-11-72.4-14.5-109.7-11.7c-11.5,0.8-23,1-34.5,1
	c-3.6,0-7.7-1.3-10.5-3.4c-4.5-3.3-8.8-7.3-12.2-11.8c-9.6-12.6-18.7-25.5-28-38.4c-20.5-28.6-62.6-29.5-80.4-2.9
	c-3,4.5-9.2,6.9-13.8,10.3c-2.3,1.7-4.5,3.6-6.8,5.5c0,2,0,4,0,6c0.8,1.8,1.5,3.6,2.2,5.4c2.4,6.1,6.6,10.6,12.4,13.8
	c4.7,2.6,9.1,5.7,13.3,8.4c1.5,0.2,4.2-0.2,5,0.8c2.7,3.4,5.7,7.1,7,11.2c3,10.2,5.2,20.7,7.5,31c3.8,16.8,11.2,32,20.5,46.4
	c1,1.7,2.3,4.5,1.6,5.7c-3.2,5.7-6.9,11.2-10.8,16.6c-1.8,2.5-4.8,4.1-6.9,6.5c-4.7,5.1-3.1,11.2,3.7,12.3c5.8,1,12,1.3,17.8,0.4
	c10.8-1.7,21.5-2.4,32.3-1.5c7.5,0.6,13.9,3.4,18.7,9.2c5.8,7.1,11.7,14.2,16.9,21.7c4.8,7,10.9,11.9,18.5,15.4
	c20.9,9.6,41.6,19.7,62.4,29.5c3.4,1.6,7.2,2.6,10.8,3.8c2.9,1,6.4,1.2,7.2-2.1c0.6-2.1-1.1-5-2.3-7.3c-1-2-2.7-3.6-4.1-5.4
	c-1.5-2-3-3.8-4.5-5.8c-1.4-1.8-3-3.5-4.1-5.5c-1.7-3.2-2.9-6.8-4.8-9.8c-2.7-4.3-5.9-8.4-9.6-13.3c3.5-0.3,5.9-0.8,8.2-0.8
	c14.7-0.1,29.4,0.3,44-0.4c21.4-1.1,42.5-4.4,60.8-17.1c24.5-17,51.8-21.1,80.2-14.3c15,3.6,30.4,7.5,41.9,19.5
	c3.6,3.7,8.8,6.1,13.7,8c14.2,5.5,28.8,3.7,43.4,0.9C506.7,369.4,512.3,369.4,512,364.7z M46.2,174.6c-1.9,0-3.4-1.5-3.4-3.4
	s1.5-3.4,3.4-3.4c1.9,0,3.4,1.5,3.4,3.4S48.1,174.6,46.2,174.6z"/>
</svg>
