<svg width="35" height="35" viewBox="0 0 35 35" fill="none" xmlns="http://www.w3.org/2000/svg">
<circle cx="17.5" cy="17.5" r="17" stroke="black"/>
<path d="M25.4673 12.074C26.1701 11.3712 26.1701 10.2299 25.4673 9.5271C24.7645 8.8243 23.6231 8.8243 22.9203 9.5271L17 15.4531L11.074 9.53272C10.3712 8.82992 9.22989 8.82992 8.5271 9.53272C7.8243 10.2355 7.8243 11.3769 8.5271 12.0796L14.4531 18L8.53272 23.926C7.82992 24.6288 7.82992 25.7701 8.53272 26.4729C9.23551 27.1757 10.3769 27.1757 11.0796 26.4729L17 20.5469L22.926 26.4673C23.6288 27.1701 24.7701 27.1701 25.4729 26.4673C26.1757 25.7645 26.1757 24.6231 25.4729 23.9203L19.5469 18L25.4673 12.074Z" fill="black"/>
</svg>
