<svg width="39" height="15" viewBox="0 0 39 15" fill="none" xmlns="http://www.w3.org/2000/svg">
<path d="M13 0C6.66957 2.26405 1.69565 0.943352 0 0C0 2.83006 3.95652 4.52809 6.21739 4.52809C10.7391 3.96208 12.4348 2.07537 13 0Z" fill="#CCF1F5"/>
<path d="M13 9.84277C6.66957 12.1068 1.69565 10.7861 0 9.84277C0 12.6728 3.95652 14.3709 6.21739 14.3709C10.7391 13.8049 12.4348 11.9181 13 9.84277Z" fill="#CCF1F5"/>
<path d="M26 0C19.6696 2.26405 14.6957 0.943352 13 0C13 2.83006 16.9565 4.52809 19.2174 4.52809C23.7391 3.96208 25.4348 2.07537 26 0Z" fill="#CCF1F5"/>
<path d="M26 9.84277C19.6696 12.1068 14.6957 10.7861 13 9.84277C13 12.6728 16.9565 14.3709 19.2174 14.3709C23.7391 13.8049 25.4348 11.9181 26 9.84277Z" fill="#CCF1F5"/>
<path d="M39 0C32.6696 2.26405 27.6957 0.943352 26 0C26 2.83006 29.9565 4.52809 32.2174 4.52809C36.7391 3.96208 38.4348 2.07537 39 0Z" fill="#CCF1F5"/>
<path d="M39 9.84277C32.6696 12.1068 27.6957 10.7861 26 9.84277C26 12.6728 29.9565 14.3709 32.2174 14.3709C36.7391 13.8049 38.4348 11.9181 39 9.84277Z" fill="#CCF1F5"/>
</svg>
