<svg width="13" height="11" viewBox="0 0 13 11" fill="none" xmlns="http://www.w3.org/2000/svg">
<path d="M6.49887 0C4.67542 0 3.2153 0.831716 2.15237 1.82164C1.09622 2.80252 0.389853 3.97777 0.0558545 4.78463C-0.0186182 4.96317 -0.0186182 5.16206 0.0558545 5.34061C0.389853 6.14746 1.09622 7.32271 2.15237 8.3036C3.2153 9.29352 4.67542 10.1252 6.49887 10.1252C8.32233 10.1252 9.78244 9.29352 10.8454 8.3036C11.9015 7.32045 12.6079 6.14746 12.9441 5.34061C13.0186 5.16206 13.0186 4.96317 12.9441 4.78463C12.6079 3.97777 11.9015 2.80252 10.8454 1.82164C9.78244 0.831716 8.32233 0 6.49887 0ZM3.24915 5.06262C3.24915 4.19946 3.59153 3.37165 4.20097 2.76131C4.81041 2.15097 5.63699 1.80808 6.49887 1.80808C7.36075 1.80808 8.18733 2.15097 8.79677 2.76131C9.40621 3.37165 9.74859 4.19946 9.74859 5.06262C9.74859 5.92577 9.40621 6.75358 8.79677 7.36392C8.18733 7.97427 7.36075 8.31716 6.49887 8.31716C5.63699 8.31716 4.81041 7.97427 4.20097 7.36392C3.59153 6.75358 3.24915 5.92577 3.24915 5.06262ZM6.49887 3.61616C6.49887 4.41397 5.85119 5.06262 5.05455 5.06262C4.89432 5.06262 4.74086 5.0355 4.59643 4.98803C4.47231 4.94735 4.32788 5.0242 4.33239 5.15528C4.33916 5.31123 4.36173 5.46717 4.40461 5.62312C4.71378 6.78029 5.90309 7.46736 7.05855 7.15773C8.214 6.84809 8.90005 5.65702 8.59088 4.49985C8.34038 3.56191 7.51215 2.93135 6.5914 2.89292C6.46051 2.8884 6.38378 3.03079 6.4244 3.15736C6.47179 3.302 6.49887 3.45569 6.49887 3.61616Z" fill="black"/>
</svg>
