<svg width="23" height="18" viewBox="0 0 23 18" fill="none" xmlns="http://www.w3.org/2000/svg">
<path d="M19.55 5.243e-09C20.43 -4.79494e-05 21.2767 0.328866 21.917 0.919444C22.5573 1.51002 22.9426 2.31762 22.9943 3.177L23 3.375V5.41913C22.9974 5.72297 22.9137 6.02088 22.7572 6.28332C22.6006 6.54577 22.3767 6.76365 22.1076 6.91538L21.9846 6.98062C21.6125 7.15928 21.2967 7.43296 21.0705 7.77274C20.8444 8.11251 20.7163 8.50576 20.6998 8.91089C20.6833 9.31602 20.779 9.71799 20.9768 10.0743C21.1746 10.4306 21.4672 10.728 21.8235 10.935L21.9846 11.0194C22.4825 11.2601 22.9275 11.7574 22.9919 12.4144L23 12.5809V14.625C23 15.4859 22.6638 16.3142 22.0601 16.9405C21.4564 17.5669 20.6309 17.9439 19.7524 17.9944L19.55 18H3.45C2.57001 18 1.72326 17.6711 1.083 17.0806C0.442742 16.49 0.0573764 15.6824 0.00575014 14.823L5.35951e-09 14.625V12.5809C5.35951e-09 11.8991 0.4048 11.3681 0.8924 11.0846L1.01545 11.0194C1.38751 10.8407 1.70331 10.567 1.92946 10.2273C2.15561 9.88749 2.28371 9.49424 2.3002 9.08911C2.3167 8.68398 2.22098 8.28201 2.02317 7.92572C1.82536 7.56942 1.53281 7.27203 1.17645 7.065L1.01545 6.98062C0.5175 6.73987 0.07245 6.24263 0.00804997 5.58563L5.35951e-09 5.42025V3.375C-4.9015e-05 2.51414 0.336174 1.6858 0.939876 1.05946C1.54358 0.433117 2.36912 0.056129 3.2476 0.00562513L3.45 5.243e-09H19.55ZM19.55 2.25H3.45C3.16833 2.25004 2.89646 2.3512 2.68597 2.5343C2.47548 2.71741 2.34101 2.96972 2.30805 3.24337L2.3 3.375V5.10187C2.98159 5.48618 3.551 6.0351 3.95381 6.69616C4.35661 7.35721 4.57933 8.1083 4.60067 8.87761C4.62202 9.64692 4.44127 10.4087 4.07572 11.0902C3.71016 11.7716 3.17202 12.35 2.51275 12.7699L2.3 12.8981V14.625C2.30004 14.9005 2.40345 15.1665 2.59062 15.3724C2.7778 15.5783 3.03571 15.7099 3.31545 15.7421L3.45 15.75H19.55C19.8317 15.75 20.1035 15.6488 20.314 15.4657C20.5245 15.2826 20.659 15.0303 20.6919 14.7566L20.7 14.625V12.8981C20.0184 12.5138 19.449 11.9649 19.0462 11.3038C18.6434 10.6428 18.4207 9.8917 18.3993 9.12239C18.378 8.35308 18.5587 7.59128 18.9243 6.90982C19.2898 6.22836 19.828 5.65003 20.4873 5.23013L20.7 5.10187V3.375C20.7 3.09945 20.5965 2.8335 20.4094 2.62758C20.2222 2.42167 19.9643 2.29011 19.6846 2.25787L19.55 2.25ZM9.2 5.625C9.48167 5.62504 9.75354 5.7262 9.96403 5.9093C10.1745 6.09241 10.309 6.34472 10.3419 6.61838L10.35 6.75V11.25C10.3497 11.5367 10.2374 11.8125 10.0362 12.021C9.83501 12.2295 9.56 12.355 9.2674 12.3718C8.97479 12.3886 8.68666 12.2955 8.46189 12.1115C8.23712 11.9274 8.09267 11.6664 8.05805 11.3816L8.05 11.25V6.75C8.05 6.45163 8.17116 6.16548 8.38683 5.95451C8.60249 5.74353 8.895 5.625 9.2 5.625Z" fill="#16355A"/>
</svg>
