<svg width="27" height="24" viewBox="0 0 27 24" fill="none" xmlns="http://www.w3.org/2000/svg">
<path d="M14.0945 22.9996C19.3933 22.9996 23.6891 18.7038 23.6891 13.4051C23.6891 8.10635 19.3933 3.81055 14.0945 3.81055C8.7958 3.81055 4.5 8.10635 4.5 13.4051C4.5 18.7038 8.7958 22.9996 14.0945 22.9996Z" stroke="#16355A" stroke-width="2" stroke-linecap="round" stroke-linejoin="round"/>
<path d="M11.536 4.45117C12.6905 5.09593 13.7747 6.05026 13.6839 7.29436C13.611 8.28899 12.7609 8.51095 12.5831 9.2299C12.4053 9.94885 13.4338 10.733 11.694 11.894C10.5324 12.6679 7.03936 14.1385 4.5 12.7664" stroke="#16355A" stroke-width="2" stroke-linecap="round"/>
<path d="M4.81983 13.0853C2.90092 14.2929 0.0660469 17.5762 1.30182 19.8015C2.90092 22.6798 8.97746 20.2428 16.0135 14.6844C23.0495 9.12594 25.7551 1 25.7551 1L22.4098 1.89165" stroke="#16355A" stroke-width="2" stroke-linecap="round" stroke-linejoin="round"/>
<path d="M15.375 22.9989C15.375 22.9989 15.6948 19.8007 17.9335 17.8818C20.1723 15.9629 23.0506 15.9629 23.0506 15.9629" stroke="#16355A" stroke-width="2" stroke-linecap="round"/>
</svg>
