<svg width="25" height="20" viewBox="0 0 25 20" fill="none" xmlns="http://www.w3.org/2000/svg">
<path d="M7.31092 20C6.64076 20 6.06685 19.804 5.5892 19.412C5.11155 19.02 4.87314 18.5493 4.87395 18C4.87395 17.45 5.11277 16.979 5.59042 16.587C6.06807 16.195 6.64157 15.9993 7.31092 16C7.98109 16 8.555 16.196 9.03265 16.588C9.51029 16.98 9.74871 17.4507 9.7479 18C9.7479 18.55 9.50908 19.021 9.03143 19.413C8.55378 19.805 7.98028 20.0007 7.31092 20ZM19.4958 20C18.8256 20 18.2517 19.804 17.7741 19.412C17.2964 19.02 17.058 18.5493 17.0588 18C17.0588 17.45 17.2976 16.979 17.7753 16.587C18.2529 16.195 18.8264 15.9993 19.4958 16C20.166 16 20.7399 16.196 21.2175 16.588C21.6952 16.98 21.9336 17.4507 21.9328 18C21.9328 18.55 21.694 19.021 21.2163 19.413C20.7387 19.805 20.1652 20.0007 19.4958 20ZM6.27521 4L9.19958 9H17.729L21.0798 4H6.27521ZM7.31092 15C6.39706 15 5.70658 14.6707 5.2395 14.012C4.77241 13.3533 4.7521 12.6993 5.17857 12.05L6.82353 9.6L2.43697 2H1.18803C0.842787 2 0.558473 1.904 0.335084 1.712C0.111695 1.52 0 1.28267 0 1C0 0.71667 0.116975 0.479003 0.350924 0.287003C0.584874 0.0950034 0.874062 -0.000663206 1.21849 3.46021e-06H3.19853C3.42192 3.46021e-06 3.63515 0.0500036 3.83824 0.150004C4.04132 0.250004 4.19363 0.39167 4.29517 0.575004L5.11765 2H23.0903C23.6387 2 24.0144 2.16667 24.2174 2.5C24.4205 2.83334 24.4104 3.18334 24.187 3.55L19.8613 9.95C19.638 10.2833 19.3435 10.5417 18.9779 10.725C18.6124 10.9083 18.1961 11 17.729 11H8.65126L7.31092 13H20.7447C21.09 13 21.3743 13.096 21.5977 13.288C21.8211 13.48 21.9328 13.7173 21.9328 14C21.9328 14.2833 21.8158 14.521 21.5818 14.713C21.3479 14.905 21.0587 15.0007 20.7143 15H7.31092Z" fill="#16355A"/>
</svg>
