<svg width="26" height="30" viewBox="0 0 26 30" fill="none" xmlns="http://www.w3.org/2000/svg">
<path d="M19.8257 7.13729C19.7255 7.02141 19.6065 6.92948 19.4754 6.86675C19.3444 6.80402 19.2039 6.77174 19.062 6.77174C18.9201 6.77174 18.7796 6.80402 18.6486 6.86675C18.5175 6.92948 18.3985 7.02141 18.2982 7.13729L13.0007 13.2373L7.70323 7.12479C7.60293 7.00906 7.48386 6.91726 7.35282 6.85463C7.22177 6.792 7.08132 6.75977 6.93948 6.75977C6.79764 6.75977 6.65719 6.792 6.52614 6.85463C6.3951 6.91726 6.27603 7.00906 6.17573 7.12479C6.07543 7.24052 5.99587 7.37791 5.94159 7.52911C5.88731 7.68032 5.85937 7.84238 5.85938 8.00604C5.85938 8.1697 5.88731 8.33177 5.94159 8.48297C5.99587 8.63418 6.07543 8.77156 6.17573 8.88729L11.4732 14.9998L6.17573 21.1123C6.07543 21.228 5.99587 21.3654 5.94159 21.5166C5.88731 21.6678 5.85938 21.8299 5.85938 21.9935C5.85937 22.1572 5.88731 22.3193 5.94159 22.4705C5.99587 22.6217 6.07543 22.7591 6.17573 22.8748C6.27603 22.9905 6.3951 23.0823 6.52614 23.1449C6.65719 23.2076 6.79764 23.2398 6.93948 23.2398C7.08132 23.2398 7.22177 23.2076 7.35282 23.1449C7.48386 23.0823 7.60293 22.9905 7.70323 22.8748L13.0007 16.7623L18.2982 22.8748C18.3985 22.9905 18.5176 23.0823 18.6486 23.1449C18.7797 23.2076 18.9201 23.2398 19.062 23.2398C19.2038 23.2398 19.3443 23.2076 19.4753 23.1449C19.6064 23.0823 19.7254 22.9905 19.8257 22.8748C19.926 22.7591 20.0056 22.6217 20.0599 22.4705C20.1141 22.3193 20.1421 22.1572 20.1421 21.9935C20.1421 21.8299 20.1141 21.6678 20.0599 21.5166C20.0056 21.3654 19.926 21.228 19.8257 21.1123L14.5282 14.9998L19.8257 8.88729C20.2374 8.41229 20.2374 7.61229 19.8257 7.13729Z" fill="#888888"/>
</svg>
