<svg width="107" height="70" viewBox="0 0 107 70" fill="none" xmlns="http://www.w3.org/2000/svg">
<path d="M33.5298 12.8018C40.8117 6.31797 50.6387 0.718262 62.4161 0.718262C74.1935 0.718262 84.0204 6.31797 91.3024 12.8018C98.5658 19.2857 103.73 27.0271 106.349 32.4106C107.222 34.2183 107.222 36.3599 106.349 38.1675C103.73 43.5511 98.5658 51.2925 91.3024 57.7763C84.0204 64.2799 74.1935 69.8796 62.4161 69.8796C50.6387 69.8796 40.8117 64.2799 33.5298 57.796C30.5204 55.1042 27.864 52.1963 25.5977 49.3277L8.93465 59.584C6.6126 61.0183 3.65896 60.6253 1.74559 58.6212C-0.167781 56.6171 -0.557885 53.5127 0.779615 51.037L9.2876 35.2989L0.779615 19.5608C-0.557885 17.0851 -0.149205 13.9807 1.76416 11.9766C3.67753 9.97252 6.6126 9.57955 8.95323 11.0139L25.6163 21.2898C27.8826 18.4212 30.539 15.5133 33.5484 12.8215L33.5298 12.8018ZM83.2217 35.2989C83.2217 33.6314 82.5954 32.0322 81.4806 30.8531C80.3658 29.6739 78.8538 29.0115 77.2772 29.0115C75.7006 29.0115 74.1887 29.6739 73.0739 30.8531C71.9591 32.0322 71.3328 33.6314 71.3328 35.2989C71.3328 36.9664 71.9591 38.5657 73.0739 39.7448C74.1887 40.9239 75.7006 41.5863 77.2772 41.5863C78.8538 41.5863 80.3658 40.9239 81.4806 39.7448C82.5954 38.5657 83.2217 36.9664 83.2217 35.2989Z" fill="#97CBE0"/>
</svg>
