<svg xmlns="http://www.w3.org/2000/svg" viewBox="0 0 20.02 15.03"><defs><style>.cls-1{fill:#fff;}.cls-2{fill:#113961;}</style></defs><title>mark_acad</title><g id="レイヤー_2" data-name="レイヤー 2"><g id="レイヤー_3" data-name="レイヤー 3"><path class="cls-1" d="M10,2.37C8.13.52,3.71-.16.4.91V13.17c3.31-1.07,7.73-.38,9.61,1.46Z"/><path class="cls-2" d="M10,15a.43.43,0,0,1-.28-.11c-1.15-1.13-3.47-1.86-5.91-1.86a10.76,10.76,0,0,0-3.29.49.44.44,0,0,1-.37-.05A.42.42,0,0,1,0,13.17V.91A.4.4,0,0,1,.28.53,11.49,11.49,0,0,1,3.83,0C6.51,0,9,.8,10.29,2.08a.4.4,0,0,1,.12.29V14.63a.39.39,0,0,1-.24.37A.45.45,0,0,1,10,15ZM3.82,12.26a10.53,10.53,0,0,1,5.79,1.53V2.54A9.15,9.15,0,0,0,3.83.8a10.88,10.88,0,0,0-3,.41V12.64A11.84,11.84,0,0,1,3.82,12.26Z"/><path class="cls-1" d="M10,2.37C11.89.52,16.31-.16,19.62.91V13.17c-3.31-1.07-7.73-.38-9.61,1.46Z"/><path class="cls-2" d="M10,15l-.15,0a.4.4,0,0,1-.25-.37V2.37a.4.4,0,0,1,.12-.29C11,.8,13.51,0,16.19,0a11.65,11.65,0,0,1,3.56.53A.4.4,0,0,1,20,.91V13.17a.39.39,0,0,1-.52.38,10.94,10.94,0,0,0-3.31-.49c-2.44,0-4.75.73-5.9,1.86A.39.39,0,0,1,10,15Zm.4-12.49V13.79a10.54,10.54,0,0,1,5.78-1.53,11.86,11.86,0,0,1,3,.38V1.21a10.93,10.93,0,0,0-3-.41A9.13,9.13,0,0,0,10.41,2.54Z"/></g></g></svg>