<svg width="57" height="57" viewBox="0 0 57 57" fill="none" xmlns="http://www.w3.org/2000/svg">
<path d="M28.2852 1.27159C27.4646 1.27158 26.6929 1.59126 26.1127 2.17153C25.5322 2.75196 25.2128 3.52344 25.2125 4.3443L25.2125 5.4642C25.2125 7.32282 24.7435 8.04816 24.2367 8.55502C24.2366 8.55513 24.2366 8.55513 24.2365 8.55524C24.0515 8.74019 23.8484 8.90642 23.6333 9.08253C23.4023 9.27157 23.1639 9.46685 22.9325 9.69821C22.2049 10.4259 21.8092 11.2957 21.6913 12.4537C21.011 12.5599 20.3823 12.878 19.8839 13.3763C19.2634 13.9969 18.9216 14.8194 18.9217 15.6923C18.9218 16.5642 19.2627 17.3859 19.8818 18.0061C19.4919 18.2329 19.1279 18.5108 18.7999 18.8389C17.8101 19.8287 17.265 21.1402 17.2649 22.5319L17.2653 43.3877C17.2654 46.2702 19.6105 48.6152 22.4929 48.6153L34.0793 48.6156C35.4708 48.6156 36.7822 48.0705 37.772 47.0808C38.7618 46.091 39.3069 44.7795 39.3069 43.3881L39.3065 22.5323C39.3064 21.1407 38.7614 19.8291 37.7716 18.8393C37.4435 18.5113 37.0793 18.2332 36.6894 18.0064C37.3084 17.3861 37.6494 16.5646 37.6494 15.6929C37.6495 14.8199 37.3077 13.9973 36.6871 13.3767C36.1885 12.8779 35.5592 12.5598 34.8783 12.4537C34.6745 10.5062 33.7214 9.72441 32.9378 9.08307C32.0903 8.38914 31.3583 7.78995 31.3583 5.46453L31.3584 4.34451C31.3581 2.65019 29.9796 1.27173 28.2852 1.27159ZM37.5403 21.6989L32.9047 21.6987C32.4445 21.6988 32.0715 22.0718 32.0713 22.5321C32.0712 22.9924 32.4444 23.3655 32.9047 23.3654L37.6398 23.3656L37.6398 26.9127L32.9047 26.9126C32.4444 26.9127 32.0714 27.2857 32.0713 27.746C32.0712 28.2063 32.4443 28.5794 32.9046 28.5793L37.6399 28.5794L37.6398 32.1268L32.9049 32.1264C32.4446 32.1265 32.0716 32.4995 32.0715 32.9598C32.0714 33.4201 32.4446 33.7933 32.9049 33.7932L37.6399 33.7933L37.6399 37.3404L32.9047 37.3404C32.4444 37.3405 32.0714 37.7135 32.0714 38.1738C32.0715 38.634 32.4446 39.0071 32.9048 39.0072L37.64 39.0072L37.64 42.5543L32.2602 42.554C31.7999 42.5542 31.4269 42.9272 31.4268 43.3874C31.4267 43.8477 31.7999 44.2209 32.2602 44.2208L37.5408 44.221C37.3889 44.8505 37.0658 45.4297 36.5933 45.9022C35.9183 46.5771 35.0254 46.9488 34.0792 46.9488L22.4928 46.9486C20.5294 46.9485 18.932 45.3511 18.932 43.3877L18.9317 23.3652L21.9985 23.3651C22.2287 23.3651 22.437 23.2718 22.5877 23.121C22.7387 22.9701 22.8318 22.7618 22.8319 22.5317C22.8317 22.0715 22.4587 21.6984 21.9984 21.6984L19.031 21.6986C19.1829 21.0692 19.5061 20.4898 19.9785 20.0175C20.6534 19.3426 21.5462 18.9709 22.4924 18.9709L34.0787 18.971C35.025 18.9711 35.9181 19.3427 36.5931 20.0177C37.0652 20.4902 37.3884 21.0695 37.5403 21.6989ZM35.9826 15.6927C35.9826 16.1206 35.8142 16.5244 35.5084 16.8303C35.2027 17.136 34.799 17.3042 34.3713 17.3042L22.1999 17.3041C21.7722 17.3041 21.3683 17.1358 21.0626 16.8301C20.7568 16.5244 20.5884 16.1202 20.5885 15.6923C20.5885 15.2646 20.7568 14.8607 21.0626 14.5549C21.3684 14.2492 21.7725 14.0807 22.2002 14.0807L22.4832 14.0806C22.4842 14.0807 22.4851 14.0808 22.4861 14.0808L34.0852 14.0809C34.0862 14.0809 34.0871 14.0809 34.088 14.0807L34.371 14.0808C34.7986 14.0808 35.2026 14.2493 35.5084 14.5551C35.8142 14.8609 35.9827 15.2648 35.9826 15.6927ZM29.6914 4.34449L29.6914 5.46455C29.6915 8.57958 30.9061 9.57376 31.8819 10.3727C32.5334 10.9061 33.0369 11.3182 33.1974 12.4142L23.375 12.414C23.4952 11.6064 23.7941 11.1939 24.111 10.877C24.2836 10.7044 24.4806 10.5431 24.689 10.3725C24.9261 10.1785 25.1713 9.97767 25.4148 9.73421C25.4149 9.7341 25.4149 9.7341 25.415 9.73399C26.4276 8.72139 26.8792 7.40444 26.8791 5.46445L26.8791 4.34455C26.8791 3.96884 27.0254 3.61589 27.291 3.35023C27.5566 3.08467 27.9095 2.93845 28.2851 2.93829C29.0606 2.9383 29.6915 3.5692 29.6914 4.34449Z" fill="#163767"/>
<path d="M29.8458 42.5545C29.3856 42.5546 29.0126 42.9276 29.0124 43.3879C29.0123 43.8481 29.3855 44.2213 29.8458 44.2213L29.8657 44.2213C30.0958 44.2213 30.3041 44.128 30.455 43.9771C30.6058 43.8263 30.699 43.6181 30.6991 43.3879C30.6992 42.9276 30.326 42.5545 29.8657 42.5545L29.8458 42.5545Z" fill="#163767"/>
<path d="M24.3866 21.6986C23.9264 21.7019 23.5558 22.0777 23.5593 22.538C23.5626 22.9982 23.9386 23.3685 24.3988 23.3652L24.4185 23.3652C24.6465 23.3635 24.8522 23.2705 25.0017 23.1211C25.1539 22.9688 25.2475 22.758 25.2458 22.5257C25.2425 22.0654 24.8665 21.6951 24.4063 21.6985L24.3866 21.6986Z" fill="#163767"/>
</svg>
