<svg width="40" height="41" viewBox="0 0 40 41" fill="none" xmlns="http://www.w3.org/2000/svg">
<path d="M39.9606 32.8367C39.8959 32.6433 39.7571 32.4834 39.5746 32.3922C39.3922 32.301 39.1811 32.2859 38.9875 32.3502L35.0047 33.6778L29.1489 21.966C29.0849 21.8382 28.9867 21.7307 28.8652 21.6556C28.7436 21.5805 28.6036 21.5408 28.4607 21.5408H12.3057V16.1843C12.5603 16.1674 12.8163 16.1558 13.075 16.1558H23.845C24.049 16.1558 24.2447 16.0747 24.389 15.9304C24.5333 15.7862 24.6143 15.5905 24.6143 15.3865C24.6143 15.1824 24.5333 14.9868 24.389 14.8425C24.2447 14.6982 24.049 14.6172 23.845 14.6172H13.075C12.8166 14.6172 12.5605 14.6268 12.3057 14.6417V9.16686C13.4469 8.97397 14.474 8.35942 15.1834 7.44499C15.8928 6.53057 16.2328 5.383 16.136 4.22971C16.0392 3.07642 15.5127 2.00158 14.6608 1.21818C13.8089 0.43478 12.6938 0 11.5365 0C10.3791 0 9.26401 0.43478 8.41211 1.21818C7.56022 2.00158 7.03371 3.07642 6.93692 4.22971C6.84014 5.383 7.18014 6.53057 7.88956 7.44499C8.59897 8.35942 9.62602 8.97397 10.7672 9.16686V14.8253C8.35289 15.2584 6.10911 16.3619 4.29214 18.0097C2.47517 19.6574 1.15827 21.783 0.491863 24.1436C-0.174541 26.5042 -0.163578 29.0046 0.523498 31.3592C1.21057 33.7139 2.54606 35.8278 4.37741 37.4596C6.20876 39.0913 8.46213 40.1751 10.8801 40.5871C13.2981 40.9991 15.7832 40.7227 18.0516 39.7895C20.32 38.8563 22.2802 37.3039 23.7083 35.3097C25.1364 33.3154 25.9748 30.9597 26.1277 28.5116C26.134 28.4108 26.1204 28.3096 26.0876 28.214C26.0548 28.1184 26.0035 28.0301 25.9366 27.9544C25.8697 27.8786 25.7885 27.8167 25.6977 27.7723C25.6069 27.728 25.5082 27.7019 25.4073 27.6957C25.3064 27.6895 25.2053 27.7032 25.1097 27.7361C25.0141 27.769 24.9259 27.8204 24.8502 27.8874C24.7745 27.9544 24.7128 28.0356 24.6685 28.1265C24.6242 28.2174 24.5983 28.3161 24.5921 28.417C24.4573 30.5655 23.7242 32.6334 22.4757 34.3871C21.2271 36.1407 19.513 37.5102 17.5269 38.3406C15.5408 39.1711 13.362 39.4294 11.2368 39.0864C9.1116 38.7435 7.1247 37.8129 5.50068 36.3998C3.87666 34.9868 2.68027 33.1476 2.04676 31.0902C1.41325 29.0328 1.36787 26.8393 1.91574 24.7575C2.46361 22.6756 3.58289 20.7886 5.14708 19.3096C6.71126 17.8305 8.65797 16.8186 10.7672 16.388V22.31C10.7672 22.5141 10.8482 22.7097 10.9925 22.854C11.1368 22.9983 11.3324 23.0793 11.5365 23.0793H27.9854L33.9269 34.9627C34.0096 35.1283 34.1494 35.2586 34.3205 35.3294C34.4916 35.4003 34.6825 35.407 34.8582 35.3484L39.4739 33.8099C39.6675 33.7453 39.8275 33.6065 39.9188 33.4241C40.01 33.2416 40.025 33.0303 39.9606 32.8367ZM8.45932 4.61649C8.45932 4.00789 8.63979 3.41295 8.97792 2.90692C9.31604 2.40089 9.79662 2.00648 10.3589 1.77358C10.9212 1.54068 11.5399 1.47974 12.1368 1.59848C12.7337 1.71721 13.282 2.01028 13.7123 2.44062C14.1427 2.87097 14.4357 3.41926 14.5545 4.01617C14.6732 4.61308 14.6123 5.23179 14.3794 5.79406C14.1465 6.35633 13.7521 6.83692 13.246 7.17504C12.74 7.51316 12.1451 7.69363 11.5365 7.69363C10.7206 7.69269 9.9385 7.3682 9.36163 6.79132C8.78475 6.21445 8.46026 5.43231 8.45932 4.61649Z" fill="#163767"/>
</svg>
