<svg width="410" height="191" viewBox="0 0 410 191" fill="none" xmlns="http://www.w3.org/2000/svg">
<path d="M66 143V176H305" stroke="#26450C" stroke-width="5"/>
<path d="M363 106V67H115" stroke="#26450C" stroke-width="5"/>
<path d="M96.0262 47.5633C95.027 46.2512 93.7845 45.2105 92.4246 44.5033C91.0641 43.7929 89.5827 43.3099 88.1015 43.3757C79.3198 43.7565 76.5977 49.1017 75.9829 53.0794C75.811 54.2109 75.6969 55.3017 75.9337 56.4069C76.2171 57.7231 77.3182 58.8705 78.3444 59.7884C79.3742 60.6956 80.3344 61.3334 80.3344 61.3334C81.1418 62.0033 81.496 62.5656 81.506 63.0568C81.5123 63.5458 81.1694 63.9685 80.577 64.3964C80.577 64.3964 79.8285 64.88 79.0631 65.6648C78.2931 66.4573 77.499 67.527 77.3842 68.86C77.2713 70.1765 77.8744 71.6537 78.4702 72.8712C79.0713 74.0841 79.6795 75.008 79.6795 75.008C79.9318 75.8639 79.7635 76.8104 79.2367 77.5282C79.2367 77.5282 78.8278 77.8224 78.3539 78.3074C77.8816 78.7984 77.3408 79.4779 77.073 80.2947C76.9443 80.6922 76.885 81.101 76.8775 81.5063C76.5365 81.0955 76.1913 80.7507 75.8708 80.4705C74.8831 79.6073 74.1088 79.2872 74.1111 79.2836C72.5812 77.7187 71.3404 75.5641 70.938 73.6293C70.9388 73.6324 71.2106 72.2465 71.0105 70.2797C70.8215 68.3168 70.1382 65.7979 68.535 63.7288C68.2921 63.4192 68.0371 63.1256 67.775 62.8531L67.6809 62.7543L67.5981 62.672L67.4298 62.5209C67.3226 62.4223 67.2122 62.3243 67.0997 62.2301C66.6574 61.858 66.2125 61.5352 65.8124 61.2654C65.0121 60.7259 64.3983 60.4007 64.3983 60.4007C63.4401 59.5366 62.834 58.2474 62.8024 57.0386C62.8064 57.0409 63.1571 55.6897 63.4924 53.9681C63.6542 53.1041 63.8188 52.1455 63.9019 51.1787C63.9872 50.208 63.9949 49.2312 63.8164 48.2857C63.6432 47.3353 63.3072 46.4748 62.9023 45.6867C62.4952 44.9023 62.018 44.197 61.5598 43.5934C60.6411 42.3901 59.7958 41.6102 59.7937 41.614C58.5975 39.7805 58.4565 38.4187 60.2562 36.7356C60.2602 36.7379 61.2129 35.5408 62.8067 34.4263C65.0985 32.8249 67.0697 30.2658 68.4127 25.277C69.7587 20.2875 66.8513 12.7712 60.217 10.177C58.5344 9.51919 56.8977 9.08214 55.1109 8.93169C47.6536 8.30544 41.8991 11.153 39.5483 16.4554C35.2308 26.1884 42.8741 34.0978 42.8733 34.0949C43.5439 35.7292 43.8208 36.9051 43.74 37.9035C43.6592 38.902 43.2225 39.7165 42.5159 40.593C42.5199 40.5953 41.61 41.5588 40.7931 43.3993C40.3823 44.317 40.0051 45.4584 39.7971 46.7895C39.5883 48.1175 39.5497 49.6378 39.8273 51.2717C40.1011 52.8807 40.6772 54.4842 41.4115 55.9345C42.1436 57.3887 43.0275 58.6911 43.88 59.7533C45.5934 61.8849 47.1503 63.0555 47.1451 63.0601C48.282 64.4503 49.2607 66.2162 49.8539 67.9381C49.857 67.9373 49.9498 68.837 50.3592 70.1437C50.5636 70.7955 50.8535 71.5516 51.2435 72.3339C51.4374 72.727 51.6624 73.1251 51.9107 73.5236L52.1028 73.817L52.2899 74.0924C52.402 74.2545 52.517 74.4158 52.6412 74.5747C54.2636 76.6648 56.3599 77.7924 58.0635 78.4771C59.7645 79.1527 61.0967 79.3896 61.0999 79.3888C62.6255 80.3091 63.7712 82.1038 63.8562 83.7574C63.853 83.7582 63.5871 84.3938 63.4305 85.3342C63.2778 86.2767 63.2202 87.4856 63.6474 88.7847C63.9368 89.6667 64.3096 90.4824 64.7505 91.2582C64.542 91.2917 64.3391 91.3335 64.1519 91.3842C63.2837 91.6078 62.7066 91.938 62.7066 91.938C61.2202 92.0437 59.671 91.2973 58.8937 90.1032C58.8937 90.1032 58.6955 88.9364 58.1573 87.5721C57.6135 86.1993 56.7655 84.639 55.2882 83.7386C54.3949 83.1969 53.3618 82.9555 52.5351 82.8359C51.7146 82.7147 51.103 82.7246 51.103 82.7246C50.0507 82.4267 49.1444 81.6753 48.7067 80.7242C48.7098 80.7234 48.5444 79.4743 48.152 77.9597C47.7496 76.4447 47.1477 74.68 46.0049 73.5141C44.8575 72.3429 43.2968 71.8477 41.9805 71.5974C40.6722 71.3514 39.6196 71.3795 39.6196 71.3795C37.7628 70.9467 36.9531 70.2224 37.4191 68.1222C37.4232 68.1245 37.8354 66.8385 38.0814 65.2106C38.3218 63.5744 38.4184 61.6165 37.6034 60.0446C36.9306 58.753 36.0027 57.6456 34.872 56.7089C33.7413 55.7723 32.4057 55.0104 30.932 54.4481C27.9866 53.3326 24.4639 52.9899 21.0373 54.0364C17.6159 55.0786 14.9633 57.4007 13.658 60.5271C13.0052 62.0838 12.6949 63.8346 12.788 65.6574C12.8812 67.4802 13.3786 69.3777 14.3216 71.1916C15.4516 73.3743 17.5813 74.958 19.3965 75.9084C21.2162 76.8638 22.7174 77.2191 22.7183 77.2222C24.09 77.7264 24.9031 78.2305 25.3411 78.8552C25.779 79.48 25.8388 80.217 25.7117 81.1564C25.7117 81.1564 25.4771 82.2649 25.6743 83.8481C25.8696 85.4254 26.523 87.4999 28.2173 89.249C29.8825 90.9764 32.3426 92.047 34.3356 92.5875C36.332 93.1399 37.8701 93.2049 37.8678 93.2088C39.1456 93.6271 40.3593 94.4716 41.2035 95.5164C41.2067 95.5156 41.4792 96.1632 42.0658 96.9987C42.6456 97.833 43.5483 98.8629 44.7435 99.5958C46.7315 100.818 49.0262 100.966 50.7506 100.768C52.486 100.573 53.6765 100.064 53.6765 100.064C55.332 100.054 57.0927 100.789 58.2326 101.969C58.2326 101.969 58.4347 102.625 59.0103 103.421C59.5859 104.217 60.5483 105.155 62.0225 105.672C64.4359 106.519 66.9224 106.376 68.876 105.493C69.2686 105.316 69.6402 105.112 69.9871 104.878C71.2278 107.301 74.2519 108.613 77.223 107.859C80.299 107.079 82.249 104.364 81.89 101.579C83.4796 101.079 84.9287 99.9429 85.8419 98.2911C86.437 97.2072 86.4755 96.1064 86.3577 95.2939C86.2414 94.4745 85.9741 93.9387 85.9741 93.9387C85.9823 92.5905 86.657 91.2284 87.7132 90.4311C87.7132 90.4311 88.768 90.1894 89.9871 89.4895C91.207 88.7928 92.5914 87.6153 93.1703 85.8675C93.5204 84.8168 93.5167 83.7073 93.4204 82.8763C93.323 82.0425 93.1372 81.4795 93.1372 81.4795C93.0946 80.3833 93.4202 79.258 94.0363 78.3885C94.0322 78.3862 95.0177 77.6425 96.0536 76.366C97.0892 75.0996 98.1601 73.2689 98.3384 71.332C98.5191 69.3914 97.8335 67.6932 97.1037 66.5386C96.3699 65.3819 95.6075 64.7426 95.6107 64.7418C94.5298 63.176 94.294 62.2255 95.5576 60.5397C95.5535 60.5374 96.4406 59.5863 97.2115 58.0382C97.5972 57.2657 97.9475 56.3441 98.1431 55.3424C98.3423 54.3428 98.3799 53.2617 98.1487 52.2002C97.7738 50.4576 97.0245 48.8724 96.0262 47.5633ZM68.1091 99.9148C67.9048 100.57 67.1444 100.918 66.4184 100.676C61.8101 99.1593 57.3124 97.2626 53.0451 94.9427C48.7786 92.6259 44.7469 89.8783 41.0719 86.7335C37.4008 83.5909 34.0921 80.0596 31.2049 76.2438C28.3177 72.4279 25.8486 68.3382 23.7772 64.0897C23.4491 63.4207 23.7173 62.6524 24.3624 62.3757C25.0085 62.1022 25.7756 62.408 26.0898 63.0513C28.1006 67.1669 30.483 71.1139 33.2634 74.7856C36.0445 78.4605 39.2219 81.854 42.7525 84.8739C46.2831 87.8938 50.1593 90.5356 54.2741 92.7715C58.3889 95.0074 62.74 96.8413 67.2115 98.3184C67.9135 98.5475 68.3163 99.2586 68.1091 99.9148ZM72.9509 89.3389C73.1606 90.2895 72.7099 91.1366 72.0101 91.2205C71.3081 91.308 70.6279 90.6672 70.4383 89.7985C69.8289 87.0156 68.8189 84.3119 67.4849 81.7225C66.1568 79.1317 64.5177 76.6552 62.7437 74.2163C61.8571 72.9984 60.939 71.7851 60.0129 70.5673L58.6076 68.7191C58.132 68.0778 57.6733 67.4261 57.2346 66.7627C55.4743 64.104 54.0189 61.2614 52.9027 58.3102C50.6532 52.4056 49.7879 46.1048 50.0233 39.9348C50.2554 33.7526 51.5522 27.691 53.549 21.9199C53.8601 21.0114 54.6756 20.485 55.3382 20.7367C56.0008 20.9884 56.2745 21.897 55.9734 22.7706C54.0433 28.3569 52.8033 34.1878 52.5842 40.0891C52.3616 45.9782 53.1944 51.942 55.3171 57.5043C56.3716 60.2839 57.742 62.9543 59.398 65.4556C59.8126 66.0799 60.2449 66.6966 60.693 67.2996L62.0773 69.1209C63.0083 70.3439 63.9369 71.5706 64.8451 72.8185C66.6577 75.3124 68.3751 77.9014 69.7864 80.6583C71.2034 83.4105 72.2979 86.3316 72.9509 89.3389ZM89.3017 63.8007C89.3888 67.7262 89.0227 71.6378 88.2723 75.4628C86.7688 83.1166 83.7358 90.3739 79.7943 97.0352C79.6405 97.2969 79.389 97.4704 79.1138 97.5371C78.7185 97.3081 78.2927 97.1223 77.8494 96.9798C77.6722 96.6568 77.6628 96.2622 77.859 95.9283C81.6993 89.4346 84.6355 82.3955 86.0826 75.0207C86.8065 71.3349 87.1564 67.576 87.0719 63.8112C86.9882 60.0492 86.4686 56.2884 85.5 52.6217C85.3504 52.0463 85.6958 51.4584 86.2868 51.3054C86.88 51.1485 87.5011 51.5106 87.6592 52.116C88.6704 55.946 89.2152 59.8781 89.3017 63.8007Z" fill="#26450C"/>
<path d="M396.026 154.659C395.959 153.493 395.603 152.378 395.016 151.402C394.431 150.424 393.659 149.524 392.637 148.934C386.577 145.435 382.301 147.312 380.064 149.305C379.43 149.874 378.853 150.444 378.504 151.17C378.09 152.036 378.302 153.151 378.569 154.106C378.842 155.055 379.193 155.823 379.193 155.823C379.427 156.544 379.406 157.012 379.188 157.295C378.968 157.575 378.544 157.669 377.951 157.661C377.951 157.661 377.227 157.618 376.354 157.739C375.475 157.862 374.452 158.133 373.763 158.839C373.084 159.537 372.81 160.63 372.651 161.571C372.497 162.513 372.481 163.294 372.481 163.294C372.258 163.885 371.711 164.35 371.028 164.534C371.028 164.534 370.619 164.528 370.079 164.602C369.537 164.681 368.863 164.837 368.309 165.186C368.041 165.357 367.813 165.564 367.622 165.79C367.582 165.413 367.509 165.072 367.423 164.777C367.157 163.87 366.785 163.362 366.788 163.36C366.481 161.827 366.638 160.081 367.256 158.814C367.255 158.817 368.073 158.146 368.841 156.947C369.615 155.755 370.312 154.039 370.187 152.188C370.166 151.91 370.13 151.636 370.08 151.371L370.062 151.275L370.044 151.193L370.001 151.036C369.974 150.935 369.945 150.833 369.913 150.732C369.787 150.334 369.637 149.963 369.493 149.641C369.204 148.997 368.942 148.553 368.942 148.553C368.696 147.658 368.881 146.671 369.415 145.973C369.416 145.976 370.271 145.359 371.286 144.525C371.79 144.104 372.34 143.63 372.84 143.118C373.342 142.604 373.795 142.054 374.11 141.442C374.43 140.831 374.599 140.201 374.689 139.583C374.776 138.967 374.78 138.365 374.75 137.829C374.686 136.759 374.478 135.959 374.475 135.961C374.514 134.416 375.044 133.584 377.022 133.392C377.024 133.395 378.212 133.12 379.791 133.163C382.062 133.225 384.557 132.609 387.745 130.351C390.936 128.093 392.436 122.604 389.18 118.328C388.354 117.243 387.458 116.303 386.33 115.462C381.619 111.953 376.457 111.132 372.449 113.141C365.09 116.829 366.584 124.544 366.585 124.542C366.285 125.752 365.931 126.535 365.418 127.067C364.906 127.598 364.24 127.875 363.364 128.073C363.366 128.076 362.314 128.237 360.922 128.934C360.226 129.28 359.45 129.767 358.7 130.433C357.95 131.098 357.227 131.943 356.664 132.986C356.109 134.013 355.759 135.165 355.586 136.298C355.41 137.431 355.405 138.543 355.489 139.506C355.659 141.438 356.165 142.76 356.16 142.761C356.284 144.029 356.129 145.444 355.737 146.67C355.74 146.671 355.389 147.22 355.064 148.134C354.902 148.59 354.749 149.141 354.652 149.749C354.601 150.054 354.569 150.374 354.553 150.705L354.547 150.953L354.546 151.188C354.547 151.327 354.55 151.467 354.56 151.61C354.689 153.48 355.576 155.006 356.404 156.115C357.234 157.217 358.018 157.915 358.02 157.916C358.621 159.083 358.565 160.584 357.863 161.557C357.861 161.556 357.391 161.804 356.855 162.27C356.32 162.74 355.727 163.4 355.417 164.317C355.206 164.939 355.082 165.559 355.022 166.185C354.867 166.116 354.711 166.054 354.563 166.003C353.878 165.763 353.34 165.706 353.34 165.706C352.295 165.137 351.6 164.058 351.627 163.053C351.627 163.053 352.029 162.308 352.294 161.307C352.56 160.3 352.707 159.057 352.13 157.922C351.78 157.237 351.199 156.663 350.699 156.245C350.205 155.83 349.791 155.577 349.791 155.577C349.222 154.963 348.96 154.153 349.103 153.429C349.105 153.43 349.567 152.653 349.999 151.628C350.424 150.6 350.831 149.345 350.6 148.201C350.368 147.052 349.549 146.112 348.782 145.413C348.018 144.72 347.3 144.291 347.3 144.291C346.254 143.26 346.044 142.507 347.32 141.514C347.321 141.517 348.187 140.963 349.099 140.145C350.011 139.319 350.974 138.251 351.149 137.015C351.29 135.999 351.177 134.979 350.849 133.97C350.52 132.961 349.975 131.964 349.245 131.022C347.783 129.144 345.58 127.46 342.803 126.603C340.032 125.746 337.189 125.94 334.88 127.159C333.729 127.765 332.718 128.625 331.944 129.698C331.17 130.77 330.633 132.055 330.433 133.482C330.189 135.197 330.889 136.995 331.67 138.301C332.451 139.612 333.294 140.449 333.293 140.451C333.981 141.317 334.295 141.947 334.302 142.486C334.309 143.025 334.01 143.468 333.494 143.946C333.494 143.946 332.829 144.475 332.234 145.456C331.642 146.432 331.128 147.884 331.461 149.592C331.784 151.275 332.942 152.922 334.03 154.071C335.114 155.229 336.115 155.916 336.112 155.918C336.776 156.695 337.202 157.687 337.288 158.636C337.291 158.637 337.176 159.119 337.186 159.841C337.192 160.559 337.324 161.524 337.789 162.445C338.561 163.979 340.031 165.033 341.277 165.65C342.53 166.274 343.561 166.49 343.561 166.49C344.675 167.184 345.517 168.346 345.74 169.496C345.74 169.496 345.575 169.953 345.595 170.648C345.615 171.343 345.83 172.281 346.581 173.198C347.81 174.698 349.542 175.669 351.256 175.995C351.6 176.061 351.943 176.103 352.283 176.117C352.003 178.015 353.427 180.038 355.764 180.867C358.183 181.727 360.736 181.013 361.773 179.283C363.068 179.673 364.56 179.642 365.93 179.092C366.826 178.73 367.356 178.123 367.65 177.612C367.948 177.099 368.015 176.682 368.015 176.682C368.639 175.922 369.716 175.436 370.789 175.431C370.789 175.431 371.607 175.74 372.745 175.859C373.882 175.981 375.35 175.899 376.54 175.154C377.257 174.706 377.763 174.076 378.08 173.565C378.397 173.051 378.531 172.654 378.531 172.654C379.005 172.014 379.74 171.515 380.551 171.283C380.55 171.28 381.551 171.275 382.831 170.99C384.106 170.711 385.664 170.126 386.672 169.104C387.683 168.081 388.003 166.829 388.043 165.866C388.082 164.9 387.865 164.216 387.867 164.217C387.861 162.872 388.139 162.234 389.759 161.813C389.758 161.81 390.788 161.647 392.015 161.096C392.628 160.821 393.286 160.447 393.876 159.962C394.468 159.48 394.989 158.884 395.321 158.184C395.87 157.039 396.095 155.823 396.026 154.659ZM353.301 172.511C352.863 172.796 352.194 172.671 351.819 172.227C349.427 169.418 347.283 166.44 345.487 163.321C343.691 160.203 342.249 156.941 341.229 153.604C340.211 150.271 339.614 146.87 339.429 143.487C339.245 140.103 339.466 136.742 340.027 133.458C340.114 132.94 340.647 132.619 341.206 132.735C341.764 132.853 342.138 133.351 342.054 133.848C341.513 137.031 341.299 140.275 341.478 143.532C341.656 146.79 342.228 150.057 343.209 153.262C344.189 156.466 345.575 159.603 347.307 162.611C349.039 165.618 351.113 168.498 353.432 171.226C353.797 171.653 353.741 172.227 353.301 172.511ZM361.398 168.567C361.102 169.194 360.411 169.483 359.904 169.235C359.393 168.987 359.232 168.337 359.503 167.764C360.371 165.93 360.935 163.971 361.229 161.939C361.527 159.909 361.565 157.813 361.495 155.68C361.46 154.615 361.401 153.54 361.339 152.458L361.245 150.816C361.221 150.252 361.212 149.688 361.222 149.127C361.263 146.876 361.591 144.649 362.197 142.505C363.398 138.208 365.709 134.272 368.697 130.876C371.689 127.471 375.339 124.585 379.325 122.16C379.95 121.777 380.738 121.824 381.066 122.247C381.395 122.67 381.161 123.3 380.559 123.668C376.703 126.017 373.197 128.796 370.343 132.047C367.492 135.289 365.314 139.02 364.185 143.07C363.616 145.091 363.31 147.184 363.272 149.301C363.263 149.831 363.27 150.363 363.294 150.894L363.386 152.512C363.449 153.598 363.508 154.686 363.544 155.778C363.615 157.957 363.578 160.151 363.259 162.31C362.946 164.469 362.34 166.587 361.398 168.567ZM384.071 161.014C382.328 163.275 380.289 165.337 378.031 167.186C373.512 170.887 368.15 173.716 362.453 175.822C362.23 175.906 361.982 175.898 361.767 175.819C361.607 175.522 361.407 175.237 361.175 174.968C361.204 174.71 361.379 174.483 361.664 174.377C367.216 172.322 372.413 169.576 376.766 166.01C378.942 164.228 380.901 162.246 382.572 160.077C384.241 157.91 385.619 155.56 386.652 153.072C386.815 152.683 387.317 152.496 387.783 152.659C388.252 152.821 388.502 153.289 388.331 153.699C387.251 156.297 385.812 158.755 384.071 161.014Z" fill="#26450C"/>
</svg>
