<svg width="1165" height="568" viewBox="0 0 1165 568" fill="none" xmlns="http://www.w3.org/2000/svg">
<circle cx="634.23" cy="15.7207" r="0.75" fill="#163767"/>
<path d="M645.481 35.4729L645.981 37.4729H654.481L657.981 35.4729C657.981 35.4729 659.471 30.4948 657.981 27.9729C656.769 25.9205 652.981 24.4729 652.981 24.4729H643.481C641.766 23.8866 638.455 14.55 635.481 13.4729C632.544 12.4089 627.481 13.4729 627.481 13.4729C627.481 13.4729 626.398 16.8482 627.481 18.4729C628.45 19.926 631.481 20.4729 631.481 20.4729V27.9729L633.481 30.9729L631.481 36.4729C631.481 36.4729 635.205 37.6809 636.981 36.4729C637.827 35.8974 638.674 34.4729 638.674 34.4729M645.481 35.4729L650.481 32.9729M645.481 35.4729C642.823 35.0823 641.332 34.8634 638.674 34.4729M642.481 29.9729L638.674 34.4729" stroke="#163767"/>
<path d="M275.501 300.5C283.476 292.697 287.877 287.211 291.001 276.5C293.322 268.538 294.276 262.456 292.968 255.5C292.551 253.285 291.905 250.981 291.001 248.5L340.001 202L458 234V255.5L307.501 430.5L263.501 446.5C263.501 446.5 222.611 430.622 200.001 414.5C193.297 409.721 183.405 401.5 183.405 401.5L173.501 393.742L170.001 391C170.001 391 166.617 388.633 163.001 385.087C159.231 381.391 155.209 376.414 154.501 371.5C153.302 363.187 155.954 357.714 161.001 351C166.634 343.505 173.08 342.625 181.501 338.5C195.811 331.491 205.394 331.571 220.501 326.5C224.288 325.229 228.693 323.681 233.001 322.139C243.012 318.556 252.501 315 252.501 315C252.501 315 267.911 307.925 275.501 300.5Z" fill="#E5F1FF"/>
<path d="M263.501 446.5C263.501 446.5 222.611 430.622 200.001 414.5C193.297 409.721 183.405 401.5 183.405 401.5M263.501 446.5V439M263.501 446.5L307.501 430.5M263.501 439L183.405 401.5M263.501 439L285.501 425.5L307.501 412M183.405 401.5L173.501 393.742L170.001 391C170.001 391 166.617 388.633 163.001 385.087C159.231 381.391 155.209 376.414 154.501 371.5C153.302 363.187 155.954 357.714 161.001 351C166.634 343.505 173.08 342.625 181.501 338.5C195.811 331.491 205.394 331.571 220.501 326.5C224.288 325.229 228.693 323.681 233.001 322.139C243.012 318.556 252.501 315 252.501 315C252.501 315 267.911 307.925 275.501 300.5C283.476 292.697 287.877 287.211 291.001 276.5C293.322 268.538 294.276 262.456 292.968 255.5C292.551 253.285 291.905 250.981 291.001 248.5L340.001 202L458 234M307.501 430.5L458 255.5V234M307.501 430.5V421.25V412M307.501 412L458 234" stroke="#163767" stroke-width="2"/>
<path d="M275.5 300.5C283.475 292.697 287.876 287.211 291 276.5C293.322 268.538 294.276 262.456 292.967 255.5C296.668 258.377 299.619 260.771 301.5 263.205C307.623 262.66 310.716 263.271 315 267.5C313.134 272.898 312.707 276.456 315 285.5C303.6 298.596 300.6 304.768 297.5 315C288.948 318.642 282.782 319.072 271.5 319.5V312.5L265 323L269 326.5H279.5L282 331L292.5 338.5V360.5C282.261 375.116 274.068 383.1 250 396.5C243.933 393.203 240.476 391.438 237.5 385.087C225.353 392.598 218.231 394.123 205.5 396.5L173.5 393.742L177.5 377.5C186.212 374.512 190.826 378.318 200 377.5C209.058 376.692 214.314 375.461 222.5 371.5C227.131 369.259 229.247 347.825 243.5 343C243.5 343 245.34 335.31 243.5 331C241.393 326.066 233 322.139 233 322.139C243.012 318.556 252.5 315 252.5 315C252.5 315 267.91 307.925 275.5 300.5Z" fill="#D9D9D9"/>
<path d="M374.5 447L282 489.5M282 489.5V475.5M282 489.5L263.5 484M282 475.5L367 434.5M282 475.5L263.5 470M367 425L358.5 423.5L263.5 470M263.5 470V484M263.5 470L187 439C187 439 150.026 421.857 136 401.5C127.009 388.451 124.346 378.589 121.5 363M263.5 484L143.5 444.5V422.5C143.5 422.5 143.459 422.105 143.351 421.5M128.5 439V419.5C128.5 419.5 130.56 415.474 133 414.5C135.952 413.323 138.648 413.862 141 416C142.427 417.298 143.087 420.024 143.351 421.5M128.5 439L143.351 421.5M128.5 439L120.5 436C120.5 436 121.5 391.118 121.5 363M121.5 363C124.441 353.326 125.4 346.354 143.5 331C156.886 319.645 183.5 310.5 183.5 310.5C183.5 310.5 212.444 305.496 228.5 296.5C239.676 290.238 250.108 288.534 254.5 276.5C257.312 268.796 257.9 262.963 254.5 255.5C250.63 247.006 235.5 241 235.5 241L211 231.5L235.5 208C235.5 208 258.943 216.19 271 226C280.119 233.42 286.974 237.455 291 248.5M291 248.5L340 202L458 234M291 248.5C291.904 250.981 292.551 253.285 292.967 255.5M263.5 446.5C263.5 446.5 222.61 430.622 200 414.5C193.297 409.721 183.404 401.5 183.404 401.5M263.5 446.5V439M263.5 446.5L307.5 430.5M263.5 439L183.404 401.5M263.5 439L285.5 425.5L307.5 412M183.404 401.5L173.5 393.742M307.5 430.5L458 255.5V234M307.5 430.5L412.5 366.654M307.5 430.5V421.25V412M307.5 412L458 234M388 442C392.579 439.234 393.477 437.561 393.5 434.5M444 347.5L498.598 274.106M444 347.5L430 343L412.5 360.5M444 347.5L419 362.701M498.598 274.106L505 265.5H497L451 293.5L498.598 274.106ZM412.5 360.5L419 362.701M412.5 360.5V366.654M419 362.701L412.5 366.654M163 385.087C159.231 381.391 155.209 376.414 154.5 371.5C153.301 363.187 155.954 357.714 161 351C166.634 343.505 173.079 342.625 181.5 338.5C195.811 331.491 205.393 331.571 220.5 326.5C224.287 325.229 228.692 323.681 233 322.139M163 385.087C166.616 388.633 170 391 170 391L173.5 393.742M163 385.087C163 385.087 171.383 379.597 177.5 377.5M177.5 377.5C186.212 374.512 190.826 378.318 200 377.5C209.058 376.692 214.314 375.461 222.5 371.5C227.131 369.259 229.247 347.825 243.5 343C243.5 343 245.34 335.31 243.5 331C241.393 326.066 233 322.139 233 322.139M177.5 377.5L173.5 393.742M233 322.139C243.012 318.556 252.5 315 252.5 315C252.5 315 267.91 307.925 275.5 300.5C283.475 292.697 287.876 287.211 291 276.5C293.322 268.538 294.276 262.456 292.967 255.5M292.967 255.5C296.668 258.377 299.619 260.771 301.5 263.205M301.5 276.5C304.752 270.732 304.373 266.921 301.5 263.205M173.5 393.742L205.5 396.5C218.231 394.123 225.353 392.598 237.5 385.087C240.476 391.438 243.933 393.203 250 396.5C274.068 383.1 282.261 375.116 292.5 360.5V338.5L282 331L279.5 326.5H269L265 323L271.5 312.5V319.5C282.782 319.072 288.948 318.642 297.5 315C300.6 304.768 303.6 298.596 315 285.5C312.707 276.456 313.134 272.898 315 267.5C310.716 263.271 307.623 262.66 301.5 263.205M380 403H392.5V420.5C392.5 420.5 398.412 425.859 399.5 430.5C400.168 433.352 400.465 435.235 399.5 438C398.227 441.65 396.053 443.477 392.5 445C388.731 446.615 381 445 381 445C381 445 374.105 442.32 372.5 438C371.48 435.254 371.808 433.346 372.5 430.5C373.654 425.757 380 420.5 380 420.5V403Z" stroke="#163767" stroke-width="2"/>
<path d="M343.494 235.501C332.994 233.501 335.882 231.36 330.994 232.501C324.661 233.98 319.994 245.001 319.994 245.001C319.994 245.001 318.498 253.813 321.996 256.931C326 260.5 321.668 267.169 333.996 266.931C346.324 266.694 362.494 262.501 362.494 262.501C362.494 262.501 370.692 260.69 372.994 257.001C372.994 257.001 376.385 248.792 372.994 238.501C372.383 236.647 370.666 236.509 368.994 235.501C360.463 230.363 353.993 237.501 343.494 235.501Z" fill="#D9D9D9" stroke="#163767" stroke-width="2"/>
<path d="M30 183V306.5L113 382.5" stroke="#163767"/>
<path d="M334.512 241.999C334.512 241.999 330.045 244.494 331.012 246.499C331.582 247.682 336.06 249.399 338.512 250.499C340.406 251.349 342.012 246.499 342.012 246.499M331.012 256.499C331.012 256.499 338.372 258.651 341.5 255.999C341.921 255.642 342.017 255.767 342.5 255.499C343.353 255.025 345 255.499 345 255.499M352 241.999C354.208 242.355 355.345 242.773 357 244.499M355.5 255C355.5 255 364.896 251.658 366 246.499C366.368 244.781 366 241.999 366 241.999" stroke="#163767"/>
<path d="M276.5 313C283.411 310.832 285.487 308.083 286.5 301M292 309C292.881 304.702 293.34 302.882 295 301M297.5 295.5C297.942 289.126 298.567 287.023 300 284.5M306 280.5C306 281.7 309.666 282.431 309.5 284.5C309.387 285.904 307.5 287.5 307.5 287.5" stroke="#163767"/>
<path d="M173.5 386.5C175 386.5 179 386.5 179 386.5C179 386.5 183.333 383.834 185 382.5C186.667 381.167 192 387.5 192 387.5M207 389.5C207 389.5 214.851 392.822 216 389.5C217.052 386.458 218.701 381.781 219.5 382.5M237.5 373C236.662 364.451 240 363 243.5 364M233 360.5C235.228 356.61 236.73 354.559 242.5 352.5M247.5 368.5C247.5 368.5 243.295 355.173 248.5 353.5M256.5 356.5C256.5 356.5 253.859 342.67 259 341.5C261.83 340.856 262.5 346 262.5 346M251.5 323C251.5 323 258.637 322.478 261 325.5C263.405 328.577 261 335.5 261 335.5M270.5 335.5C270.5 335.5 274.73 335.6 276 337.5C277.194 339.286 276 343 276 343M258.5 368C264.381 366.932 267.018 365.344 269 358.5M262.5 378.5C262.5 378.5 263.623 376.155 265 375.5C266.411 374.83 267.501 375.939 269 375.5C271.786 374.686 274 370 274 370M284.5 338.5C284.5 338.5 284.105 341.889 284.5 344M278.5 355C277.867 357.466 282.24 357.966 282 360.5C281.79 362.717 278.5 365 278.5 365" stroke="#163767"/>
<path d="M820.307 247.801C818.822 247.801 817.619 248.966 817.619 250.403C817.619 251.839 818.822 253.004 820.307 253.004C821.79 253.004 822.993 251.839 822.993 250.403C822.993 248.966 821.79 247.801 820.307 247.801Z" fill="#163767"/>
<path d="M836.695 247.801C835.212 247.801 834.008 248.966 834.008 250.403C834.008 251.839 835.212 253.004 836.695 253.004C838.18 253.004 839.383 251.839 839.383 250.403C839.383 248.966 838.18 247.801 836.695 247.801Z" fill="#163767"/>
<path d="M846.096 237.429H810.905C808.2 237.429 806 239.559 806 242.177V278.658C806 281.277 808.2 283.407 810.905 283.407H846.096C848.801 283.407 851 281.277 851 278.658V242.177C851 239.559 848.801 237.429 846.096 237.429ZM819.729 280.41C819.738 280.35 819.765 280.298 819.765 280.236L820.308 268.327L820.849 280.236C820.849 280.298 820.877 280.35 820.885 280.41H819.729ZM836.117 280.41C836.125 280.35 836.153 280.298 836.153 280.236L836.694 268.327L837.236 280.236C837.236 280.298 837.263 280.35 837.272 280.41H836.117ZM847.905 278.658C847.905 279.624 847.093 280.41 846.096 280.41H839.926C839.934 280.35 839.962 280.298 839.962 280.236L840.5 260.865L840.994 266.068C841.021 266.627 841.512 267.059 842.088 267.031C842.665 267.005 843.111 266.531 843.083 265.971V257.406C843.083 253.821 838.603 253.645 836.694 253.645C834.787 253.645 830.306 253.821 830.306 257.406V265.971C830.279 266.531 830.725 267.005 831.301 267.031C831.878 267.059 832.367 266.627 832.396 266.068L832.889 260.865L833.426 280.236C833.426 280.298 833.454 280.35 833.463 280.41H823.539C823.548 280.35 823.576 280.298 823.576 280.236L824.114 260.865L824.606 266.068C824.633 266.627 825.124 267.059 825.7 267.031C826.277 267.005 826.723 266.531 826.695 265.971V257.406C826.695 253.821 822.215 253.645 820.308 253.645C818.4 253.645 813.919 253.821 813.919 257.406V265.971C813.891 266.531 814.337 267.005 814.914 267.031C815.49 267.059 815.981 266.627 816.008 266.068L816.501 260.865L817.039 280.236C817.039 280.298 817.067 280.35 817.075 280.41H810.904C809.907 280.41 809.095 279.624 809.095 278.658V242.177C809.095 241.211 809.907 240.426 810.904 240.426H846.095C847.093 240.426 847.904 241.211 847.904 242.177L847.905 278.658Z" fill="#163767"/>
<path d="M832.33 229.623L836.008 226.062V234.067C836.008 234.797 836.619 235.389 837.373 235.389C838.127 235.389 838.738 234.797 838.738 234.067V226.062L842.417 229.623C842.683 229.881 843.032 230.01 843.382 230.01C843.731 230.01 844.082 229.881 844.348 229.623C844.882 229.107 844.882 228.269 844.348 227.752L838.339 221.935L837.373 221L836.408 221.935L830.399 227.752C829.866 228.269 829.866 229.107 830.399 229.623C830.932 230.139 831.797 230.139 832.33 229.623Z" fill="#163767"/>
<path d="M819.294 235.002L820.26 235.937L821.226 235.002L827.235 229.183C827.768 228.667 827.768 227.83 827.235 227.314C826.702 226.798 825.837 226.798 825.304 227.314L821.625 230.874V222.87C821.625 222.139 821.014 221.548 820.26 221.548C819.506 221.548 818.895 222.139 818.895 222.87V230.874L815.218 227.314C814.685 226.798 813.82 226.798 813.285 227.314C812.752 227.83 812.752 228.667 813.285 229.184L819.294 235.002Z" fill="#163767"/>
<path d="M575.305 288.802C573.82 288.802 572.617 289.967 572.617 291.404C572.617 292.84 573.82 294.005 575.305 294.005C576.789 294.005 577.992 292.84 577.992 291.404C577.992 289.967 576.789 288.802 575.305 288.802Z" fill="#163767"/>
<path d="M591.695 288.802C590.212 288.802 589.008 289.967 589.008 291.404C589.008 292.84 590.212 294.005 591.695 294.005C593.179 294.005 594.382 292.84 594.382 291.404C594.382 289.967 593.179 288.802 591.695 288.802Z" fill="#163767"/>
<path d="M601.096 278.429H565.905C563.2 278.429 561 280.559 561 283.177V319.658C561 322.277 563.2 324.407 565.905 324.407H601.096C603.801 324.407 606 322.277 606 319.658V283.177C606 280.559 603.801 278.429 601.096 278.429ZM574.729 321.41C574.738 321.35 574.765 321.298 574.765 321.236L575.308 309.327L575.849 321.236C575.849 321.298 575.877 321.35 575.885 321.41H574.729ZM591.117 321.41C591.125 321.35 591.153 321.298 591.153 321.236L591.694 309.327L592.236 321.236C592.236 321.298 592.263 321.35 592.272 321.41H591.117ZM602.905 319.658C602.905 320.624 602.093 321.41 601.096 321.41H594.926C594.934 321.35 594.962 321.298 594.962 321.236L595.5 301.865L595.994 307.068C596.021 307.627 596.512 308.059 597.088 308.031C597.665 308.005 598.111 307.531 598.083 306.971V298.406C598.083 294.821 593.603 294.645 591.694 294.645C589.787 294.645 585.306 294.821 585.306 298.406V306.971C585.279 307.531 585.725 308.005 586.301 308.031C586.878 308.059 587.367 307.627 587.396 307.068L587.889 301.865L588.426 321.236C588.426 321.298 588.454 321.35 588.463 321.41H578.539C578.548 321.35 578.576 321.298 578.576 321.236L579.114 301.865L579.606 307.068C579.633 307.627 580.124 308.059 580.7 308.031C581.277 308.005 581.723 307.531 581.695 306.971V298.406C581.695 294.821 577.215 294.645 575.308 294.645C573.4 294.645 568.919 294.821 568.919 298.406V306.971C568.891 307.531 569.337 308.005 569.914 308.031C570.49 308.059 570.981 307.627 571.008 307.068L571.501 301.865L572.039 321.236C572.039 321.298 572.067 321.35 572.075 321.41H565.904C564.907 321.41 564.095 320.624 564.095 319.658V283.177C564.095 282.211 564.907 281.426 565.904 281.426H601.095C602.093 281.426 602.904 282.211 602.904 283.177L602.905 319.658Z" fill="#163767"/>
<path d="M587.332 270.623L591.009 267.062V275.067C591.009 275.797 591.62 276.389 592.374 276.389C593.128 276.389 593.74 275.797 593.74 275.067V267.062L597.418 270.623C597.684 270.881 598.033 271.01 598.383 271.01C598.733 271.01 599.083 270.881 599.349 270.623C599.883 270.107 599.883 269.269 599.349 268.752L593.34 262.935L592.374 262L591.409 262.935L585.4 268.752C584.867 269.269 584.867 270.107 585.4 270.623C585.934 271.139 586.799 271.139 587.332 270.623Z" fill="#163767"/>
<path d="M574.295 276.002L575.261 276.937L576.227 276.002L582.236 270.184C582.769 269.668 582.769 268.83 582.236 268.314C581.703 267.798 580.838 267.798 580.305 268.314L576.626 271.874V263.87C576.626 263.14 576.015 262.548 575.261 262.548C574.507 262.548 573.896 263.14 573.896 263.87V271.875L570.219 268.314C569.686 267.798 568.821 267.798 568.286 268.314C567.753 268.83 567.753 269.668 568.286 270.184L574.295 276.002Z" fill="#163767"/>
<path d="M607.499 169.5V148.5L611.499 139L622.499 119.5L673.499 161V214V228.31V242.621L663.499 252V263.75L642.499 258.375L621.499 253C613.86 244.84 609.918 239.844 607.499 225.5V173.067C607.464 171.935 607.464 170.75 607.499 169.5Z" fill="#E6F1FF"/>
<path d="M918 489L886.5 481.5V461L918 468.5M918 489V468.5M918 489L961 447.5M918 468.5L961 426M961 426V447.5M961 426L1014.5 439.5M961 447.5L1013 461M1014.5 439.5L1013 461M1014.5 439.5L1147.33 308M1013 461L1164 313.5V291.5M1164 291.5L1094.5 273.5M1164 291.5L1147.33 308M1094.5 273.5L1087.5 272M1094.5 273.5L1083.5 288.367M1094.5 273.5L1095 280M1147.33 308L1122.5 302M1122.5 302V295M1122.5 302L1112.5 311.5M821.5 443.5V464L853 473.5V451.5L837.25 447.5M821.5 443.5L904 361.5M821.5 443.5L837.25 447.5M904 361.5V384.5M904 361.5L1018 391.5M904 384.5L837.25 447.5M904 384.5L1018 414M1018 391.5V414M1018 391.5L1037 374M1018 414L1056 380V356.5M1056 356.5L1037 374M1056 356.5L773.5 280.098M756.5 275.5V298L1037 374M756.5 275.5L841 192V198M756.5 275.5L773.5 280.098M830 224L841 214V198M802 252L773.5 280.098M841 198V176L994.5 218.5V234.5M841 198L990 238M994.5 234.5V257.5L968.5 285.083M994.5 234.5L950 280.098M950 280.098V302L1092.5 339.5M950 280.098L968.5 285.083M1092.5 339.5V318.5M1092.5 339.5L1112.5 321.5V311.5M1092.5 318.5L968.5 285.083M1092.5 318.5L1096 315M1112.5 298.5L1096 315M1112.5 298.5L1109 297.277M1112.5 298.5V303.5M1096 315L1071 308V284M1071 284L1062 280M1071 284L1087.5 266.5M1071 284L1075.5 285.572M1079 260L1070 255.5L1054 272L1062 276.5M1079 260L1062 276.5M1079 260V263.5M1062 276.5V280M1062 280L1079 263.5M1079 263.5L1087.5 266.5M1087.5 266.5V272M1087.5 272L1075.5 285.572M1075.5 285.572L1083.5 288.367M1083.5 288.367L1087.5 289.765M1095 280L1087.5 289.765M1095 280L1103.5 281.5M1087.5 289.765L1095 292.386M1103.5 281.5L1095 292.386M1103.5 281.5L1104.5 286.5M1095 292.386L1098.5 293.608M1104.5 286.5L1098.5 293.608M1104.5 286.5L1112.5 288.367M1098.5 293.608L1105.5 296.054M1112.5 288.367L1105.5 296.054M1112.5 288.367V292.386M1105.5 296.054L1109 297.277M1112.5 292.386L1109 297.277M1112.5 292.386L1122.5 295M1122.5 295L1112.5 303.5M1112.5 303.5V311.5M755 487.5L737.5 484V464L755 467M755 487.5V467M755 487.5L871 377V353.5M755 467L853 371.112M871 353.5L725 314.5M871 353.5L853 371.112M725 314.5V336.5M725 314.5L649 389M725 336.5L853 371.112M725 336.5L649 412.5M649 412.5V389M649 412.5L551 385.5V365.5L579.5 372.334M649 389L595.5 376.171M609 429V450L703.5 474.5V454L626 433.497M609 429L626 412.5M609 429L626 433.497M609 429L561.5 418.5L405.5 566.5M626 412.5V433.497M626 412.5L561.5 396.124M477 436.5L529.5 388L561.5 396.124M477 436.5L510 444.5M477 436.5V442.5M510 444.5L561.5 396.124M510 444.5L505 449.261M405.5 566.5V544M405.5 566.5L20.5 466V444.5M405.5 544L36.5 448.635M405.5 544L471.666 481M20.5 444.5L36.5 448.635M20.5 444.5L78 387.327M171.5 314.5L196.5 291V269.5L95 370.423M122 363.5L36.5 448.635M477 442.5L505 449.261M477 442.5L470 449.261M505 449.261L497.922 456M470 449.261L497.922 456M470 449.261V453M497.922 456L494.246 459.5M470 453L494.246 459.5M470 453L463 459.5M494.246 459.5L486.895 466.5M463 459.5L486.895 466.5M463 459.5V465.5M486.895 466.5L482.5 470.684M463 465.5L482.5 470.684M463 465.5L458 472M482.5 470.684L475.867 477M458 472L475.867 477M458 472V477L471.666 481M475.867 477L471.666 481M78 387.327L12.5 370V348M78 387.327L95 370.423M12.5 348L141 221M12.5 348L30.5 352.892M95 370.423L30.5 352.892M141 221V244.5L148 247M141 221L221.5 241.5M30.5 352.892L119 264M164 250L212 262.5M225 238.5L212 250V272L239.5 244.5M250.5 215L403.5 64.5M403.5 64.5V85.5M403.5 64.5L489.75 86.75M403.5 85.5L265 221.5M403.5 85.5L474 104M576 109L558.5 126.196M576 109V120.546M576 109L548.5 101.906M552.5 154L518.5 187V165.5L552.5 132.091M552.5 154V132.091M552.5 154L607.5 169.5M552.5 132.091L558.5 126.196M552.5 132.091L607.5 148.5M569.5 139L576 132.091V120.546M489.75 86.75L435 143.5V165.5L489.75 109M489.75 86.75V109M489.75 86.75L548.5 101.906M489.75 109L558.5 126.196M607.5 148.5V169.5M607.5 148.5L611.5 139M607.5 169.5C607.125 182.944 610.75 189.018 619.5 199L673.5 214M607.5 169.5V225.5C609.919 239.844 613.861 244.84 621.5 253L642.5 258.375L663.5 263.75M576 120.546L611.5 139M611.5 139L622.5 119.5L673.5 161V214M595.5 376.171L729.5 244.5M595.5 376.171L579.5 372.334M769 206.5L800 175.5V154M800 154L781.5 172.122M800 154L745 141.5M751 202L781.5 172.122M725 230L666.5 287.227M579.5 372.334L649 304.346M649 304.346L622.5 298V275.5L666.5 287.227M649 304.346L666.5 287.227M714.5 227.5L663.5 275.5V263.75M736 184V206.5L723 217.5H714.5M736 184L710 176L723 161L678 148.5L670 157M736 184L673.5 242.621M781.5 172.122L745 162.5M745 162.5V129.5M745 162.5L739.5 167.5V150C733.534 146.736 731.155 148.663 728 157V178.5H723V150M745 129.5L723 150M745 129.5L734 126.196M723 150L681 141.5L548.5 73.5M548.5 73.5L572.5 50.5L689 112M548.5 73.5V101.906M704 131.5V127.5M704 119.5V127.5M704 119.5L692 98M704 119.5C704.922 118.692 705.775 118.029 706.576 117.5M718.5 119.5C716.837 118.13 715.393 117.084 714 116.466M718.5 119.5L730 98M718.5 119.5V127.5M718.5 131.5V127.5M730 98L718.5 88H717.5M730 98V117.5M692 98L703 88H704M692 98V117.5M696 131.5H692V117.5M696 131.5V105L704 97M696 131.5H700M704 97V88M704 97H705.5M725.5 131.5H730V117.5M725.5 131.5V105L718.5 97H717.5M725.5 131.5H722M722 131.5V112L715.5 107M722 131.5H700M715.5 107V97M715.5 107H714M705.5 107L700 112V131.5M705.5 107V97M705.5 107H706.5M692 117.5L704 127.5M704 88H717.5M705.5 97H715.5M706.5 107L706.576 117.5M706.5 107H714M706.576 117.5C709.449 115.602 711.653 115.426 714 116.466M717.5 88V97M717.5 97H715.5M714 107V116.466M730 117.5L718.5 127.5M673.5 242.621L663.5 252V263.75M673.5 242.621V228.31V214M361.5 466.5C361.5 466.5 338.171 473.854 338.5 485.5C338.842 497.627 353.032 498.542 364.5 502.5C379.82 507.788 406 502.5 406 502.5C406 502.5 436.319 498.962 436 485.5C435.735 474.298 414.5 466.5 414.5 466.5M607.499 169.5V148.5L611.499 139L622.499 119.5L673.499 161V214M607.499 169.5C607.464 170.75 607.464 171.935 607.499 173.067M607.499 169.5V173.067M607.499 173.067C607.842 184.107 611.563 189.946 619.499 199L673.499 214M607.499 173.067V225.5C609.918 239.844 613.86 244.84 621.499 253L642.499 258.375L663.499 263.75V252L673.499 242.621V228.31V214M854.5 498L840 494.5L848.5 484.5L841.5 481.5L867.5 473.5L871 490.5L863.5 489L854.5 498ZM1026 249L1032.5 267.5L1038 260.5L1051 266.5L1060.5 256.5L1047.5 251L1053 246L1026 249ZM492.5 434.5L500.5 426L495 423.5L517.5 416.5L519.5 431.5L512 429.5L505 438.5L492.5 434.5ZM523 39.5L527.5 58.5L533 53L546 60L556 50.5L543.5 45L548.5 39.5H523ZM212 221L199 218L193 223L188 206.5L212 203L208 208.5L221.5 211L212 221Z" stroke="#163767" stroke-width="2"/>
<path d="M436 489.5V504C436 504 423.067 516.35 412.5 518.5C393.455 522.374 379.506 522.64 360.5 518.5C350.913 516.412 339 505.5 339 505.5V489.5L291.5 515M281 511.5L341 478.5M412.5 457.5L470.5 448.5M414.5 463.5L470.5 453.5M374 489.5V473C374 473 367.372 469.023 367.5 465C367.623 461.126 370.163 458.048 374 457.5C377.2 457.043 381.5 461 381.5 461C381.5 461 383.245 458.31 385 457.5C387.127 456.518 388.826 456.626 391 457.5C392.926 458.274 395 461 395 461C395 461 396.771 458.364 398.5 457.5C400.945 456.277 403.078 456.232 405.5 457.5C408.441 459.04 409.625 461.683 409.5 465C409.344 469.148 402.5 473 402.5 473V489.5M374 489.5V495.5H402.5V489.5M374 489.5H402.5" stroke="#163767" stroke-width="2"/>
<path d="M393.009 475.999C393.009 475.999 394.087 473.549 395.509 472.999C398.241 471.943 398.241 481.556 395.509 480.499C393.634 479.774 393.009 475.999 393.009 475.999ZM393.009 475.999C393.009 475.999 391.742 478.102 390.509 478.999C389.16 479.981 386.509 480.499 386.509 480.499C386.509 480.499 384.616 480.883 383.509 480.499C381.809 479.909 380.371 478.794 380.509 476.999C380.647 475.204 381.971 474.615 383.509 473.999C384.96 473.419 385.963 473.779 387.509 473.999C389.772 474.321 393.009 475.999 393.009 475.999Z" stroke="#163767" stroke-width="2"/>
<path d="M713 476.5L703 487L695.5 483.5L698.5 501.5L724.5 493.5L717.5 491L727 481L713 476.5Z" stroke="#163767" stroke-width="2"/>
<path d="M131.941 253.418C134.541 253.418 136.649 251.308 136.649 248.711C136.649 246.107 134.541 244 131.941 244C129.338 244 127.232 246.107 127.232 248.711C127.232 251.308 129.339 253.418 131.941 253.418ZM131.941 245.526C133.696 245.526 135.122 246.955 135.122 248.711C135.122 250.465 133.696 251.89 131.941 251.89C130.187 251.89 128.758 250.465 128.758 248.711C128.758 246.955 130.187 245.526 131.941 245.526Z" fill="#163767"/>
<path d="M136.02 255.648H131.892H127.764C125.483 255.648 123 258.131 123 260.413V276.239C123 277.38 123.925 278.304 125.066 278.304C125.627 278.304 125.066 278.304 126.507 278.304L127.293 291.801C127.293 293.016 128.277 294 129.491 294C130.004 294 130.949 294 131.892 294C132.836 294 133.782 294 134.294 294C135.508 294 136.492 293.016 136.492 291.801L137.277 278.304C138.719 278.304 138.157 278.304 138.719 278.304C139.859 278.304 140.784 277.38 140.784 276.239V260.413C140.784 258.131 138.302 255.648 136.02 255.648ZM139.258 276.239C139.258 276.536 139.017 276.778 138.719 276.778H137.277H135.838L135.753 278.216L134.969 291.712L134.966 291.756V291.801C134.966 292.171 134.665 292.474 134.294 292.474H131.892H129.491C129.121 292.474 128.819 292.172 128.819 291.801V291.756L128.817 291.712L128.03 278.216L127.947 276.778H126.507H125.066C124.768 276.778 124.526 276.536 124.526 276.239V260.413C124.526 258.96 126.312 257.175 127.764 257.175H131.892H136.02C137.473 257.175 139.258 258.96 139.258 260.413V276.239Z" fill="#163767"/>
<path d="M154.019 253.418C156.62 253.418 158.728 251.308 158.728 248.711C158.728 246.107 156.62 244 154.019 244C151.417 244 149.31 246.107 149.31 248.711C149.31 251.308 151.417 253.418 154.019 253.418ZM154.019 245.526C155.774 245.526 157.201 246.955 157.201 248.711C157.201 250.465 155.774 251.89 154.019 251.89C152.264 251.89 150.837 250.465 150.837 248.711C150.837 246.955 152.264 245.526 154.019 245.526Z" fill="#163767"/>
<path d="M165.236 280.81L160.357 269.337L161.98 261.147C162.148 258.038 159.81 255.707 157.528 255.707H150.509C148.228 255.707 145.889 258.038 146.057 261.147L147.681 269.337L142.801 280.81C142.582 281.324 142.637 281.915 142.945 282.381C143.254 282.848 143.777 283.129 144.336 283.129H149.479L150.809 292.159C150.809 293.043 151.526 293.761 152.412 293.761C152.734 293.761 155.304 293.761 155.626 293.761C156.511 293.761 157.228 293.043 157.228 292.159L158.558 283.129H163.703C164.262 283.129 164.784 282.848 165.092 282.381C165.4 281.915 165.455 281.324 165.236 280.81ZM163.819 281.539C163.794 281.578 163.749 281.602 163.703 281.602H158.558H157.241L157.049 282.906L155.718 291.937L155.701 292.046V292.159C155.701 292.201 155.667 292.235 155.626 292.235H152.412C152.37 292.235 152.337 292.201 152.337 292.159V292.046L152.32 291.937L150.99 282.906L150.797 281.602H149.479H144.336C144.288 281.602 144.245 281.578 144.218 281.539C144.193 281.5 144.188 281.45 144.207 281.407L149.086 269.934L149.27 269.501L149.179 269.039L147.577 260.963C147.531 259.525 148.202 258.593 148.611 258.16C149.16 257.581 149.869 257.234 150.509 257.234H157.528C158.168 257.234 158.877 257.581 159.427 258.16C159.836 258.593 160.506 259.525 160.46 260.963L158.859 269.039L158.768 269.501L158.951 269.934L163.831 281.407C163.849 281.45 163.845 281.5 163.819 281.539Z" fill="#163767"/>
<path d="M866.941 242.418C869.541 242.418 871.649 240.308 871.649 237.711C871.649 235.107 869.541 233 866.941 233C864.338 233 862.232 235.107 862.232 237.711C862.232 240.308 864.339 242.418 866.941 242.418ZM866.941 234.526C868.696 234.526 870.122 235.955 870.122 237.711C870.122 239.465 868.696 240.89 866.941 240.89C865.187 240.89 863.758 239.465 863.758 237.711C863.758 235.955 865.187 234.526 866.941 234.526Z" fill="#163767"/>
<path d="M871.02 244.648H866.892H862.764C860.483 244.648 858 247.131 858 249.413V265.239C858 266.38 858.925 267.304 860.066 267.304C860.627 267.304 860.066 267.304 861.507 267.304L862.293 280.801C862.293 282.016 863.277 283 864.491 283C865.004 283 865.949 283 866.892 283C867.836 283 868.782 283 869.294 283C870.508 283 871.492 282.016 871.492 280.801L872.277 267.304C873.719 267.304 873.157 267.304 873.719 267.304C874.859 267.304 875.784 266.38 875.784 265.239V249.413C875.784 247.131 873.302 244.648 871.02 244.648ZM874.258 265.239C874.258 265.536 874.017 265.778 873.719 265.778H872.277H870.838L870.753 267.216L869.969 280.712L869.966 280.756V280.801C869.966 281.171 869.665 281.474 869.294 281.474H866.892H864.491C864.121 281.474 863.819 281.172 863.819 280.801V280.756L863.817 280.712L863.03 267.216L862.947 265.778H861.507H860.066C859.768 265.778 859.526 265.536 859.526 265.239V249.413C859.526 247.96 861.312 246.175 862.764 246.175H866.892H871.02C872.473 246.175 874.258 247.96 874.258 249.413V265.239Z" fill="#163767"/>
<path d="M889.019 242.418C891.62 242.418 893.728 240.308 893.728 237.711C893.728 235.107 891.62 233 889.019 233C886.417 233 884.31 235.107 884.31 237.711C884.31 240.308 886.417 242.418 889.019 242.418ZM889.019 234.526C890.774 234.526 892.201 235.955 892.201 237.711C892.201 239.465 890.774 240.89 889.019 240.89C887.264 240.89 885.837 239.465 885.837 237.711C885.837 235.955 887.264 234.526 889.019 234.526Z" fill="#163767"/>
<path d="M900.236 269.81L895.357 258.337L896.98 250.147C897.148 247.038 894.81 244.707 892.528 244.707H885.509C883.228 244.707 880.889 247.038 881.057 250.147L882.681 258.337L877.801 269.81C877.582 270.324 877.637 270.915 877.945 271.381C878.254 271.848 878.777 272.129 879.336 272.129H884.479L885.809 281.159C885.809 282.043 886.526 282.761 887.412 282.761C887.734 282.761 890.304 282.761 890.626 282.761C891.511 282.761 892.228 282.043 892.228 281.159L893.558 272.129H898.703C899.262 272.129 899.784 271.848 900.092 271.381C900.4 270.915 900.455 270.324 900.236 269.81ZM898.819 270.539C898.794 270.578 898.749 270.602 898.703 270.602H893.558H892.241L892.049 271.906L890.718 280.937L890.701 281.046V281.159C890.701 281.201 890.667 281.235 890.626 281.235H887.412C887.37 281.235 887.337 281.201 887.337 281.159V281.046L887.32 280.937L885.99 271.906L885.797 270.602H884.479H879.336C879.288 270.602 879.245 270.578 879.218 270.539C879.193 270.5 879.188 270.45 879.207 270.407L884.086 258.934L884.27 258.501L884.179 258.039L882.577 249.963C882.531 248.525 883.202 247.593 883.611 247.16C884.16 246.581 884.869 246.234 885.509 246.234H892.528C893.168 246.234 893.877 246.581 894.427 247.16C894.836 247.593 895.506 248.525 895.46 249.963L893.859 258.039L893.768 258.501L893.951 258.934L898.831 270.407C898.849 270.45 898.845 270.5 898.819 270.539Z" fill="#163767"/>
<path d="M131.941 253.418C134.541 253.418 136.649 251.308 136.649 248.711C136.649 246.107 134.541 244 131.941 244C129.338 244 127.232 246.107 127.232 248.711C127.232 251.308 129.339 253.418 131.941 253.418ZM131.941 245.526C133.696 245.526 135.122 246.955 135.122 248.711C135.122 250.465 133.696 251.89 131.941 251.89C130.187 251.89 128.758 250.465 128.758 248.711C128.758 246.955 130.187 245.526 131.941 245.526Z" fill="#163767"/>
<path d="M136.02 255.648H131.892H127.764C125.483 255.648 123 258.131 123 260.413V276.239C123 277.38 123.925 278.304 125.066 278.304C125.627 278.304 125.066 278.304 126.507 278.304L127.293 291.801C127.293 293.016 128.277 294 129.491 294C130.004 294 130.949 294 131.892 294C132.836 294 133.782 294 134.294 294C135.508 294 136.492 293.016 136.492 291.801L137.277 278.304C138.719 278.304 138.157 278.304 138.719 278.304C139.859 278.304 140.784 277.38 140.784 276.239V260.413C140.784 258.131 138.302 255.648 136.02 255.648ZM139.258 276.239C139.258 276.536 139.017 276.778 138.719 276.778H137.277H135.838L135.753 278.216L134.969 291.712L134.966 291.756V291.801C134.966 292.171 134.665 292.474 134.294 292.474H131.892H129.491C129.121 292.474 128.819 292.172 128.819 291.801V291.756L128.817 291.712L128.03 278.216L127.947 276.778H126.507H125.066C124.768 276.778 124.526 276.536 124.526 276.239V260.413C124.526 258.96 126.312 257.175 127.764 257.175H131.892H136.02C137.473 257.175 139.258 258.96 139.258 260.413V276.239Z" fill="#163767"/>
<path d="M154.019 253.418C156.62 253.418 158.728 251.308 158.728 248.711C158.728 246.107 156.62 244 154.019 244C151.417 244 149.31 246.107 149.31 248.711C149.31 251.308 151.417 253.418 154.019 253.418ZM154.019 245.526C155.774 245.526 157.201 246.955 157.201 248.711C157.201 250.465 155.774 251.89 154.019 251.89C152.264 251.89 150.837 250.465 150.837 248.711C150.837 246.955 152.264 245.526 154.019 245.526Z" fill="#163767"/>
<path d="M165.236 280.81L160.357 269.337L161.98 261.147C162.148 258.038 159.81 255.707 157.528 255.707H150.509C148.228 255.707 145.889 258.038 146.057 261.147L147.681 269.337L142.801 280.81C142.582 281.324 142.637 281.915 142.945 282.381C143.254 282.848 143.777 283.129 144.336 283.129H149.479L150.809 292.159C150.809 293.043 151.526 293.761 152.412 293.761C152.734 293.761 155.304 293.761 155.626 293.761C156.511 293.761 157.228 293.043 157.228 292.159L158.558 283.129H163.703C164.262 283.129 164.784 282.848 165.092 282.381C165.4 281.915 165.455 281.324 165.236 280.81ZM163.819 281.539C163.794 281.578 163.749 281.602 163.703 281.602H158.558H157.241L157.049 282.906L155.718 291.937L155.701 292.046V292.159C155.701 292.201 155.667 292.235 155.626 292.235H152.412C152.37 292.235 152.337 292.201 152.337 292.159V292.046L152.32 291.937L150.99 282.906L150.797 281.602H149.479H144.336C144.288 281.602 144.245 281.578 144.218 281.539C144.193 281.5 144.188 281.45 144.207 281.407L149.086 269.934L149.27 269.501L149.179 269.039L147.577 260.963C147.531 259.525 148.202 258.593 148.611 258.16C149.16 257.581 149.869 257.234 150.509 257.234H157.528C158.168 257.234 158.877 257.581 159.427 258.16C159.836 258.593 160.506 259.525 160.46 260.963L158.859 269.039L158.768 269.501L158.951 269.934L163.831 281.407C163.849 281.45 163.845 281.5 163.819 281.539Z" fill="#163767"/>
<g filter="url(#filter0_d_459_3263)">
<circle cx="29" cy="159" r="24" stroke="#163767" stroke-width="2" shape-rendering="crispEdges"/>
</g>
<g filter="url(#filter1_d_459_3263)">
<circle cx="237" cy="25" r="24" stroke="#163767" stroke-width="2" shape-rendering="crispEdges"/>
</g>
<g filter="url(#filter2_d_459_3263)">
<circle cx="643" cy="27" r="24" stroke="#163767" stroke-width="2" shape-rendering="crispEdges"/>
</g>
<g filter="url(#filter3_d_459_3263)">
<circle cx="753" cy="230" r="24" stroke="#163767" stroke-width="2" shape-rendering="crispEdges"/>
</g>
<circle cx="320.5" cy="187.5" r="3.5" fill="#163767"/>
<circle cx="643.5" cy="175.5" r="3.5" fill="#163767"/>
<path d="M643 50.5V172.5" stroke="#163767"/>
<path d="M237 49.5V110L319.5 185.5" stroke="#163767"/>
<circle cx="113.5" cy="383.5" r="3.5" fill="#163767"/>
<circle cx="762.75" cy="222.75" r="0.75" fill="#163767"/>
<circle cx="743.75" cy="236.75" r="0.75" fill="#163767"/>
<path d="M948.961 272.837C948.896 272.643 948.757 272.483 948.575 272.392C948.392 272.301 948.181 272.286 947.987 272.35L944.005 273.678L938.149 261.966C938.085 261.838 937.987 261.731 937.865 261.656C937.744 261.581 937.604 261.541 937.461 261.541H921.306V256.184C921.56 256.167 921.816 256.156 922.075 256.156H932.845C933.049 256.156 933.245 256.075 933.389 255.93C933.533 255.786 933.614 255.591 933.614 255.386C933.614 255.182 933.533 254.987 933.389 254.843C933.245 254.698 933.049 254.617 932.845 254.617H922.075C921.817 254.617 921.561 254.627 921.306 254.642V249.167C922.447 248.974 923.474 248.359 924.183 247.445C924.893 246.531 925.233 245.383 925.136 244.23C925.039 243.076 924.513 242.002 923.661 241.218C922.809 240.435 921.694 240 920.536 240C919.379 240 918.264 240.435 917.412 241.218C916.56 242.002 916.034 243.076 915.937 244.23C915.84 245.383 916.18 246.531 916.89 247.445C917.599 248.359 918.626 248.974 919.767 249.167V254.825C917.353 255.258 915.109 256.362 913.292 258.01C911.475 259.657 910.158 261.783 909.492 264.144C908.825 266.504 908.836 269.005 909.523 271.359C910.211 273.714 911.546 275.828 913.377 277.46C915.209 279.091 917.462 280.175 919.88 280.587C922.298 280.999 924.783 280.723 927.052 279.789C929.32 278.856 931.28 277.304 932.708 275.31C934.136 273.315 934.975 270.96 935.128 268.512C935.134 268.411 935.12 268.31 935.088 268.214C935.055 268.118 935.004 268.03 934.937 267.954C934.87 267.879 934.789 267.817 934.698 267.772C934.607 267.728 934.508 267.702 934.407 267.696C934.306 267.689 934.205 267.703 934.11 267.736C934.014 267.769 933.926 267.82 933.85 267.887C933.775 267.954 933.713 268.036 933.668 268.127C933.624 268.217 933.598 268.316 933.592 268.417C933.457 270.565 932.724 272.633 931.476 274.387C930.227 276.141 928.513 277.51 926.527 278.341C924.541 279.171 922.362 279.429 920.237 279.086C918.112 278.743 916.125 277.813 914.501 276.4C912.877 274.987 911.68 273.148 911.047 271.09C910.413 269.033 910.368 266.839 910.916 264.757C911.464 262.676 912.583 260.789 914.147 259.31C915.711 257.831 917.658 256.819 919.767 256.388V262.31C919.767 262.514 919.848 262.71 919.993 262.854C920.137 262.998 920.332 263.079 920.536 263.079H936.985L942.927 274.963C943.01 275.128 943.149 275.259 943.321 275.329C943.492 275.4 943.683 275.407 943.858 275.348L948.474 273.81C948.667 273.745 948.827 273.607 948.919 273.424C949.01 273.242 949.025 273.03 948.961 272.837ZM917.459 244.616C917.459 244.008 917.64 243.413 917.978 242.907C918.316 242.401 918.797 242.006 919.359 241.774C919.921 241.541 920.54 241.48 921.137 241.598C921.734 241.717 922.282 242.01 922.712 242.441C923.143 242.871 923.436 243.419 923.554 244.016C923.673 244.613 923.612 245.232 923.379 245.794C923.146 246.356 922.752 246.837 922.246 247.175C921.74 247.513 921.145 247.694 920.536 247.694C919.721 247.693 918.939 247.368 918.362 246.791C917.785 246.214 917.46 245.432 917.459 244.616Z" fill="#163767"/>
<path d="M140.961 312.837C140.896 312.643 140.757 312.483 140.575 312.392C140.392 312.301 140.181 312.286 139.987 312.35L136.005 313.678L130.149 301.966C130.085 301.838 129.987 301.731 129.865 301.656C129.744 301.581 129.604 301.541 129.461 301.541H113.306V296.184C113.56 296.167 113.816 296.156 114.075 296.156H124.845C125.049 296.156 125.245 296.075 125.389 295.93C125.533 295.786 125.614 295.591 125.614 295.386C125.614 295.182 125.533 294.987 125.389 294.843C125.245 294.698 125.049 294.617 124.845 294.617H114.075C113.817 294.617 113.561 294.627 113.306 294.642V289.167C114.447 288.974 115.474 288.359 116.183 287.445C116.893 286.531 117.233 285.383 117.136 284.23C117.039 283.076 116.513 282.002 115.661 281.218C114.809 280.435 113.694 280 112.536 280C111.379 280 110.264 280.435 109.412 281.218C108.56 282.002 108.034 283.076 107.937 284.23C107.84 285.383 108.18 286.531 108.89 287.445C109.599 288.359 110.626 288.974 111.767 289.167V294.825C109.353 295.258 107.109 296.362 105.292 298.01C103.475 299.657 102.158 301.783 101.492 304.144C100.825 306.504 100.836 309.005 101.523 311.359C102.211 313.714 103.546 315.828 105.377 317.46C107.209 319.091 109.462 320.175 111.88 320.587C114.298 320.999 116.783 320.723 119.052 319.789C121.32 318.856 123.28 317.304 124.708 315.31C126.136 313.315 126.975 310.96 127.128 308.512C127.134 308.411 127.12 308.31 127.088 308.214C127.055 308.118 127.004 308.03 126.937 307.954C126.87 307.879 126.789 307.817 126.698 307.772C126.607 307.728 126.508 307.702 126.407 307.696C126.306 307.689 126.205 307.703 126.11 307.736C126.014 307.769 125.926 307.82 125.85 307.887C125.775 307.954 125.713 308.036 125.668 308.127C125.624 308.217 125.598 308.316 125.592 308.417C125.457 310.565 124.724 312.633 123.476 314.387C122.227 316.141 120.513 317.51 118.527 318.341C116.541 319.171 114.362 319.429 112.237 319.086C110.112 318.743 108.125 317.813 106.501 316.4C104.877 314.987 103.68 313.148 103.047 311.09C102.413 309.033 102.368 306.839 102.916 304.757C103.464 302.676 104.583 300.789 106.147 299.31C107.711 297.831 109.658 296.819 111.767 296.388V302.31C111.767 302.514 111.848 302.71 111.993 302.854C112.137 302.998 112.332 303.079 112.536 303.079H128.985L134.927 314.963C135.01 315.128 135.149 315.259 135.321 315.329C135.492 315.4 135.683 315.407 135.858 315.348L140.474 313.81C140.667 313.745 140.827 313.607 140.919 313.424C141.01 313.242 141.025 313.03 140.961 312.837ZM109.459 284.616C109.459 284.008 109.64 283.413 109.978 282.907C110.316 282.401 110.797 282.006 111.359 281.774C111.921 281.541 112.54 281.48 113.137 281.598C113.734 281.717 114.282 282.01 114.712 282.441C115.143 282.871 115.436 283.419 115.554 284.016C115.673 284.613 115.612 285.232 115.379 285.794C115.146 286.356 114.752 286.837 114.246 287.175C113.74 287.513 113.145 287.694 112.536 287.694C111.721 287.693 110.939 287.368 110.362 286.791C109.785 286.214 109.46 285.432 109.459 284.616Z" fill="#163767"/>
<path d="M761.043 369H751.323V365.88C751.323 363.188 749.134 361 746.443 361H739.954C737.262 361 735.074 363.188 735.074 365.88V369H725.253C723.458 369 722 370.458 722 372.254V409.667C722 411.464 723.458 412.92 725.253 412.92H761.041C762.839 412.92 764.295 411.464 764.295 409.667V372.254C764.295 370.458 762.84 369 761.043 369ZM738.329 365.88C738.329 364.982 739.058 364.253 739.956 364.253H746.445C747.343 364.253 748.071 364.982 748.071 365.88V369H738.329V365.88ZM761.043 409.667H725.255V372.254H735.076V375.601C735.076 375.601 735.032 377.227 736.693 377.227C738.523 377.227 738.329 375.601 738.329 375.601V372.254H748.071V375.601C748.071 375.601 747.962 377.235 749.692 377.235C751.318 377.235 751.325 375.601 751.325 375.601V372.254H761.043V409.667Z" fill="#163767"/>
<path d="M737.643 388.486H735.003C735.757 387.581 736.229 386.449 736.229 385.186C736.229 382.319 733.909 380 731.043 380C727.875 380 725.084 381.678 723.5 384.167C721.916 381.678 719.125 380 715.957 380C713.091 380 710.771 382.319 710.771 385.186C710.771 386.449 711.243 387.581 711.997 388.486H709.357C708.056 388.486 707 389.542 707 390.843V395.557C707 396.689 707.811 397.594 708.886 397.82V410.643C708.886 411.944 709.942 413 711.243 413H735.757C737.058 413 738.114 411.944 738.114 410.643V397.82C739.189 397.594 740 396.689 740 395.557V390.843C740 389.542 738.944 388.486 737.643 388.486ZM737.171 395.086H724.914V391.314H737.171V395.086ZM731.043 382.829C732.344 382.829 733.4 383.885 733.4 385.186C733.4 386.487 732.344 387.543 731.043 387.543H725.084C725.725 384.846 728.158 382.829 731.043 382.829ZM715.957 382.829C718.842 382.829 721.275 384.846 721.916 387.543H715.957C714.656 387.543 713.6 386.487 713.6 385.186C713.6 383.885 714.656 382.829 715.957 382.829ZM709.829 391.314H722.086V395.086H709.829V391.314ZM711.714 397.914H722.086V410.171H711.714V397.914ZM735.286 410.171H724.914V397.914H735.286V410.171Z" fill="#163767"/>
<path d="M738.5 211C742.086 212.195 743.194 214.208 745 218M745 218C740.068 223.471 736.795 224.628 730 224M745 218C746.833 215.167 750.5 210.6 750.5 215C750.5 217.323 750.5 219.702 750.5 221.43C750.5 222.342 749.379 222.777 748.763 222.105L745 218ZM772 218C764.038 216.401 760.352 217.514 756.883 223.337C756.652 223.724 756.725 224.223 757.053 224.533C764.144 231.235 768.277 229.912 775.5 225.5M759 238C749.69 229.791 744.835 229.292 737.124 237.337C736.768 237.709 736.762 238.297 737.11 238.675C744.668 246.884 749.788 246.633 759 238ZM759 238C760.833 234.667 764.5 229 764.5 233C764.5 235.784 764.5 239.213 764.5 241.771C764.5 242.703 763.338 243.127 762.737 242.416L759 238Z" stroke="#163767"/>
<path d="M90.2852 300.272C89.4646 300.272 88.6929 300.591 88.1127 301.172C87.5322 301.752 87.2128 302.523 87.2125 303.344L87.2125 304.464C87.2125 306.323 86.7435 307.048 86.2367 307.555C86.2366 307.555 86.2366 307.555 86.2365 307.555C86.0515 307.74 85.8484 307.906 85.6333 308.083C85.4023 308.272 85.1639 308.467 84.9325 308.698C84.2049 309.426 83.8092 310.296 83.6913 311.454C83.011 311.56 82.3823 311.878 81.8839 312.376C81.2634 312.997 80.9216 313.819 80.9217 314.692C80.9218 315.564 81.2627 316.386 81.8818 317.006C81.4919 317.233 81.1279 317.511 80.7999 317.839C79.8101 318.829 79.265 320.14 79.2649 321.532L79.2653 342.388C79.2654 345.27 81.6105 347.615 84.4929 347.615L96.0793 347.616C97.4708 347.616 98.7822 347.071 99.772 346.081C100.762 345.091 101.307 343.779 101.307 342.388L101.307 321.532C101.306 320.141 100.761 318.829 99.7716 317.839C99.4435 317.511 99.0793 317.233 98.6894 317.006C99.3084 316.386 99.6494 315.565 99.6494 314.693C99.6495 313.82 99.3077 312.997 98.6871 312.377C98.1885 311.878 97.5592 311.56 96.8783 311.454C96.6745 309.506 95.7214 308.724 94.9378 308.083C94.0903 307.389 93.3583 306.79 93.3583 304.465L93.3584 303.345C93.3581 301.65 91.9796 300.272 90.2852 300.272ZM99.5403 320.699L94.9047 320.699C94.4445 320.699 94.0715 321.072 94.0713 321.532C94.0712 321.992 94.4444 322.366 94.9047 322.365L99.6398 322.366L99.6398 325.913L94.9047 325.913C94.4444 325.913 94.0714 326.286 94.0713 326.746C94.0712 327.206 94.4443 327.579 94.9046 327.579L99.6399 327.579L99.6398 331.127L94.9049 331.126C94.4446 331.127 94.0716 331.5 94.0715 331.96C94.0714 332.42 94.4446 332.793 94.9049 332.793L99.6399 332.793L99.6399 336.34L94.9047 336.34C94.4444 336.34 94.0714 336.713 94.0714 337.174C94.0715 337.634 94.4446 338.007 94.9048 338.007L99.64 338.007L99.64 341.554L94.2602 341.554C93.7999 341.554 93.4269 341.927 93.4268 342.387C93.4267 342.848 93.7999 343.221 94.2602 343.221L99.5408 343.221C99.3889 343.851 99.0658 344.43 98.5933 344.902C97.9183 345.577 97.0254 345.949 96.0792 345.949L84.4928 345.949C82.5294 345.949 80.932 344.351 80.932 342.388L80.9317 322.365L83.9985 322.365C84.2287 322.365 84.437 322.272 84.5877 322.121C84.7387 321.97 84.8318 321.762 84.8319 321.532C84.8317 321.071 84.4587 320.698 83.9984 320.698L81.031 320.699C81.1829 320.069 81.5061 319.49 81.9785 319.017C82.6534 318.343 83.5462 317.971 84.4924 317.971L96.0787 317.971C97.025 317.971 97.9181 318.343 98.5931 319.018C99.0652 319.49 99.3884 320.07 99.5403 320.699ZM97.9826 314.693C97.9826 315.121 97.8142 315.524 97.5084 315.83C97.2027 316.136 96.799 316.304 96.3713 316.304L84.1999 316.304C83.7722 316.304 83.3683 316.136 83.0626 315.83C82.7568 315.524 82.5884 315.12 82.5885 314.692C82.5885 314.265 82.7568 313.861 83.0626 313.555C83.3684 313.249 83.7725 313.081 84.2002 313.081L84.4832 313.081C84.4842 313.081 84.4851 313.081 84.4861 313.081L96.0852 313.081C96.0862 313.081 96.0871 313.081 96.088 313.081L96.371 313.081C96.7986 313.081 97.2026 313.249 97.5084 313.555C97.8142 313.861 97.9827 314.265 97.9826 314.693ZM91.6914 303.344L91.6914 304.465C91.6915 307.58 92.9061 308.574 93.8819 309.373C94.5334 309.906 95.0369 310.318 95.1974 311.414L85.375 311.414C85.4952 310.606 85.7941 310.194 86.111 309.877C86.2836 309.704 86.4806 309.543 86.689 309.373C86.9261 309.178 87.1713 308.978 87.4148 308.734C87.4149 308.734 87.4149 308.734 87.415 308.734C88.4276 307.721 88.8792 306.404 88.8791 304.464L88.8791 303.345C88.8791 302.969 89.0254 302.616 89.291 302.35C89.5566 302.085 89.9095 301.938 90.2851 301.938C91.0606 301.938 91.6915 302.569 91.6914 303.344Z" fill="#163767"/>
<path d="M91.8458 341.554C91.3856 341.555 91.0126 341.928 91.0124 342.388C91.0123 342.848 91.3855 343.221 91.8458 343.221L91.8657 343.221C92.0958 343.221 92.3041 343.128 92.455 342.977C92.6058 342.826 92.699 342.618 92.6991 342.388C92.6992 341.928 92.326 341.554 91.8657 341.555L91.8458 341.554Z" fill="#163767"/>
<path d="M86.3866 320.699C85.9264 320.702 85.5558 321.078 85.5593 321.538C85.5626 321.998 85.9386 322.369 86.3988 322.365L86.4185 322.365C86.6465 322.363 86.8522 322.27 87.0017 322.121C87.1539 321.969 87.2475 321.758 87.2458 321.526C87.2425 321.065 86.8665 320.695 86.4063 320.698L86.3866 320.699Z" fill="#163767"/>
<path d="M75.89 151.83C74.086 154.514 70.698 157.594 67.046 159.662C66.694 159.046 65.946 158.078 65.352 157.528C69.18 155.548 72.744 152.05 74.394 149.212H77.144C79.52 152.732 83.128 155.724 86.67 157.264C86.01 157.946 85.394 158.826 84.888 159.618C81.478 157.726 77.782 154.558 75.89 151.83ZM76.022 160.234H83.414V162.588H76.022V160.234ZM66.606 167.01H85.416V169.386H66.606V167.01ZM74.702 155.504H77.518V168.286H74.702V155.504ZM69.004 159.31H71.6V168.22H69.004V159.31ZM87.77 155.394H98.286V157.66H87.77V155.394ZM87.44 161.642C88.87 161.224 90.982 160.498 93.072 159.772L93.468 161.884C91.686 162.632 89.794 163.402 88.21 164.04L87.44 161.642ZM91.84 149.674L93.754 151.566C92.126 152.336 90.08 152.908 88.364 153.26C88.232 152.732 87.88 151.874 87.616 151.346C89.134 150.95 90.806 150.29 91.84 149.674ZM89.728 152.292H91.95V167.516C91.95 168.594 91.774 169.21 91.158 169.584C90.542 169.958 89.662 170.024 88.43 170.024C88.364 169.43 88.1 168.44 87.814 167.802C88.496 167.824 89.2 167.824 89.42 167.824C89.662 167.824 89.728 167.758 89.728 167.494V152.292ZM95.558 150.994L97.296 150.466C97.868 151.698 98.396 153.282 98.528 154.316L96.658 154.954C96.548 153.92 96.086 152.27 95.558 150.994ZM93.336 149.564H95.426C95.272 159.288 95.602 166.812 96.46 166.856C96.68 166.856 96.856 165.954 96.944 164.546C97.252 165.074 98.044 165.734 98.374 165.954C97.868 168.902 96.966 169.584 96.328 169.562C93.578 169.518 93.358 161.62 93.336 149.564ZM99.936 151.346H107.02V158.254H99.936V156.472H104.732V153.128H99.936V151.346ZM98.88 151.346H101.168V162.632H98.88V151.346ZM99.958 159.068H108.384V160.894H99.958V159.068ZM98.88 161.752H106.602V163.644H98.88V161.752ZM100.046 154.008H105.744V155.57H100.046V154.008ZM106.118 161.752H108.12C108.12 161.752 108.12 162.258 108.098 162.544C107.878 166.988 107.68 168.682 107.174 169.298C106.822 169.738 106.448 169.892 105.92 169.958C105.48 170.024 104.754 170.046 104.028 170.002C103.984 169.474 103.786 168.726 103.544 168.242C104.138 168.308 104.644 168.33 104.886 168.33C105.15 168.33 105.304 168.286 105.458 168.088C105.744 167.714 105.942 166.196 106.118 162.06V161.752ZM101.806 149.322L104.446 149.608C104.05 150.708 103.61 151.786 103.258 152.512L101.256 152.16C101.476 151.324 101.718 150.158 101.806 149.322ZM98.506 164.172L100.178 164.612C100.002 166.328 99.738 168.22 98.99 169.364L97.384 168.528C98.044 167.45 98.374 165.756 98.506 164.172ZM100.42 165.008L101.828 164.81C102.048 165.954 102.18 167.406 102.158 168.352L100.662 168.594C100.706 167.626 100.618 166.152 100.42 165.008ZM102.29 164.81L103.566 164.524C103.896 165.426 104.204 166.614 104.292 167.384L102.95 167.736C102.862 166.944 102.598 165.734 102.29 164.81ZM104.072 164.436L105.216 164.062C105.612 164.788 106.008 165.734 106.162 166.35L104.952 166.79C104.82 166.152 104.446 165.162 104.072 164.436ZM96.724 158.144L98.594 159.376C97.318 162.852 95.36 165.954 92.852 168.154C92.522 167.714 91.84 167.032 91.334 166.68C93.732 164.59 95.624 161.4 96.724 158.144Z" fill="#163767"/>
<path d="M732.498 511.108H747.546V513.704H732.498V511.108ZM738.482 494.542H741.232V512.692H738.482V494.542ZM731.2 505.608H733.884V514.98H731.2V505.608ZM746.138 505.608H748.888V514.958H746.138V505.608ZM732.08 496.39H734.72V501.868H745.214V496.39H748.008V504.42H732.08V496.39ZM753.31 496.478H770.712V514.518H767.808V499.162H756.082V514.54H753.31V496.478ZM754.63 510.03H769.612V512.758H754.63V510.03Z" fill="#163767"/>
<path d="M873.038 493.554H879.264V496.238H873.038V493.554ZM877.966 493.554H880.694C880.694 497.734 881.288 505.83 889.45 510.604C888.834 511.088 887.778 512.254 887.316 512.914C878.934 507.876 877.966 498.042 877.966 493.554ZM877.02 498.372L880.056 498.922C878.516 505.456 875.59 510.186 870.992 512.958C870.508 512.386 869.276 511.286 868.594 510.802C873.192 508.47 875.832 504.202 877.02 498.372ZM892.31 494.478H909.712V512.518H906.808V497.162H895.082V512.54H892.31V494.478ZM893.63 508.03H908.612V510.758H893.63V508.03Z" fill="#163767"/>
<path d="M688.46 17.808H700.032V20.162H688.46V17.808ZM689.098 21.614H697.282V23.858H689.098V21.614ZM685.358 25.948H700.494V28.346H685.358V25.948ZM688.152 30.634H700.252V32.878H688.152V30.634ZM688.482 15.3L691.056 15.872C690.22 18.776 688.768 21.614 687.184 23.374C686.7 22.934 685.578 22.186 684.962 21.856C686.546 20.338 687.8 17.83 688.482 15.3ZM688.042 21.614H690.484C690.066 25.64 689.428 30.81 688.878 33.934L686.37 33.758C686.986 30.634 687.712 25.508 688.042 21.614ZM692.222 22.45H694.51C694.29 25.508 693.916 29.424 693.586 31.778H691.32C691.672 29.336 692.068 25.42 692.222 22.45ZM696.556 21.614H698.998C698.998 21.614 698.976 22.384 698.954 22.692C698.646 30.986 698.294 33.912 697.568 34.88C697.062 35.562 696.534 35.782 695.808 35.892C695.126 36.002 694.092 35.98 692.992 35.936C692.97 35.298 692.706 34.374 692.354 33.78C693.322 33.868 694.158 33.868 694.598 33.868C694.972 33.868 695.192 33.802 695.412 33.516C695.962 32.878 696.292 29.93 696.556 22.098V21.614ZM680.65 17.39L682.124 15.476C683.378 16.026 685.028 16.906 685.82 17.654L684.236 19.766C683.488 19.018 681.926 18.006 680.65 17.39ZM679.638 23.286L681.09 21.35C682.366 21.834 683.972 22.692 684.786 23.396L683.224 25.53C682.498 24.804 680.914 23.858 679.638 23.286ZM680.056 34.308C680.98 32.592 682.3 29.776 683.29 27.18L685.38 28.632C684.522 31.008 683.444 33.604 682.432 35.76L680.056 34.308ZM701.77 16.664L703.53 15.432C706.764 19.106 707.16 22.846 707.16 27.18C707.16 30.216 707.006 33.472 706.104 34.792C705.818 35.188 705.4 35.474 704.894 35.562C704.278 35.716 703.508 35.738 702.716 35.716C702.694 34.924 702.518 34.022 702.144 33.34C702.848 33.384 703.354 33.384 703.684 33.34C703.948 33.318 704.146 33.23 704.278 33.032C704.718 32.46 704.828 29.798 704.828 27.114C704.828 23.044 704.41 19.788 701.77 16.664ZM704.806 23.55L706.61 24.584C705.818 26.674 704.3 29.182 702.87 30.656C702.562 30.062 701.946 29.094 701.44 28.588C702.738 27.51 704.124 25.398 704.806 23.55ZM705.928 15.388L707.952 16.576C706.742 19.04 704.916 21.394 703.002 23.044C702.628 22.538 701.88 21.812 701.33 21.438C703.178 19.92 704.916 17.566 705.928 15.388ZM707.732 18.226H709.8V35.628H707.732V18.226ZM713.936 20.822H721.064V23.044H715.828V32.988H713.936V20.822ZM716.818 16.884H718.93V35.958H716.818V16.884ZM713.694 16.334H722.23V18.556H713.694V16.334ZM719.92 20.822H721.9V30.722C721.9 31.536 721.768 32.13 721.306 32.482C720.822 32.834 720.272 32.9 719.502 32.9C719.414 32.328 719.106 31.426 718.798 30.898C719.216 30.92 719.568 30.92 719.722 30.898C719.876 30.898 719.92 30.854 719.92 30.678V20.822ZM709.426 15.41L711.802 15.806C711.34 17.17 710.856 18.6 710.46 19.546L708.502 19.15C708.832 18.094 709.25 16.532 709.426 15.41ZM708.7 18.226H713.144V25.156H708.7V22.956H711.054V20.448H708.7V18.226ZM708.81 26.608H713.298V34.088H708.81V31.866H711.208V28.83H708.81V26.608Z" fill="#163767"/>
<path d="M276.122 21.712H282.26V24.374H276.122V21.712ZM284.68 16.344H287.474V33.57C287.474 35.154 287.144 35.946 286.22 36.43C285.274 36.892 283.822 37.002 281.82 37.002C281.71 36.188 281.182 34.846 280.764 34.054C282.216 34.12 283.602 34.12 284.086 34.12C284.526 34.098 284.68 33.966 284.68 33.548V16.344ZM281.358 21.712H281.908L282.37 21.624L284.196 22.284C283.184 28.29 280.764 32.778 277.618 35.088C277.156 34.472 276.078 33.394 275.44 32.998C278.454 30.974 280.61 27.146 281.358 22.284V21.712ZM287.32 19.556C288.728 25.386 291.61 30.578 296.538 32.932C295.878 33.482 294.954 34.582 294.514 35.396C289.41 32.514 286.792 26.794 285.23 19.996L287.32 19.556ZM293.48 19.754L295.966 21.492C294.096 23.472 291.742 25.694 289.894 27.08L288.002 25.584C289.784 24.11 292.116 21.712 293.48 19.754ZM303.072 17.29H314.138V19.688H303.072V17.29ZM301.4 30.952H317.746V33.35H301.4V30.952ZM297.638 24.066H318.34V26.508H297.638V24.066ZM313.302 17.29H315.986C315.986 17.29 315.964 18.302 315.942 18.654C315.524 30.38 315.018 34.318 314.138 35.594C313.522 36.518 312.928 36.804 312.092 36.936C311.278 37.068 310.068 37.046 308.858 37.024C308.836 36.364 308.506 35.33 308.132 34.67C309.276 34.78 310.2 34.802 310.75 34.802C311.168 34.802 311.432 34.67 311.674 34.34C312.466 33.438 312.95 29.06 313.302 17.95V17.29ZM301.62 17.29H304.392C303.732 23.076 302.698 30.402 301.884 34.846L299.09 34.604C300.036 30.116 301.092 22.9 301.62 17.29ZM305.602 21.492L307.164 19.93C308.462 20.568 310.134 21.624 310.992 22.416L309.364 24.154C308.594 23.362 306.922 22.24 305.602 21.492ZM304.876 28.224L306.548 26.684C307.934 27.41 309.672 28.554 310.53 29.478L308.748 31.172C307.978 30.292 306.284 29.038 304.876 28.224Z" fill="#163767"/>
<path d="M40.6678 154.93C39.5838 154.256 38.7173 153.824 38.0519 153.591C37.858 152.401 37.7626 151.197 37.7667 149.991C37.7667 145.578 34.0652 142 29.4999 142C24.9346 142 21.2332 145.578 21.2332 149.991C21.2332 151.384 21.119 152.555 20.9475 153.592C20.2831 153.824 19.4161 154.257 18.3316 154.93C12.7702 158.381 13.8603 163.208 14.6457 162.636C16.7418 161.11 18.4515 159.616 19.7447 158.286C19.4187 159.445 19.1665 160.592 19.1665 161.978C19.1665 165.463 21.0152 168.528 23.814 170.314C23.9158 170.919 24.046 172.004 23.7365 172.299C23.4389 172.58 22.5161 172.239 22.0955 172.239C21.0483 172.239 20.1999 173 20.1999 173H28.4676C28.4676 173 27.6187 172.239 26.5725 172.239C26.1519 172.239 25.2281 172.58 24.9315 172.298C24.7006 172.08 24.7135 171.426 24.7771 170.855C26.1943 171.561 27.7965 171.967 29.4999 171.967C31.2034 171.967 32.8056 171.562 34.2218 170.856C34.2853 171.427 34.2983 172.082 34.0683 172.3C33.7718 172.581 32.8485 172.24 32.4274 172.24C31.3822 172.24 30.5333 173 30.5333 173H38.8C38.8 173 37.9511 172.24 36.9049 172.24C36.4848 172.24 35.5615 172.581 35.2639 172.299C34.9539 172.005 35.0841 170.919 35.1864 170.314C37.9847 168.528 39.8333 165.463 39.8333 161.978C39.8333 160.592 39.5822 159.445 39.2552 158.286C40.5489 159.616 42.2586 161.11 44.3542 162.636C45.1395 163.208 46.2302 158.381 40.6678 154.93ZM29.4999 152.868L27.1811 152.302C27.27 150.909 28.276 149.806 29.4999 149.806C30.7229 149.806 31.7289 150.909 31.8177 152.302L29.4999 152.868ZM31.2194 152.981C30.9854 153.833 30.307 154.456 29.4999 154.456C28.6908 154.456 28.0135 153.833 27.7794 152.98L29.4999 153.4L31.2194 152.981ZM29.4999 170.967C25.2204 170.967 21.2332 168.085 21.2332 162.11C21.2332 158.791 23.2999 155.669 23.2999 150.674C23.2999 144.638 27.9277 145.4 28.4707 149.511C27.411 149.978 26.6583 151.142 26.6583 152.503V152.706L27.2312 152.846C27.4431 154.054 28.3684 154.973 29.4999 154.973C30.6304 154.973 31.5558 154.054 31.7666 152.847L32.3416 152.707V152.504C32.3416 151.142 31.5878 149.979 30.5292 149.511C31.0711 145.4 35.7 144.639 35.7 150.674C35.7 155.669 37.7667 158.792 37.7667 162.11C37.7667 168.085 33.7806 170.967 29.4999 170.967Z" fill="#163767"/>
<path d="M33 151C33.5523 151 34 150.328 34 149.5C34 148.672 33.5523 148 33 148C32.4477 148 32 148.672 32 149.5C32 150.328 32.4477 151 33 151Z" fill="#163767"/>
<path d="M25.903 148C25.405 148 25 148.672 25 149.499C25 150.328 25.405 151 25.903 151C26.4033 151 26.8078 150.328 26.8078 149.499C26.8078 148.672 26.4033 148 25.903 148ZM29.5074 149.787C29.4418 149.87 29.4933 150.068 29.6222 150.231C29.7492 150.394 29.9064 150.459 29.9715 150.376C30.0371 150.294 29.9855 150.095 29.8576 149.932C29.7297 149.77 29.5724 149.704 29.5074 149.787ZM28.2767 149.932C28.1479 150.095 28.0977 150.294 28.1619 150.376C28.2279 150.459 28.3842 150.394 28.5131 150.231C28.641 150.069 28.692 149.87 28.6279 149.787C28.5628 149.704 28.4046 149.77 28.2767 149.932Z" fill="#163767"/>
<path d="M237.003 12.0996C242.812 12.0996 246.939 16.4391 246.939 22.6383C240.538 25.1025 233.468 25.1025 227.067 22.6383C227.067 16.4391 231.195 12.0996 237.003 12.0996ZM237.003 9C229.819 9 224.01 14.4243 224.01 22.7933C224.102 24.0332 224.866 25.118 225.997 25.583L228.596 26.3579V29.9224C228.596 30.1279 228.515 30.325 228.372 30.4704C228.229 30.6157 228.034 30.6973 227.832 30.6973C227.629 30.6973 227.434 30.6157 227.291 30.4704C227.148 30.325 227.067 30.1279 227.067 29.9224C227.092 29.7128 227.07 29.5001 227.002 29.3004C226.934 29.1007 226.823 28.9194 226.675 28.77C226.528 28.6207 226.349 28.5073 226.152 28.4384C225.955 28.3696 225.745 28.3471 225.539 28.3726C225.332 28.3471 225.122 28.3696 224.925 28.4384C224.728 28.5073 224.549 28.6207 224.402 28.77C224.255 28.9194 224.143 29.1007 224.075 29.3004C224.007 29.5001 223.985 29.7128 224.01 29.9224C223.991 30.4235 224.071 30.9234 224.246 31.3922C224.422 31.8611 224.689 32.2892 225.031 32.6509C225.374 33.0127 225.785 33.3006 226.24 33.4976C226.695 33.6945 227.184 33.7963 227.679 33.797H227.832C229.987 33.8899 231.745 32.1077 231.653 29.9224V27.1328H233.182V35.9667C233.182 37.0051 231.653 37.0051 231.653 35.9667C231.678 35.757 231.656 35.5443 231.588 35.3447C231.52 35.145 231.408 34.9636 231.261 34.8143C231.114 34.665 230.935 34.5516 230.738 34.4827C230.541 34.4138 230.331 34.3913 230.125 34.4169C229.918 34.3913 229.708 34.4138 229.511 34.4827C229.314 34.5516 229.135 34.665 228.988 34.8143C228.841 34.9636 228.729 35.145 228.661 35.3447C228.593 35.5443 228.571 35.757 228.596 35.9667C228.428 38.1364 230.124 39.9962 232.265 39.9962H232.417C234.573 40.0892 236.331 38.3069 236.239 36.1217V27.5977H237.768V36.1217C237.744 36.6367 237.828 37.1509 238.011 37.6316C238.195 38.1122 238.476 38.5487 238.836 38.9133C239.195 39.2778 239.626 39.5624 240.1 39.7489C240.574 39.9353 241.081 40.0195 241.589 39.9962H241.742C243.836 39.9962 245.502 38.2294 245.411 36.1217C245.411 34.0604 242.353 34.0604 242.353 36.1217C242.353 37.16 240.825 37.16 240.825 36.1217V27.2878H242.353V30.0774C242.353 32.1852 244.081 33.8899 246.175 33.797H246.328C248.422 33.797 250.088 32.0302 249.996 29.9224C249.996 27.8612 246.939 27.8612 246.939 29.9224C246.939 30.9608 245.411 30.9608 245.411 29.9224V26.3579L248.009 25.583C249.11 25.056 249.859 24.0022 249.996 22.7933C249.996 14.4243 244.188 9 237.003 9ZM237.003 15.5092C234.756 16.1291 232.784 17.5704 231.5 19.5387C230.889 20.3601 229.666 19.4302 230.277 18.6088C231.805 16.3348 234.081 14.6866 236.698 13.9594C236.798 13.9369 236.902 13.9352 237.003 13.9544C237.104 13.9736 237.201 14.0134 237.286 14.0713C237.372 14.1292 237.445 14.204 237.502 14.2913C237.558 14.3786 237.597 14.4766 237.615 14.5793C237.768 15.0443 237.462 15.3542 237.003 15.5092Z" fill="#163767"/>
<path d="M1009.42 247.199C1008.48 247.199 1007.65 247.038 1006.91 246.716C1006.18 246.394 1005.6 245.946 1005.17 245.374C1004.75 244.796 1004.52 244.126 1004.48 243.364H1006.27C1006.3 243.832 1006.47 244.237 1006.75 244.578C1007.03 244.914 1007.41 245.175 1007.87 245.359C1008.32 245.544 1008.83 245.636 1009.39 245.636C1010.02 245.636 1010.57 245.527 1011.05 245.31C1011.54 245.092 1011.92 244.789 1012.19 244.401C1012.46 244.012 1012.6 243.562 1012.6 243.051C1012.6 242.516 1012.47 242.045 1012.2 241.638C1011.94 241.226 1011.55 240.904 1011.04 240.672C1010.53 240.44 1009.9 240.324 1009.16 240.324H1008V238.761H1009.16C1009.74 238.761 1010.25 238.657 1010.68 238.449C1011.13 238.241 1011.47 237.947 1011.71 237.568C1011.97 237.189 1012.09 236.744 1012.09 236.233C1012.09 235.741 1011.98 235.312 1011.76 234.947C1011.55 234.583 1011.24 234.299 1010.84 234.095C1010.45 233.892 1009.98 233.79 1009.45 233.79C1008.95 233.79 1008.47 233.882 1008.03 234.067C1007.59 234.247 1007.23 234.509 1006.95 234.855C1006.67 235.196 1006.52 235.608 1006.49 236.091H1004.79C1004.82 235.329 1005.05 234.661 1005.48 234.088C1005.91 233.51 1006.47 233.061 1007.17 232.739C1007.87 232.417 1008.64 232.256 1009.48 232.256C1010.38 232.256 1011.15 232.438 1011.79 232.803C1012.44 233.162 1012.93 233.638 1013.28 234.23C1013.62 234.822 1013.8 235.461 1013.8 236.148C1013.8 236.967 1013.58 237.665 1013.15 238.243C1012.72 238.821 1012.14 239.221 1011.41 239.443V239.557C1012.33 239.708 1013.04 240.099 1013.56 240.729C1014.08 241.354 1014.34 242.128 1014.34 243.051C1014.34 243.842 1014.12 244.552 1013.69 245.182C1013.26 245.807 1012.68 246.299 1011.94 246.659C1011.2 247.019 1010.36 247.199 1009.42 247.199ZM1017.5 247V232.455H1026.22V234.017H1019.26V238.932H1025.56V240.494H1019.26V247H1017.5Z" fill="#163767"/>
<path d="M501.42 46.1989C500.483 46.1989 499.647 46.0379 498.913 45.7159C498.184 45.3939 497.604 44.9465 497.173 44.3736C496.747 43.7959 496.515 43.1259 496.477 42.3636H498.267C498.305 42.8324 498.466 43.2372 498.75 43.5781C499.034 43.9143 499.406 44.1747 499.865 44.3594C500.324 44.544 500.833 44.6364 501.392 44.6364C502.017 44.6364 502.571 44.5275 503.054 44.3097C503.537 44.0919 503.916 43.7888 504.19 43.4006C504.465 43.0123 504.602 42.5625 504.602 42.0511C504.602 41.5161 504.47 41.045 504.205 40.6378C503.939 40.2259 503.551 39.9039 503.04 39.6719C502.528 39.4399 501.903 39.3239 501.165 39.3239H500V37.7614H501.165C501.742 37.7614 502.249 37.6572 502.685 37.4489C503.125 37.2405 503.468 36.947 503.714 36.5682C503.965 36.1894 504.091 35.7443 504.091 35.233C504.091 34.7405 503.982 34.312 503.764 33.9474C503.546 33.5829 503.239 33.2988 502.841 33.0952C502.448 32.8916 501.984 32.7898 501.449 32.7898C500.947 32.7898 500.473 32.8821 500.028 33.0668C499.588 33.2467 499.228 33.5095 498.949 33.8551C498.67 34.196 498.518 34.608 498.494 35.0909H496.79C496.818 34.3286 497.048 33.661 497.479 33.0881C497.91 32.5104 498.473 32.0606 499.169 31.7386C499.87 31.4167 500.639 31.2557 501.477 31.2557C502.377 31.2557 503.149 31.438 503.793 31.8026C504.437 32.1624 504.931 32.6383 505.277 33.2301C505.623 33.822 505.795 34.4612 505.795 35.1477C505.795 35.9669 505.58 36.6652 505.149 37.2429C504.723 37.8205 504.143 38.2206 503.409 38.4432V38.5568C504.328 38.7083 505.045 39.099 505.561 39.7287C506.077 40.3537 506.335 41.1278 506.335 42.0511C506.335 42.8419 506.12 43.5521 505.689 44.1818C505.263 44.8068 504.68 45.2992 503.942 45.6591C503.203 46.0189 502.363 46.1989 501.42 46.1989ZM509.496 46V31.4545H518.217V33.017H511.257V37.9318H517.564V39.4943H511.257V46H509.496Z" fill="#163767"/>
<path d="M167.42 212.199C166.483 212.199 165.647 212.038 164.913 211.716C164.184 211.394 163.604 210.946 163.173 210.374C162.747 209.796 162.515 209.126 162.477 208.364H164.267C164.305 208.832 164.466 209.237 164.75 209.578C165.034 209.914 165.406 210.175 165.865 210.359C166.324 210.544 166.833 210.636 167.392 210.636C168.017 210.636 168.571 210.527 169.054 210.31C169.537 210.092 169.916 209.789 170.19 209.401C170.465 209.012 170.602 208.562 170.602 208.051C170.602 207.516 170.47 207.045 170.205 206.638C169.939 206.226 169.551 205.904 169.04 205.672C168.528 205.44 167.903 205.324 167.165 205.324H166V203.761H167.165C167.742 203.761 168.249 203.657 168.685 203.449C169.125 203.241 169.468 202.947 169.714 202.568C169.965 202.189 170.091 201.744 170.091 201.233C170.091 200.741 169.982 200.312 169.764 199.947C169.546 199.583 169.239 199.299 168.841 199.095C168.448 198.892 167.984 198.79 167.449 198.79C166.947 198.79 166.473 198.882 166.028 199.067C165.588 199.247 165.228 199.509 164.949 199.855C164.67 200.196 164.518 200.608 164.494 201.091H162.79C162.818 200.329 163.048 199.661 163.479 199.088C163.91 198.51 164.473 198.061 165.169 197.739C165.87 197.417 166.639 197.256 167.477 197.256C168.377 197.256 169.149 197.438 169.793 197.803C170.437 198.162 170.931 198.638 171.277 199.23C171.623 199.822 171.795 200.461 171.795 201.148C171.795 201.967 171.58 202.665 171.149 203.243C170.723 203.821 170.143 204.221 169.409 204.443V204.557C170.328 204.708 171.045 205.099 171.561 205.729C172.077 206.354 172.335 207.128 172.335 208.051C172.335 208.842 172.12 209.552 171.689 210.182C171.263 210.807 170.68 211.299 169.942 211.659C169.203 212.019 168.363 212.199 167.42 212.199ZM175.496 212V197.455H184.217V199.017H177.257V203.932H183.564V205.494H177.257V212H175.496Z" fill="#163767"/>
<defs>
<filter id="filter0_d_459_3263" x="0" y="134" width="58" height="58" filterUnits="userSpaceOnUse" color-interpolation-filters="sRGB">
<feFlood flood-opacity="0" result="BackgroundImageFix"/>
<feColorMatrix in="SourceAlpha" type="matrix" values="0 0 0 0 0 0 0 0 0 0 0 0 0 0 0 0 0 0 127 0" result="hardAlpha"/>
<feOffset dy="4"/>
<feGaussianBlur stdDeviation="2"/>
<feComposite in2="hardAlpha" operator="out"/>
<feColorMatrix type="matrix" values="0 0 0 0 0 0 0 0 0 0 0 0 0 0 0 0 0 0 0.25 0"/>
<feBlend mode="normal" in2="BackgroundImageFix" result="effect1_dropShadow_459_3263"/>
<feBlend mode="normal" in="SourceGraphic" in2="effect1_dropShadow_459_3263" result="shape"/>
</filter>
<filter id="filter1_d_459_3263" x="208" y="0" width="58" height="58" filterUnits="userSpaceOnUse" color-interpolation-filters="sRGB">
<feFlood flood-opacity="0" result="BackgroundImageFix"/>
<feColorMatrix in="SourceAlpha" type="matrix" values="0 0 0 0 0 0 0 0 0 0 0 0 0 0 0 0 0 0 127 0" result="hardAlpha"/>
<feOffset dy="4"/>
<feGaussianBlur stdDeviation="2"/>
<feComposite in2="hardAlpha" operator="out"/>
<feColorMatrix type="matrix" values="0 0 0 0 0 0 0 0 0 0 0 0 0 0 0 0 0 0 0.25 0"/>
<feBlend mode="normal" in2="BackgroundImageFix" result="effect1_dropShadow_459_3263"/>
<feBlend mode="normal" in="SourceGraphic" in2="effect1_dropShadow_459_3263" result="shape"/>
</filter>
<filter id="filter2_d_459_3263" x="614" y="2" width="58" height="58" filterUnits="userSpaceOnUse" color-interpolation-filters="sRGB">
<feFlood flood-opacity="0" result="BackgroundImageFix"/>
<feColorMatrix in="SourceAlpha" type="matrix" values="0 0 0 0 0 0 0 0 0 0 0 0 0 0 0 0 0 0 127 0" result="hardAlpha"/>
<feOffset dy="4"/>
<feGaussianBlur stdDeviation="2"/>
<feComposite in2="hardAlpha" operator="out"/>
<feColorMatrix type="matrix" values="0 0 0 0 0 0 0 0 0 0 0 0 0 0 0 0 0 0 0.25 0"/>
<feBlend mode="normal" in2="BackgroundImageFix" result="effect1_dropShadow_459_3263"/>
<feBlend mode="normal" in="SourceGraphic" in2="effect1_dropShadow_459_3263" result="shape"/>
</filter>
<filter id="filter3_d_459_3263" x="724" y="205" width="58" height="58" filterUnits="userSpaceOnUse" color-interpolation-filters="sRGB">
<feFlood flood-opacity="0" result="BackgroundImageFix"/>
<feColorMatrix in="SourceAlpha" type="matrix" values="0 0 0 0 0 0 0 0 0 0 0 0 0 0 0 0 0 0 127 0" result="hardAlpha"/>
<feOffset dy="4"/>
<feGaussianBlur stdDeviation="2"/>
<feComposite in2="hardAlpha" operator="out"/>
<feColorMatrix type="matrix" values="0 0 0 0 0 0 0 0 0 0 0 0 0 0 0 0 0 0 0.25 0"/>
<feBlend mode="normal" in2="BackgroundImageFix" result="effect1_dropShadow_459_3263"/>
<feBlend mode="normal" in="SourceGraphic" in2="effect1_dropShadow_459_3263" result="shape"/>
</filter>
</defs>
</svg>
