<svg width="43" height="50" viewBox="0 0 43 50" fill="none" xmlns="http://www.w3.org/2000/svg">
<path d="M8.94062 9.41767C11.541 9.41767 13.6494 7.3083 13.6494 4.71064C13.6494 2.10664 11.541 0 8.94062 0C6.33848 0 4.23193 2.10664 4.23193 4.71064C4.23193 7.3083 6.33857 9.41767 8.94062 9.41767ZM8.94062 1.52637C10.6957 1.52637 12.1223 2.95459 12.1223 4.71064C12.1223 6.46475 10.6957 7.89043 8.94062 7.89043C7.18652 7.89043 5.7582 6.46475 5.7582 4.71064C5.7582 2.95459 7.18652 1.52637 8.94062 1.52637Z" fill="#163767"/>
<path d="M13.0196 11.6479H8.89209H4.76357C2.48301 11.6479 0 14.1309 0 16.4132V32.239C0 33.3802 0.924805 34.3041 2.06602 34.3041C2.62695 34.3041 2.06602 34.3041 3.50664 34.3041L4.29277 47.8007C4.29277 49.016 5.27676 50 6.49131 50C7.00361 50 7.94873 50 8.89209 50C9.83623 50 10.7822 50 11.2938 50C12.5082 50 13.4922 49.016 13.4922 47.8007L14.2774 34.3041C15.7189 34.3041 15.1572 34.3041 15.7189 34.3041C16.8593 34.3041 17.7841 33.3802 17.7841 32.239V16.4132C17.7841 14.1309 15.3021 11.6479 13.0196 11.6479ZM16.2577 32.239C16.2577 32.5357 16.0166 32.7777 15.7189 32.7777H14.2774H12.8377L12.7529 34.2156L11.9686 47.7122L11.9659 47.7563V47.8006C11.9659 48.1715 11.6647 48.4736 11.2938 48.4736H8.89209H6.49131C6.12119 48.4736 5.81914 48.1716 5.81914 47.8006V47.7563L5.8165 47.7122L5.03047 34.2156L4.94746 32.7777H3.50674H2.06602C1.76836 32.7777 1.52637 32.5357 1.52637 32.239V16.4132C1.52637 14.9603 3.31152 13.1751 4.76357 13.1751H8.89209H13.0196C14.4727 13.1751 16.2577 14.9603 16.2577 16.4132V32.239Z" fill="#163767"/>
<path d="M31.0192 9.41767C33.6204 9.41767 35.7279 7.3083 35.7279 4.71064C35.7279 2.10664 33.6204 0 31.0192 0C28.4171 0 26.3104 2.10664 26.3104 4.71064C26.3104 7.3083 28.4171 9.41767 31.0192 9.41767ZM31.0192 1.52637C32.7743 1.52637 34.2007 2.95459 34.2007 4.71064C34.2007 6.46475 32.7742 7.89043 31.0192 7.89043C29.2641 7.89043 27.8367 6.46475 27.8367 4.71064C27.8367 2.95459 29.2641 1.52637 31.0192 1.52637Z" fill="#163767"/>
<path d="M42.2359 36.81L37.3567 25.3369L38.9802 17.1473C39.148 14.0381 36.8099 11.707 34.5284 11.707H27.5091C25.2275 11.707 22.8894 14.0381 23.0573 17.1473L24.6807 25.3369L19.8015 36.81C19.5824 37.324 19.6372 37.9149 19.9454 38.3812C20.2536 38.8477 20.7765 39.1285 21.3356 39.1285H26.479L27.8093 48.1592C27.8093 49.0434 28.5265 49.7613 29.4124 49.7613C29.734 49.7613 32.3043 49.7613 32.6258 49.7613C33.5108 49.7613 34.2281 49.0433 34.2281 48.1592L35.5584 39.1285H40.7026C41.2618 39.1285 41.7838 38.8476 42.0921 38.3812C42.4003 37.9149 42.455 37.324 42.2359 36.81ZM40.8192 37.5387C40.7936 37.5784 40.7495 37.6022 40.7026 37.6022H35.5584H34.2405L34.0489 38.906L32.7178 47.9366L32.701 48.0462V48.1593C32.701 48.2008 32.6674 48.2352 32.6259 48.2352H29.4125C29.3701 48.2352 29.3365 48.2008 29.3365 48.1593V48.0462L29.3197 47.9366L27.9895 38.906L27.797 37.6022H26.4791H21.3357C21.2881 37.6022 21.2447 37.5784 21.2182 37.5387C21.1927 37.4998 21.1882 37.4503 21.2067 37.407L26.0859 25.9341L26.2697 25.5013L26.1787 25.0393L24.5773 16.9635C24.5314 15.5246 25.2018 14.5928 25.6107 14.16C26.1601 13.5806 26.8694 13.2344 27.509 13.2344H34.5283C35.1679 13.2344 35.8771 13.5806 36.4265 14.16C36.8363 14.5928 37.5058 15.5246 37.46 16.9635L35.8595 25.0393L35.7677 25.5013L35.9514 25.9341L40.8314 37.407C40.8492 37.4503 40.8448 37.4998 40.8192 37.5387Z" fill="#163767"/>
</svg>
