<svg width="105" height="93" viewBox="0 0 105 93" fill="none" xmlns="http://www.w3.org/2000/svg">
<path d="M48.4468 7.00726L46.523 9.89579C42.1638 16.4513 34.3663 19.8315 26.6097 18.5204L14.4121 16.4923C6.90111 15.2426 0.0655175 21.0402 0.0859833 28.661C0.0859833 31.9183 1.3958 35.0526 3.68797 37.3675L9.664 43.3495C11.9152 45.6029 13.1841 48.6553 13.1841 51.8511C13.1841 55.0879 11.8743 58.1813 9.56167 60.4553L6.88064 63.0775C4.60893 65.29 3.34005 68.3219 3.34005 71.4972C3.34005 79.0361 10.3189 84.6493 17.6866 83.0104L30.4368 80.1833C32.0127 79.835 33.65 79.6507 35.2668 79.6507H37.3134C42.8801 79.6507 48.3035 81.5559 52.6627 85.0385L58.9662 90.0985C61.1151 91.8194 63.7962 92.7617 66.5386 92.7617C73.2309 92.7617 78.6748 87.3329 78.6748 80.6135V75.451C78.6748 68.3014 83.0545 61.8893 89.7059 59.3081L97.2578 56.3786C101.842 54.5963 104.871 50.1713 104.871 45.2547C104.871 39.4981 100.757 34.5405 95.0884 33.5162L89.358 32.4714C81.888 31.0988 75.9733 25.4037 74.2951 17.9878L72.8421 11.5347C71.4709 5.36838 65.986 0.984375 59.6825 0.984375C55.18 0.984375 50.9641 3.23784 48.4468 7.00726ZM32.8109 33.762C34.5478 33.762 36.2136 34.4527 37.4418 35.6821C38.6699 36.9115 39.3599 38.5789 39.3599 40.3175C39.3599 42.0562 38.6699 43.7236 37.4418 44.953C36.2136 46.1824 34.5478 46.873 32.8109 46.873C31.0739 46.873 29.4082 46.1824 28.18 44.953C26.9518 43.7236 26.2618 42.0562 26.2618 40.3175C26.2618 38.5789 26.9518 36.9115 28.18 35.6821C29.4082 34.4527 31.0739 33.762 32.8109 33.762ZM59.0071 37.0398C59.0071 36.1704 59.3521 35.3367 59.9662 34.722C60.5803 34.1073 61.4132 33.762 62.2817 33.762C63.1501 33.762 63.983 34.1073 64.5971 34.722C65.2112 35.3367 65.5562 36.1704 65.5562 37.0398C65.5562 37.9091 65.2112 38.7428 64.5971 39.3575C63.983 39.9722 63.1501 40.3175 62.2817 40.3175C61.4132 40.3175 60.5803 39.9722 59.9662 39.3575C59.3521 38.7428 59.0071 37.9091 59.0071 37.0398ZM59.0071 53.4286C60.7441 53.4286 62.4098 54.1192 63.638 55.3486C64.8662 56.578 65.5562 58.2455 65.5562 59.9841C65.5562 61.7227 64.8662 63.3901 63.638 64.6195C62.4098 65.8489 60.7441 66.5396 59.0071 66.5396C57.2702 66.5396 55.6044 65.8489 54.3763 64.6195C53.1481 63.3901 52.4581 61.7227 52.4581 59.9841C52.4581 58.2455 53.1481 56.578 54.3763 55.3486C55.6044 54.1192 57.2702 53.4286 59.0071 53.4286Z" fill="#16355A"/>
</svg>
