<svg width="116" height="83" viewBox="0 0 116 83" fill="none" xmlns="http://www.w3.org/2000/svg">
<path d="M32.8969 30.9186L35.235 32.0849C36.3044 32.6316 37.4825 32.9049 38.6969 32.9049C42.9563 32.9049 46.4181 29.4242 46.4181 25.1417V21.2419C46.4181 14.809 41.2163 9.57883 34.8181 9.57883H23.2C16.8019 9.57883 11.6 14.809 11.6 21.2419V25.1417C11.6 29.4242 15.0619 32.9049 19.3213 32.9049C20.5175 32.9049 21.6956 32.6316 22.7831 32.0849L25.1213 30.9186L26.6438 30.1532L24.4869 28.7135C23.6713 28.1668 23.2 27.2556 23.2 26.2898V25.6155C23.2 23.1918 25.1394 21.2419 27.55 21.2419H30.45C32.8606 21.2419 34.8 23.1918 34.8 25.6155V26.2898C34.8 27.2556 34.3106 28.1668 33.5131 28.7135L31.3744 30.1532L32.8969 30.9186ZM31.3381 39.921L29 38.7364L26.6619 39.9027C24.3781 41.0508 21.8588 41.6522 19.3213 41.6522C18.6688 41.6522 18.0344 41.6158 17.4 41.5429V41.6522C17.4 48.0851 22.6019 53.3152 29 53.3152H40.6C43.8081 53.3152 46.4 55.9212 46.4 59.1468C46.4 62.3723 43.8081 64.9783 40.6 64.9783H69.6V56.231V53.3152C69.6 48.9963 71.9381 45.224 75.4 43.2194C77.1038 42.2354 79.0794 41.6522 81.2 41.6522V38.7364C81.2 33.9072 85.0969 29.9892 89.9 29.9892C91.495 29.9892 92.8 31.3012 92.8 32.9049V38.7364V41.6522V50.3995C92.8 52.0032 94.105 53.3152 95.7 53.3152C97.295 53.3152 98.6 52.0032 98.6 50.3995V32.2306C98.6 23.4469 93.0175 15.6473 84.7163 12.8591L83.1756 12.3488C81.7256 11.8568 80.8919 10.326 81.2906 8.83166C81.6894 7.33734 83.1575 6.42616 84.6619 6.71774L88.2688 7.44668C104.4 10.6905 116 24.923 116 41.4517V41.6522C116 64.1947 97.8206 82.4729 75.4 82.4729H75.2006H46.4H46.2913C23.925 82.4729 5.8 64.2494 5.8 41.7615V41.6522V34.5086C3.96938 31.848 2.9 28.6224 2.9 25.1417V21.2419V20.9867C1.21438 20.3854 0 18.7817 0 16.8682C0 14.4445 1.93938 12.4946 4.35 12.4946H4.8575C8.12 5.6061 15.0981 0.831543 23.2 0.831543H34.8C42.9019 0.831543 49.88 5.6061 53.1425 12.4946H53.65C56.0606 12.4946 58 14.4445 58 16.8682C58 18.7817 56.7856 20.3854 55.1 20.9867V21.2419V25.1417C55.1 25.3968 55.1 25.652 55.0819 25.9253C57.2569 24.7955 59.74 24.1759 62.35 24.1759H63.8C67.0081 24.1759 69.6 26.7818 69.6 30.0074C69.6 33.2329 67.0081 35.8389 63.8 35.8389H62.35C59.9394 35.8389 58 37.7888 58 40.2125V41.6704H68.2225C65.4675 44.7684 63.8 48.8505 63.8 53.3335H58C50.3331 53.3335 43.8263 48.3402 41.5063 41.4335C40.5819 41.5975 39.6394 41.6704 38.6787 41.6704C36.1231 41.6704 33.6219 41.069 31.3381 39.921ZM17.4 18.3261C18.1691 18.3261 18.9068 18.6333 19.4506 19.1801C19.9945 19.7269 20.3 20.4686 20.3 21.2419C20.3 22.0152 19.9945 22.7568 19.4506 23.3036C18.9068 23.8504 18.1691 24.1576 17.4 24.1576C16.6309 24.1576 15.8932 23.8504 15.3494 23.3036C14.8055 22.7568 14.5 22.0152 14.5 21.2419C14.5 20.4686 14.8055 19.7269 15.3494 19.1801C15.8932 18.6333 16.6309 18.3261 17.4 18.3261ZM37.7 21.2419C37.7 20.4686 38.0055 19.7269 38.5494 19.1801C39.0932 18.6333 39.8309 18.3261 40.6 18.3261C41.3691 18.3261 42.1068 18.6333 42.6506 19.1801C43.1945 19.7269 43.5 20.4686 43.5 21.2419C43.5 22.0152 43.1945 22.7568 42.6506 23.3036C42.1068 23.8504 41.3691 24.1576 40.6 24.1576C39.8309 24.1576 39.0932 23.8504 38.5494 23.3036C38.0055 22.7568 37.7 22.0152 37.7 21.2419Z" fill="#97CBE0"/>
</svg>
