<svg width="44" height="44" viewBox="0 0 44 44" fill="none" xmlns="http://www.w3.org/2000/svg">
<path d="M0.3125 2.08372C0.3125 1.70358 0.463516 1.33901 0.732327 1.0702C1.00114 0.801402 1.36572 0.650391 1.74588 0.650391H6.04601C6.36574 0.650479 6.67627 0.757463 6.9282 0.954328C7.18013 1.15119 7.35901 1.42664 7.43639 1.73686L8.59742 6.38372H41.8805C42.0909 6.38392 42.2988 6.43046 42.4892 6.52004C42.6797 6.60961 42.848 6.74003 42.9824 6.90203C43.1168 7.06402 43.2138 7.25362 43.2666 7.45734C43.3194 7.66107 43.3268 7.87392 43.288 8.08079L38.9879 31.0141C38.9264 31.3426 38.7521 31.6392 38.4951 31.8528C38.2381 32.0664 37.9145 32.1834 37.5803 32.1837H11.7795C11.4453 32.1834 11.1218 32.0664 10.8648 31.8528C10.6078 31.6392 10.4334 31.3426 10.3719 31.0141L6.07468 8.12379L4.92798 3.51706H1.74588C1.36572 3.51706 1.00114 3.36605 0.732327 3.09724C0.463516 2.82844 0.3125 2.46387 0.3125 2.08372ZM14.6463 32.1837C13.1257 32.1837 11.6673 32.7878 10.5921 33.863C9.51683 34.9382 8.91277 36.3965 8.91277 37.9171C8.91277 39.4376 9.51683 40.8959 10.5921 41.9711C11.6673 43.0463 13.1257 43.6504 14.6463 43.6504C16.1669 43.6504 17.6252 43.0463 18.7005 41.9711C19.7757 40.8959 20.3798 39.4376 20.3798 37.9171C20.3798 36.3965 19.7757 34.9382 18.7005 33.863C17.6252 32.7878 16.1669 32.1837 14.6463 32.1837ZM34.7136 32.1837C33.1929 32.1837 31.7346 32.7878 30.6594 33.863C29.5841 34.9382 28.9801 36.3965 28.9801 37.9171C28.9801 39.4376 29.5841 40.8959 30.6594 41.9711C31.7346 43.0463 33.1929 43.6504 34.7136 43.6504C36.2342 43.6504 37.6925 43.0463 38.7678 41.9711C39.843 40.8959 40.4471 39.4376 40.4471 37.9171C40.4471 36.3965 39.843 34.9382 38.7678 33.863C37.6925 32.7878 36.2342 32.1837 34.7136 32.1837ZM14.6463 35.0504C15.4066 35.0504 16.1358 35.3524 16.6734 35.89C17.211 36.4276 17.513 37.1568 17.513 37.9171C17.513 38.6773 17.211 39.4065 16.6734 39.9441C16.1358 40.4817 15.4066 40.7837 14.6463 40.7837C13.886 40.7837 13.1568 40.4817 12.6192 39.9441C12.0816 39.4065 11.7795 38.6773 11.7795 37.9171C11.7795 37.1568 12.0816 36.4276 12.6192 35.89C13.1568 35.3524 13.886 35.0504 14.6463 35.0504ZM34.7136 35.0504C35.4739 35.0504 36.203 35.3524 36.7407 35.89C37.2783 36.4276 37.5803 37.1568 37.5803 37.9171C37.5803 38.6773 37.2783 39.4065 36.7407 39.9441C36.203 40.4817 35.4739 40.7837 34.7136 40.7837C33.9533 40.7837 33.2241 40.4817 32.6865 39.9441C32.1488 39.4065 31.8468 38.6773 31.8468 37.9171C31.8468 37.1568 32.1488 36.4276 32.6865 35.89C33.2241 35.3524 33.9533 35.0504 34.7136 35.0504Z" fill="#A5DEE4"/>
</svg>
