<?xml version="1.0" encoding="utf-8"?>
<!-- Generator: Adobe Illustrator 24.1.0, SVG Export Plug-In . SVG Version: 6.00 Build 0)  -->
<svg version="1.1" id="_x32_" xmlns="http://www.w3.org/2000/svg" xmlns:xlink="http://www.w3.org/1999/xlink" x="0px" y="0px"
	 viewBox="0 0 512 512" style="enable-background:new 0 0 512 512;" xml:space="preserve">
<style type="text/css">
	.st0{fill:#16355A;}
</style>
<g>
	<path class="st0" d="M493.3,186.6c-2.7-7.8-7-14.2-11.7-20c-3.5-4.3-7.2-8.3-11-12c-5.6-5.6-11-10.8-15.4-15.7s-7.7-9.4-9.3-13.2
		c-1.6-3.6-3.5-8.3-5.9-13.7c-4.1-9.5-9.4-21.2-16.6-33.4c-5.4-9.1-11.8-18.6-19.6-27.7c-11.7-13.6-26.5-26.5-45.2-35.9
		C340,5.8,317.4,0,291.1,0c-26.8,0-49.6,5.9-68.4,15.6c-14.1,7.2-26.1,16.4-36,26.5c-15,15-25.6,31.8-33.6,47c-4,7.6-7.2,14.7-10,21
		c-2.7,6.3-5,11.8-6.8,15.8c-1.6,3.8-5,8.4-9.5,13.4c-3.4,3.7-7.4,7.6-11.6,11.8c-6.2,6.2-12.9,12.8-18.5,20.8
		c-2.8,4-5.3,8.3-7.2,13.2c-1.9,4.9-3.1,10.3-3,16.1c0,4.1,0.6,8.3,1.8,12.4c1.2,4.1,3,8.2,5.4,12.2c2.6,4.4,5.7,8.3,9.2,11.5
		c5.3,4.8,11.5,8.1,17.6,10c6.2,1.9,12.4,2.5,18.3,2.5c5.6,0,11-0.6,16.2-1.3c7.8-1.2,15.2-2.8,21.7-4c6.5-1.3,12.3-2.1,16.2-2.1
		c2.5,0,4.1,0.3,4.7,0.6l-1.3-0.5l1.3,0.5c0.8,0.3,1.7,0.7,2.5,1c0.2,0.5,0.5,1,0.8,1.5c7.4,11.8,10.8,24.4,10.8,37.5
		c0,14.5-4.3,29.6-13.1,44.3c-7,11.8-16.9,23.2-29.5,33.3c5.5,6,10.9,12.1,16.1,18c1.3,1.5,2.6,2.9,3.8,4.3
		c14.6-12,26.5-25.6,35.2-40.3c10.9-18.3,17-38.3,17.3-58.3c0-0.4,0-0.9,0-1.3c0-5.8-0.5-11.5-1.5-17.3c0.9,0.4,1.9,0.8,2.8,1.2
		c2.5,1,5.1,2,7.8,2.8c0.6,4.5,1.1,9.2,1.5,14l0,0c0.9,9.6,1.4,19.9,1.4,30.4c0,18.5-1.6,38-5.6,56.3c-3,13.8-7.2,27-13.1,38.9
		c-2.2,4.5-4.6,8.7-7.2,12.8l25.3,16c0.7-1.1,1.4-2.2,2-3.2c11.1-18.2,18.1-38.5,22.5-59.2c4.4-20.6,6-41.7,6-61.6
		c0-13.6-0.8-26.6-2-38.7c3.1,0.2,6.2,0.3,9.5,0.3s6.4-0.1,9.5-0.3c0.5,35,3.3,65.2,8,91.2c3.6,20.6,8.5,38.6,14.2,54.4
		c1.3,3.7,2.7,7.2,4.1,10.6c-2.7,2.3-5.7,4.5-8.8,6.5c-5.5,3.6-11.7,6.8-18.6,9.6c-9.6,3.8-18.1,5.4-26.1,5.4
		c-5.5,0-10.8-0.8-15.9-2.2c-2.1-0.6-4.3-1.3-6.4-2.1c-1.4-0.5-2.7-1.1-4.1-1.7c-5-2.2-10-5-14.9-8.4c-3.5-2.4-6.9-5-10.4-7.8
		c-2.7-2.2-5.4-4.6-8.1-7c-4.8-4.5-9.6-9.3-14.4-14.3c-3.8-3.9-7.5-8.1-11.3-12.2c-2.4-2.7-4.8-5.3-7.1-8
		c-6.6-7.5-13.3-15.1-20-22.5c-2.5-2.7-4.9-5.3-7.4-7.9c-1.2-1.2-2.3-2.4-3.5-3.5c-8.5-8.6-17.4-16.6-26.9-23.2
		s-19.9-11.9-31.2-14.6c-8-1.9-16.1,3-18,11.1c-1.9,8,3,16.1,11.1,18c5.9,1.4,12,4.2,18.3,8.2c6.7,4.2,13.5,10,20.5,16.6
		c2.9,2.8,5.8,5.7,8.8,8.8c-2.8,0.8-5.5,1.5-8.4,2.1c-1.3,0.3-2.5,0.5-3.8,0.7c-7.9,1.5-15.9,2.3-24,2.9c-7,0.5-14,1-20.9,1.7
		c-5.2,0.5-10.4,1.2-15.6,2.3c-7.7,1.6-15.6,4.2-22.8,8.7c-3.6,2.3-7.1,5-10.2,8.3s-5.9,7-8.3,11.2c-4.1,7.2-1.6,16.3,5.6,20.4
		s16.3,1.6,20.4-5.6c1.9-3.4,4-5.6,6.3-7.5c2.1-1.6,4.5-2.9,7.5-4c5.2-2,12.2-3.2,20.6-4c12.6-1.3,28-1.6,44.9-4.5
		c6.4-1.1,13-2.6,19.7-4.7c2.1-0.7,4.3-1.4,6.4-2.2c1.4-0.5,2.9-1.1,4.4-1.7c2.5,2.8,4.9,5.6,7.4,8.4c1.3,1.5,2.7,3,4,4.5
		c8.2,9.1,16.7,18.3,25.8,26.8c2.7,2.5,5.4,5,8.3,7.4c-3.1,2-6.3,4-9.7,5.7c-1.9,1-3.9,1.9-5.9,2.8c-14.5,6.3-32.3,10.2-54.4,10.2
		c-8.5,0-17.7-0.6-27.6-1.8c-8.2-1-15.7,4.8-16.7,13c-1,8.2,4.8,15.7,13,16.7c11,1.4,21.4,2,31.3,2c15.1,0,29-1.6,41.8-4.5
		c16.9-4,31.8-10.5,44.5-19c3.3-2.1,6.4-4.5,9.4-6.9c3.4,1.9,6.9,3.6,10.4,5.2c1.7,0.8,3.5,1.5,5.2,2.2c10.1,3.8,21,6,32.5,6
		c11.9,0,24.4-2.4,37.2-7.5c7.6-3,14.7-6.6,21.3-10.7c3.1-1.9,6-3.9,8.9-6c1.4,2.2,2.7,4.4,4.1,6.4c0.6,0.9,1.2,1.7,1.7,2.5
		c7.4,10.5,15.5,19.2,23.9,26.1c9.1,7.5,18.6,13.1,28,17c7.6,3.1,16.4-0.5,19.5-8.2c3.1-7.6-0.5-16.4-8.1-19.5
		c-9-3.7-18.2-9.5-27.1-18.5c-4.8-4.8-9.5-10.6-14.1-17.5c-1.8-2.8-3.7-5.7-5.4-8.9c-0.1-0.3-0.3-0.5-0.4-0.8
		c-5.1-9.2-9.9-20.1-14.1-32.9c-1.7-4.9-3.2-10.2-4.7-15.7c-1.5-5.6-2.9-11.4-4.1-17.6c-5.6-27.3-9.1-60.7-9.4-101.3
		c6.2-2,11.7-4.3,16.8-6.8c9.2,27,14.7,55.1,14.7,80.8c0,11.9-1.1,23.2-3.5,33.8c-0.9,4-2,7.8-3.2,11.6l0,0
		c4,14.4,8.9,27.3,14.6,38.4c5-7.7,9-15.8,12.1-24.3c7-18.7,10-38.9,10-59.5c0-31.8-7-64.8-18.2-95.9c0.1-0.1,0.2-0.1,0.3-0.2
		c3.8-2.2,7.3-3.9,10.6-5.1c0.6-0.2,2.2-0.6,4.7-0.6c2.6,0,6,0.3,9.9,1c5.9,0.9,12.9,2.5,20.4,3.9s15.5,2.6,23.8,2.6
		c4,0,8-0.3,12.1-1c6.2-1.1,12.5-3.3,18.3-7.2c5.8-3.8,10.9-9.2,14.8-15.8c2.3-4,4.2-8.1,5.4-12.2c1.2-4.1,1.8-8.3,1.8-12.4
		C495.7,195.9,494.8,191,493.3,186.6z M234.9,162.8c-11.4,0-20.7-9.3-20.7-20.8c0-11.4,9.3-20.7,20.7-20.7
		c11.5,0,20.8,9.3,20.8,20.7C255.6,153.5,246.3,162.8,234.9,162.8z M342.5,162.8c-11.5,0-20.7-9.3-20.7-20.8
		c0-11.4,9.3-20.7,20.7-20.7c11.5,0,20.8,9.3,20.8,20.7C363.2,153.5,353.9,162.8,342.5,162.8z"/>
</g>
</svg>
