<?xml version="1.0" encoding="utf-8"?>
<!-- Generator: Adobe Illustrator 24.1.0, SVG Export Plug-In . SVG Version: 6.00 Build 0)  -->
<svg version="1.1" id="_x32_" xmlns="http://www.w3.org/2000/svg" xmlns:xlink="http://www.w3.org/1999/xlink" x="0px" y="0px"
	 viewBox="0 0 512 512" style="enable-background:new 0 0 512 512;" xml:space="preserve">
<style type="text/css">
	.st0{fill:#16355A;}
</style>
<g>
	<path class="st0" d="M273.2,61.9c0,4.8,3.9,8.6,8.6,8.6c4.8,0,8.6-3.9,8.6-8.6c0-4.8-3.9-8.6-8.6-8.6
		C277,53.2,273.2,57.1,273.2,61.9z"/>
	<path class="st0" d="M358.9,186.3c-5.2-7.8-38.4-57.1-41.7-63.8c-3.7-7.4-9.5-17-13.6-14.8c-11.8,2.5-24.6,3.1-43-13.6
		c-20.3-18.4-20.3-51.5,9.7-62.2c25.8-9.2,49.3,23.5,41.9,36.4c-7,12.2-2.4,27,11.1,23.6c10-8.3,21.1-13.1,31.3-14.4
		c15.6-1.9,41.5,16.6,41.5,5.5s-30.4-33.2-52.5-38.7s-26.7-47-84.8-44.2c-41.4,2-68.2,44.2-66.4,92.2c0.7,17.9-9,41.9-19.6,73.4
		c-16,47.5-38.3,80.8-69.7,123.4c-31.3,42.3-42.7,72.1-20.4,77.8c13.7,3.4,47.6-17.1,77.8-53.7c-3.7,51.8,1.9,48.1-5.6,62.9
		c-19.8,39.6-13,53.7,24.1,51.8c1.7-0.1,11.7,13.2,15,16.8c-16.3,3.7-34.9,8.1-39.3,9.6c-8.1,2.7-8.6,14.8,4.4,13.5
		c13.1-1.3,17.5,7.7,5.8,13.1s-7.2,17.9,5.5,10.9c14.2-7.8,18.8-0.9,13.3,5.4c-7.6,8.9,2.2,20.3,9.9,11.8c7.7-8.5,35.4-39,43.9-48.9
		c3.4-4,3.8-10.6,0.9-15.6c4.8-2.1,9.1-4.9,12.1-8.5c12.3-14.8,39.5-8.6,44.4,1.2c2.4,4.8,10.4,8.3,19.5,9.7
		c-1.6,4.5-0.8,9.8,2,13.2c8.5,9.9,36.2,40.4,43.9,48.9c7.7,8.5,17.5-2.9,9.9-11.8c-5.4-6.3-0.9-13.3,13.3-5.4
		c12.7,7,17.3-5.5,5.5-10.9c-11.7-5.4-7.3-14.4,5.8-13.1c13.1,1.3,12.6-10.9,4.4-13.5c-5.9-1.9-38-9.3-54.9-13.1
		c1.2-0.6,2.4-1.3,3.6-2.2c12.4-9,37-32.6,35.1-123.4c24.9,27.3,49.9,53.1,56.8,22C448.2,300.4,404.8,272.5,358.9,186.3z
		 M277.1,409.5c-65.4,0-68.5-37.4-68.5-101.8s30.7-116.6,68.5-116.6s68.5,52.2,68.5,116.6S342.4,409.5,277.1,409.5z"/>
</g>
</svg>
