<svg width="360" height="341" viewBox="0 0 360 341" fill="none" xmlns="http://www.w3.org/2000/svg">
<g clip-path="url(#clip0_223_3921)">
<path d="M71.52 266.224L63.744 263.104C61.392 267.664 54.336 275.824 49.44 278.368C48.768 278.752 47.52 278.944 47.52 278.944L49.44 285.472C50.832 285.088 52.128 283.36 52.512 279.808H49.92V280.384C56.928 277.312 66.096 271.072 70.176 266.512L68.592 266.848C70.32 267.424 71.28 266.896 71.52 266.224ZM48.672 279.04L50.112 284.56C64.8 282.496 76.512 280.48 83.568 278.896V278.128C68.976 278.704 54.576 279.088 48.672 279.04ZM79.344 302.464H55.344V303.808H79.344V302.464ZM76.176 288.496H76.704V307.84H77.712C79.632 307.84 82.608 306.784 82.704 306.448V291.04C83.808 290.8 84.528 290.32 84.864 289.888L78.96 285.376L76.176 288.496ZM58.368 306.256V289.888H79.296V288.496H58.704L52.464 286.048V308.176H53.328C55.776 308.176 58.368 306.832 58.368 306.256ZM73.296 270.4L72.864 270.784C76.896 274.24 81.6 279.856 83.28 284.704C89.472 288.448 92.784 275.392 73.296 270.4ZM143.52 273.952L140.544 278.896H132.864V280.24H147.408C148.128 280.24 148.608 280 148.752 279.472C146.928 277.312 143.52 273.952 143.52 273.952ZM136.848 265.072L129.504 264.256V300.832C129.504 304.96 130.944 306.112 135.648 306.112H139.824C147.168 306.112 149.424 305.056 149.424 302.656C149.424 301.648 148.944 300.976 147.408 300.304L147.216 293.2H146.688C145.92 296.128 145.056 299.056 144.48 299.968C144.144 300.448 143.712 300.592 143.232 300.64C142.656 300.64 141.6 300.688 140.304 300.688H136.992C135.552 300.688 135.12 300.304 135.12 299.248V266.368C136.32 266.176 136.752 265.696 136.848 265.072ZM104.64 301.024L107.472 308.128C108.048 307.984 108.576 307.504 108.864 306.88C117.792 303.04 123.84 300.064 127.728 297.808L127.632 297.28C118.08 299.008 108.48 300.592 104.64 301.024ZM124.368 264.976L117.072 264.304V300.64H118.128C120.24 300.64 122.64 299.44 122.64 298.912V266.368C123.936 266.176 124.272 265.648 124.368 264.976ZM121.008 278.848H105.744L106.176 280.192H121.008V278.848ZM197.904 275.872H198.48C198.048 292.864 197.28 300.832 195.6 302.464C195.12 302.848 194.688 303.04 193.92 303.04C192.96 303.04 190.704 302.848 189.216 302.752V303.424C190.896 303.808 192.048 304.336 192.72 305.104C193.296 305.824 193.44 306.928 193.44 308.32C195.936 308.32 198.048 307.888 199.584 306.304C202.176 303.712 203.04 297.088 203.472 278.08C204.576 277.936 205.2 277.648 205.584 277.216L200.736 272.992L197.904 275.872ZM187.152 275.872L180.96 272.848C180.48 279.568 178.704 293.248 177.36 299.056L178.8 297.28C177.84 297.616 176.64 298.288 175.968 298.912L181.008 301.888L182.976 299.488H182.544C183.744 293.248 185.472 281.056 186.048 275.536L185.472 275.872H187.152ZM187.584 289.408L187.104 289.696C188.496 291.328 189.984 294.064 190.224 296.32C194.064 299.344 198.192 291.808 187.584 289.408ZM188.208 278.848L187.728 279.136C189.024 280.72 190.608 283.264 191.04 285.376C194.832 288.112 198.432 280.912 188.208 278.848ZM204.48 294.64L202.368 298.144H180.624V299.488H207.12C207.744 299.488 208.224 299.248 208.368 298.72C206.976 297.088 204.48 294.64 204.48 294.64ZM189.84 265.456L182.304 263.344C181.152 269.44 178.368 276.928 175.104 281.2L175.536 281.584C181.056 277.888 185.472 271.648 188.016 266.032C189.264 266.224 189.648 265.984 189.84 265.456ZM205.344 283.408L203.04 287.152H174.096L174.48 288.496H208.032C208.704 288.496 209.184 288.256 209.28 287.728C207.936 286 205.344 283.408 205.344 283.408ZM203.088 265.696L200.16 269.632H183.168V270.976H206.976C207.648 270.976 208.176 270.736 208.32 270.208C206.352 268.336 203.088 265.696 203.088 265.696ZM200.304 275.872H183.84V277.264H200.304V275.872ZM166.224 293.824C165.696 293.824 164.064 293.824 164.064 293.824V294.736C165.12 294.832 165.888 295.072 166.56 295.504C167.664 296.272 167.904 300.832 166.992 305.824C167.328 307.648 168.432 308.32 169.488 308.32C171.792 308.32 173.328 306.736 173.376 304.336C173.52 300.064 171.6 298.24 171.552 295.696C171.504 294.4 171.84 292.72 172.176 291.04C172.752 288.4 175.68 277.264 177.408 271.216L176.592 271.024C168.528 290.992 168.528 290.992 167.616 292.816C167.088 293.824 166.896 293.824 166.224 293.824ZM163.584 274.912L163.2 275.2C164.688 276.784 166.32 279.28 166.752 281.584C171.552 284.848 175.824 275.776 163.584 274.912ZM166.944 263.728L166.56 264.064C168.144 265.792 169.968 268.528 170.448 271.072C175.488 274.528 180 265.024 166.944 263.728ZM222.72 304.528L223.104 305.92H266.4C267.168 305.92 267.648 305.68 267.792 305.152C265.44 303.088 261.504 300.16 261.504 300.16L258.048 304.528H222.72ZM228.432 288.736L228.816 290.08H262.368C263.04 290.08 263.568 289.84 263.712 289.312C261.408 287.392 257.568 284.56 257.568 284.56L254.208 288.736H228.432ZM231.408 275.104L230.688 276.448H263.712C264.48 276.448 264.96 276.256 265.104 275.728C262.752 273.664 259.056 271.024 259.056 271.024L255.744 275.104H231.408ZM241.968 263.536V305.296H248.16V265.648C249.456 265.456 249.84 264.976 249.936 264.256L241.968 263.536ZM231.216 264.928C229.584 273.616 225.936 282.304 222.288 287.824L222.816 288.208C229.008 283.84 234 277.264 237.408 268.336C238.512 268.336 239.136 267.904 239.328 267.328L231.216 264.928ZM309.888 262.864L309.504 263.152C310.704 264.544 311.904 266.896 312 269.056C316.704 272.656 321.84 263.776 309.888 262.864ZM305.232 266.752H304.464C304.896 269.248 303.744 271.984 302.544 273.136C301.248 273.856 300.48 275.152 301.056 276.592C301.728 278.08 303.792 278.224 304.992 277.168C306.768 275.728 307.536 271.792 305.232 266.752ZM309.936 306.352V278.08H321.312V276.688H310.176L304.944 274.48V308.128H305.76C308.016 308.128 309.936 306.928 309.936 306.352ZM320.4 269.584H320.928C320.832 271.168 320.64 274.096 320.496 275.632L320.976 275.968C322.512 274.912 324.72 273.136 326.064 271.936C326.976 271.888 327.504 271.792 327.888 271.36L323.136 266.848L320.4 269.584ZM318.96 292.144H319.392V307.36H320.256C321.888 307.36 324.288 306.304 324.336 305.92V294.208C325.248 294.016 325.872 293.68 326.112 293.344L321.264 289.648L318.96 292.144ZM322.128 302.08H307.152V303.424H322.128V302.08ZM322.176 292.144H307.152V293.488H322.176V292.144ZM317.184 276.688H317.664V289.072H318.528C320.064 289.072 322.56 288.208 322.608 287.92V278.752C323.472 278.608 324.096 278.224 324.336 277.888L319.536 274.24L317.184 276.688ZM320.832 285.376H307.104V286.72H320.832V285.376ZM322.512 269.584H304.848V270.928H322.512V269.584ZM294.432 272.128L292.272 274.96H287.904L288.288 276.352H297.216C297.888 276.352 298.368 276.112 298.464 275.584C296.976 274.144 294.432 272.128 294.432 272.128ZM293.952 294.832L293.472 295.12C295.152 297.568 297.024 301.216 297.456 304.336C302.064 308.032 306.624 298.672 293.952 294.832ZM289.92 281.104H298.128V279.856H290.112L284.928 277.792V281.728H289.92V281.104ZM283.968 302.608L286.128 307.504C291.12 304.048 295.44 300.496 297.648 298.768L297.456 298.192C291.888 300.16 286.272 301.984 283.968 302.608ZM288.672 280.24H284.928V300.496C284.928 301.552 284.688 301.936 283.2 302.8L286.08 308.224C287.184 307.648 288.576 305.872 287.904 302.752L285.792 304.48L289.92 302.896V280.96L288.672 280.24ZM297.984 291.088H287.52V292.432H297.984V291.088ZM298.176 285.328H287.52V286.672H298.176V285.328ZM294.768 279.856H295.2V293.872H296.016C297.6 293.872 300.048 292.912 300.096 292.528V281.776C300.864 281.632 301.392 281.296 301.632 281.008L296.976 277.456L294.768 279.856ZM293.76 266.416L293.136 266.56C295.152 268.768 296.496 271.744 296.928 273.664C300.432 277.072 306.576 269.488 293.76 266.416ZM294.48 266.368C295.728 266.272 296.304 265.888 296.448 265.264L288.432 262.96C287.568 267.856 284.784 276.16 281.664 280.864L282.144 281.2C287.424 277.504 292.176 271.36 294.48 266.368Z" fill="white"/>
<path d="M151.871 75.952C129.871 103.552 124.704 135.785 124.871 148.452C126.371 150.453 130.371 149.451 134.871 148.452C138.386 147.672 154.371 141.785 161.871 138.451C167.871 135.251 185.704 128.785 193.871 125.951C211.871 119.951 231.704 119.451 239.371 119.951C242.171 119.951 241.204 118.618 240.371 117.951C218.771 99.5512 225.704 57.9517 231.871 39.452C233.071 31.052 223.704 32.6187 218.871 34.452C185.271 44.452 160.204 66.2854 151.871 75.952Z" fill="white"/>
<path d="M36.8709 154.944C34.4709 151.344 29.8709 146.111 27.8709 143.944C23.8709 140.745 27.2042 140.277 29.3709 140.443C34.8711 140.443 41.0376 147.276 44.8709 150.943C71.2709 173.743 114.871 170.109 133.371 165.443C165.371 157.37 180.371 148.95 215.871 137.95C281.371 125.953 299.371 136.109 308.871 140.443C319.671 144.443 312.038 144.777 306.871 144.444C243.671 139.644 225.871 152.943 210.871 159.944C204.071 165.144 179.038 175.111 167.371 179.444C144.171 191.844 105.038 192.277 88.3709 190.944C60.3709 186.944 43.8756 165.451 36.8709 154.944Z" fill="white"/>
<path d="M116.371 229.451C80.3711 226.951 66.7047 212.951 58.8714 201.951C53.871 195.951 55.8488 195.692 58.8714 196.951C64.8711 199.451 72.206 201.451 76.8726 202.451C119.371 209.951 136.538 207.118 148.871 201.951C164.871 195.951 193.538 185.284 207.371 178.951C227.371 169.795 245.038 165.285 254.871 163.451C265.271 161.051 281.871 160.451 288.871 160.451C302.471 160.051 322.205 165.285 330.371 167.951C337.571 171.551 331.371 171.118 327.371 170.451C324.171 169.651 303.705 169.451 293.871 169.451C274.371 169.451 256.871 175.951 237.871 186.451C222.863 194.745 190.038 209.784 171.371 217.451C152.571 225.851 126.871 228.951 116.371 229.451Z" fill="white"/>
</g>
<defs>
<clipPath id="clip0_223_3921">
<rect width="360" height="341" fill="white"/>
</clipPath>
</defs>
</svg>
