<svg width="13" height="16" viewBox="0 0 13 16" fill="none" xmlns="http://www.w3.org/2000/svg">
<path d="M8.82143 3.93815C8.82143 3.28536 8.57685 2.65931 8.1415 2.19772C7.70615 1.73612 7.11568 1.47681 6.5 1.47681C5.88432 1.47681 5.29385 1.73612 4.8585 2.19772C4.42315 2.65931 4.17857 3.28536 4.17857 3.93815C4.17857 4.59094 4.42315 5.21699 4.8585 5.67858C5.29385 6.14017 5.88432 6.39949 6.5 6.39949C7.11568 6.39949 7.70615 6.14017 8.1415 5.67858C8.57685 5.21699 8.82143 4.59094 8.82143 3.93815ZM2.78571 3.93815C2.78571 2.89369 3.17704 1.892 3.8736 1.15346C4.57017 0.414911 5.51491 0 6.5 0C7.48509 0 8.42983 0.414911 9.1264 1.15346C9.82296 1.892 10.2143 2.89369 10.2143 3.93815C10.2143 4.98261 9.82296 5.98429 9.1264 6.72284C8.42983 7.46138 7.48509 7.87629 6.5 7.87629C5.51491 7.87629 4.57017 7.46138 3.8736 6.72284C3.17704 5.98429 2.78571 4.98261 2.78571 3.93815ZM1.43058 14.2758H11.5694C11.3112 12.3282 9.73259 10.8299 7.82612 10.8299H5.17388C3.26741 10.8299 1.68884 12.3282 1.43058 14.2758ZM0 14.8388C0 11.8083 2.31563 9.3531 5.17388 9.3531H7.82612C10.6844 9.3531 13 11.8083 13 14.8388C13 15.3434 12.6141 15.7526 12.1382 15.7526H0.86183C0.385938 15.7526 0 15.3434 0 14.8388Z" fill="black"/>
</svg>
