<svg width="13" height="13" viewBox="0 0 13 13" fill="none" xmlns="http://www.w3.org/2000/svg">
<g clip-path="url(#clip0_37_943)">
<path d="M4.17857 3.39509V4.52679H8.82143V3.39509C8.82143 2.35299 7.78259 1.50893 6.5 1.50893C5.21741 1.50893 4.17857 2.35299 4.17857 3.39509ZM2.32143 4.52679V3.39509C2.32143 1.52072 4.19308 0 6.5 0C8.80692 0 10.6786 1.52072 10.6786 3.39509V4.52679H11.1429C12.1672 4.52679 13 5.20345 13 6.03571V10.5625C13 11.3948 12.1672 12.0714 11.1429 12.0714H1.85714C0.832812 12.0714 0 11.3948 0 10.5625V6.03571C0 5.20345 0.832812 4.52679 1.85714 4.52679H2.32143Z" fill="black"/>
</g>
<defs>
<clipPath id="clip0_37_943">
<rect width="13" height="12.0714" fill="white"/>
</clipPath>
</defs>
</svg>
