<svg width="75" height="66" viewBox="0 0 75 66" fill="none" xmlns="http://www.w3.org/2000/svg">
<g clip-path="url(#clip0_37_1067)">
<path d="M23.1845 18.2402C28.22 13.9863 35.0154 10.3125 43.1595 10.3125C51.3036 10.3125 58.0989 13.9863 63.1344 18.2402C68.1571 22.4941 71.7282 27.573 73.5394 31.1051C74.1431 32.291 74.1431 33.6961 73.5394 34.882C71.7282 38.4141 68.1571 43.493 63.1344 47.7469C58.0989 52.0137 51.3036 55.6875 43.1595 55.6875C35.0154 55.6875 28.22 52.0137 23.1845 47.7598C21.1036 45.9938 19.2666 44.0859 17.6995 42.2039L6.17694 48.9328C4.57123 49.8738 2.52878 49.616 1.20568 48.3012C-0.117418 46.9863 -0.387176 44.9496 0.537709 43.3254L6.421 33L0.537709 22.6746C-0.387176 21.0504 -0.104573 19.0137 1.21853 17.6988C2.54163 16.384 4.57123 16.1262 6.18978 17.0672L17.7123 23.809C19.2795 21.927 21.1164 20.0191 23.1974 18.2531L23.1845 18.2402ZM57.5466 33C57.5466 31.906 57.1135 30.8568 56.3426 30.0832C55.5717 29.3096 54.5262 28.875 53.436 28.875C52.3458 28.875 51.3002 29.3096 50.5294 30.0832C49.7585 30.8568 49.3254 31.906 49.3254 33C49.3254 34.094 49.7585 35.1432 50.5294 35.9168C51.3002 36.6904 52.3458 37.125 53.436 37.125C54.5262 37.125 55.5717 36.6904 56.3426 35.9168C57.1135 35.1432 57.5466 34.094 57.5466 33Z" fill="#16355A"/>
</g>
<defs>
<clipPath id="clip0_37_1067">
<rect width="74.362" height="66" fill="white"/>
</clipPath>
</defs>
</svg>
