<svg width="74" height="66" viewBox="0 0 74 66" fill="none" xmlns="http://www.w3.org/2000/svg">
<path d="M11.3955 28.8492L0 48.443V12.375C0 7.82461 3.68715 4.125 8.22222 4.125H23.3177C25.5017 4.125 27.5958 4.98867 29.1375 6.53555L32.542 9.95156C34.0837 11.4984 36.1778 12.3621 38.3618 12.3621H53.4444C57.9795 12.3621 61.6667 16.0617 61.6667 20.6121V24.7371H18.5C15.5708 24.7371 12.8729 26.2969 11.3955 28.8363V28.8492ZM14.9413 30.9246C15.6865 29.6484 17.0354 28.875 18.5 28.875H69.8889C71.3663 28.875 72.7153 29.6613 73.4476 30.9504C74.1799 32.2395 74.1799 33.8121 73.4347 35.0883L59.0458 59.8383C58.3135 61.1016 56.9646 61.875 55.5 61.875H4.11111C2.63368 61.875 1.28472 61.0887 0.552431 59.7996C-0.179861 58.5105 -0.179861 56.9379 0.565278 55.6617L14.9542 30.9117L14.9413 30.9246Z" fill="#16355A"/>
</svg>
