<svg width="75" height="66" viewBox="0 0 75 66" fill="none" xmlns="http://www.w3.org/2000/svg">
<g clip-path="url(#clip0_37_1060)">
<path d="M8.25641 8.25C3.70248 8.25 0 11.9496 0 16.5V24.75C0 25.8844 0.954647 26.7738 2.0254 27.1477C4.45072 27.9855 6.19231 30.293 6.19231 33C6.19231 35.707 4.45072 38.0145 2.0254 38.8523C0.954647 39.2262 0 40.1156 0 41.25V49.5C0 54.0504 3.70248 57.75 8.25641 57.75H66.0513C70.6052 57.75 74.3077 54.0504 74.3077 49.5V41.25C74.3077 40.1156 73.353 39.2262 72.2823 38.8523C69.857 38.0145 68.1154 35.707 68.1154 33C68.1154 30.293 69.857 27.9855 72.2823 27.1477C73.353 26.7738 74.3077 25.8844 74.3077 24.75V16.5C74.3077 11.9496 70.6052 8.25 66.0513 8.25H8.25641ZM16.5128 22.6875V43.3125C16.5128 44.4469 17.4417 45.375 18.5769 45.375H55.7308C56.866 45.375 57.7949 44.4469 57.7949 43.3125V22.6875C57.7949 21.5531 56.866 20.625 55.7308 20.625H18.5769C17.4417 20.625 16.5128 21.5531 16.5128 22.6875ZM12.3846 20.625C12.3846 18.3434 14.2294 16.5 16.5128 16.5H57.7949C60.0783 16.5 61.9231 18.3434 61.9231 20.625V45.375C61.9231 47.6566 60.0783 49.5 57.7949 49.5H16.5128C14.2294 49.5 12.3846 47.6566 12.3846 45.375V20.625Z" fill="#16355A"/>
</g>
<defs>
<clipPath id="clip0_37_1060">
<rect width="74.3077" height="66" fill="white"/>
</clipPath>
</defs>
</svg>
