<svg width="58" height="66" viewBox="0 0 58 66" fill="none" xmlns="http://www.w3.org/2000/svg">
<path d="M28.875 33C33.2511 33 37.4479 31.2616 40.5423 28.1673C43.6366 25.0729 45.375 20.8761 45.375 16.5C45.375 12.1239 43.6366 7.92709 40.5423 4.83274C37.4479 1.73839 33.2511 0 28.875 0C24.4989 0 20.3021 1.73839 17.2077 4.83274C14.1134 7.92709 12.375 12.1239 12.375 16.5C12.375 20.8761 14.1134 25.0729 17.2077 28.1673C20.3021 31.2616 24.4989 33 28.875 33ZM22.984 39.1875C10.2867 39.1875 0 49.4742 0 62.1715C0 64.2855 1.71445 66 3.82852 66H53.9215C56.0355 66 57.75 64.2855 57.75 62.1715C57.75 49.4742 47.4633 39.1875 34.766 39.1875H22.984Z" fill="#16355A"/>
</svg>
