<svg width="61" height="62" viewBox="0 0 61 62" fill="none" xmlns="http://www.w3.org/2000/svg">
<g clip-path="url(#clip0_17_719)">
<path d="M46.1987 4.52351C45.8882 3.3026 44.8684 2.38299 43.6124 2.19858C42.3563 2.01417 41.1271 2.60889 40.4753 3.69158L37.4006 8.87686C34.0129 14.575 28.5014 18.6972 22.0751 20.3314L21.2517 20.5408L18.2231 21.3109L9.13724 23.6214C5.7963 24.471 3.77075 27.878 4.62033 31.2189L6.9308 40.3048C7.78038 43.6457 11.1874 45.6712 14.5283 44.8217L17.609 56.9361C18.035 58.6113 19.7325 59.6205 21.4077 59.1946L27.465 57.6542C29.1402 57.2282 30.1494 55.5307 29.7234 53.8555L26.6428 41.741L27.4662 41.5316C33.8925 39.8975 40.7037 40.8861 46.4018 44.2737L51.5776 47.3509C52.6698 48.0002 54.0314 47.926 55.0468 47.164C56.0622 46.4019 56.5212 45.1164 56.2083 43.886L52.6584 29.926C54.207 28.6455 54.9048 26.0799 54.2333 23.4393C53.5619 20.7987 51.7232 18.8782 49.7511 18.493L46.1987 4.52351ZM41.9875 13.323L45.1475 25.7498L48.3076 38.1766C41.4549 34.5283 33.4785 33.5538 25.9259 35.4744L25.1025 35.6838L22.792 26.598L23.6154 26.3886C31.168 24.468 37.71 19.8016 41.9875 13.323Z" fill="#16355A"/>
</g>
<defs>
<clipPath id="clip0_17_719">
<rect width="50" height="50" fill="white" transform="translate(0 13.0498) rotate(-14.2676)"/>
</clipPath>
</defs>
</svg>
