<svg width="69" height="69" viewBox="0 0 69 69" fill="none" xmlns="http://www.w3.org/2000/svg">
<path d="M34.5 0C15.4415 0 0 15.4415 0 34.5C0 53.5585 15.4415 69 34.5 69C53.5585 69 69 53.5585 69 34.5C69 15.4415 53.5585 0 34.5 0ZM45.629 23.371C48.0913 23.371 50.0806 25.3603 50.0806 27.8226C50.0806 30.2849 48.0913 32.2742 45.629 32.2742C43.1667 32.2742 41.1774 30.2849 41.1774 27.8226C41.1774 25.3603 43.1667 23.371 45.629 23.371ZM23.371 23.371C25.8333 23.371 27.8226 25.3603 27.8226 27.8226C27.8226 30.2849 25.8333 32.2742 23.371 32.2742C20.9087 32.2742 18.9194 30.2849 18.9194 27.8226C18.9194 25.3603 20.9087 23.371 23.371 23.371ZM50.4702 47.048C46.5054 51.8056 40.6905 54.5323 34.5 54.5323C28.3095 54.5323 22.4946 51.8056 18.5298 47.048C16.6379 44.7804 20.0601 41.9425 21.952 44.1962C25.0681 47.9383 29.631 50.0667 34.5 50.0667C39.369 50.0667 43.9319 47.9244 47.048 44.1962C48.9121 41.9425 52.3482 44.7804 50.4702 47.048Z" fill="#16355A"/>
</svg>
