<svg width="56" height="90" viewBox="0 0 56 90" fill="none" xmlns="http://www.w3.org/2000/svg">
<g clip-path="url(#clip0_1_38)">
<path d="M27.9998 8.4375C27.9998 6.19974 28.8848 4.05362 30.4601 2.47129C32.0354 0.888948 34.1719 0 36.3998 0C38.6276 0 40.7642 0.888948 42.3395 2.47129C43.9148 4.05362 44.7998 6.19974 44.7998 8.4375C44.7998 10.6753 43.9148 12.8214 42.3395 14.4037C40.7642 15.9861 38.6276 16.875 36.3998 16.875C34.1719 16.875 32.0354 15.9861 30.4601 14.4037C28.8848 12.8214 27.9998 10.6753 27.9998 8.4375ZM22.1373 35.0332C21.9623 35.1035 21.8048 35.1738 21.6298 35.2441L20.2298 35.8594C17.3598 37.1426 15.1548 39.5859 14.1573 42.5742L13.7023 43.9453C12.7223 46.8984 9.55477 48.4805 6.61477 47.4961C3.67477 46.5117 2.09977 43.3301 3.07977 40.377L3.53477 39.0059C5.52977 33.0117 9.93977 28.125 15.6798 25.5586L17.0798 24.9434C20.7198 23.3262 24.6573 22.4824 28.6473 22.4824C36.4523 22.4824 43.4873 27.1934 46.4798 34.418L49.1748 40.9043L52.9198 42.7852C55.6848 44.1738 56.8048 47.5488 55.4223 50.3262C54.0398 53.1035 50.6798 54.2285 47.9148 52.8398L43.2248 50.5019C41.4223 49.5879 40.0048 48.0762 39.2348 46.1953L37.5548 42.1523L34.1773 53.666L42.8398 63.1582C43.7848 64.1953 44.4498 65.4434 44.7998 66.8145L48.8248 83.0039C49.5773 86.0098 47.7573 89.0684 44.7473 89.8242C41.7373 90.5801 38.7098 88.752 37.9573 85.7285L34.1073 70.2422L21.7348 56.6895C19.1448 53.8594 18.1823 49.9043 19.1623 46.1953L22.1198 35.0332H22.1373ZM12.0223 69.9609L16.3973 58.9922C16.7648 59.5195 17.1848 60.0117 17.6223 60.5039L24.7448 68.3086L22.2073 74.6719C21.7873 75.7266 21.1573 76.6934 20.3523 77.502L9.55477 88.3477C7.36727 90.5449 3.81477 90.5449 1.62727 88.3477C-0.560234 86.1504 -0.560234 82.582 1.62727 80.3848L12.0223 69.9609Z" fill="#16355A"/>
</g>
<defs>
<clipPath id="clip0_1_38">
<rect width="56" height="90" fill="white"/>
</clipPath>
</defs>
</svg>
