<svg width="35" height="35" viewBox="0 0 35 35" fill="none" xmlns="http://www.w3.org/2000/svg">
<circle cx="17.5" cy="17.5" r="17" stroke="black"/>
<path d="M26.4673 12.074C27.1701 11.3712 27.1701 10.2299 26.4673 9.5271C25.7645 8.8243 24.6231 8.8243 23.9203 9.5271L18 15.4531L12.074 9.53272C11.3712 8.82992 10.2299 8.82992 9.5271 9.53272C8.8243 10.2355 8.8243 11.3769 9.5271 12.0796L15.4531 18L9.53272 23.926C8.82992 24.6288 8.82992 25.7701 9.53272 26.4729C10.2355 27.1757 11.3769 27.1757 12.0796 26.4729L18 20.5469L23.926 26.4673C24.6288 27.1701 25.7701 27.1701 26.4729 26.4673C27.1757 25.7645 27.1757 24.6231 26.4729 23.9203L20.5469 18L26.4673 12.074Z" fill="black"/>
</svg>
