<svg width="18" height="18" viewBox="0 0 18 18" fill="none" xmlns="http://www.w3.org/2000/svg">
<path d="M12.325 13.275C12.1417 13.0583 12.05 12.8127 12.05 12.538C12.05 12.2633 12.1417 12.034 12.325 11.85L14.175 10H7C6.71667 10 6.479 9.904 6.287 9.712C6.095 9.52 5.99934 9.28267 6 9C6 8.71667 6.096 8.479 6.288 8.287C6.48 8.095 6.71734 7.99934 7 8H14.175L12.325 6.15C12.125 5.95 12.025 5.71234 12.025 5.437C12.025 5.16167 12.125 4.92434 12.325 4.725C12.5083 4.525 12.7377 4.425 13.013 4.425C13.2883 4.425 13.5173 4.51667 13.7 4.7L17.3 8.3C17.4 8.4 17.471 8.50834 17.513 8.625C17.555 8.74167 17.5757 8.86667 17.575 9C17.575 9.13334 17.5543 9.25834 17.513 9.375C17.4717 9.49167 17.4007 9.6 17.3 9.7L13.7 13.3C13.4833 13.5167 13.2457 13.6127 12.987 13.588C12.7283 13.5633 12.5077 13.459 12.325 13.275ZM2 18C1.45 18 0.979002 17.804 0.587002 17.412C0.195002 17.02 -0.000664969 16.5493 1.69779e-06 16V2C1.69779e-06 1.45 0.196002 0.979002 0.588002 0.587002C0.980002 0.195002 1.45067 -0.000664969 2 1.69779e-06H8C8.28334 1.69779e-06 8.521 0.0960018 8.713 0.288002C8.905 0.480002 9.00067 0.717335 9 1C9 1.28333 8.904 1.521 8.712 1.713C8.52 1.905 8.28267 2.00067 8 2H2V16H8C8.28334 16 8.521 16.096 8.713 16.288C8.905 16.48 9.00067 16.7173 9 17C9 17.2833 8.904 17.521 8.712 17.713C8.52 17.905 8.28267 18.0007 8 18H2Z" fill="white"/>
</svg>
