<svg width="18" height="20" viewBox="0 0 18 20" fill="none" xmlns="http://www.w3.org/2000/svg">
<path d="M12.2827 0.0211922C12.4608 0.0670683 12.6139 0.184005 12.7084 0.346296C12.8029 0.508586 12.8311 0.702944 12.7867 0.886643L12.4405 2.31478C12.4203 2.40762 12.3822 2.49535 12.3286 2.57281C12.275 2.65027 12.207 2.7159 12.1284 2.76585C12.0499 2.81579 11.9625 2.84904 11.8713 2.86363C11.7801 2.87823 11.687 2.87388 11.5975 2.85085C11.508 2.82781 11.4238 2.78655 11.35 2.72949C11.2761 2.67243 11.2141 2.60073 11.1675 2.51859C11.1209 2.43644 11.0907 2.34553 11.0787 2.25118C11.0666 2.15683 11.073 2.06095 11.0974 1.96917L11.4436 0.541034C11.4881 0.35736 11.6014 0.199421 11.7588 0.10194C11.9161 0.00445903 12.1046 -0.0245854 12.2827 0.0211922ZM16.4132 1.63784C16.543 1.77175 16.6159 1.95334 16.6159 2.14269C16.6159 2.33203 16.543 2.51363 16.4132 2.64753L15.0285 4.07567C14.9642 4.14206 14.8879 4.19474 14.8039 4.23071C14.7198 4.26668 14.6298 4.28522 14.5388 4.28529C14.4478 4.28536 14.3578 4.26694 14.2737 4.2311C14.1896 4.19525 14.1132 4.14268 14.0488 4.07638C13.9188 3.94249 13.8457 3.76082 13.8456 3.57133C13.8455 3.38184 13.9183 3.20006 14.0481 3.06598L15.4328 1.63784C15.4971 1.57134 15.5735 1.51858 15.6576 1.48259C15.7418 1.44659 15.8319 1.42806 15.923 1.42806C16.0141 1.42806 16.1042 1.44659 16.1883 1.48259C16.2725 1.51858 16.3489 1.57134 16.4132 1.63784ZM5.93121 17.1845C6.2787 17.7812 6.8255 18.2265 7.46886 18.4367C8.11222 18.6469 8.80787 18.6076 9.4251 18.3261C10.0423 18.0447 10.5387 17.5404 10.8209 16.9081C11.103 16.2758 11.1517 15.559 10.9576 14.8924L5.93121 17.1831V17.1845ZM4.65731 17.7644L3.27541 18.3956C2.91787 18.5585 2.52093 18.6061 2.13668 18.5322C1.75243 18.4583 1.39882 18.2663 1.12225 17.9814L0.568378 17.4116C0.292472 17.1283 0.10608 16.7656 0.0336748 16.371C-0.0387304 15.9765 0.00623583 15.5686 0.162669 15.2008L5.52273 2.62183C5.64973 2.32478 5.84496 2.0641 6.09153 1.86231C6.33811 1.66052 6.62862 1.52369 6.93795 1.46365C7.24729 1.40361 7.56615 1.42216 7.86697 1.5177C8.1678 1.61324 8.44154 1.7829 8.66455 2.01201L16.0476 9.60398C16.27 9.83279 16.435 10.1141 16.5282 10.4235C16.6214 10.7329 16.64 11.0611 16.5825 11.3796C16.5249 11.6981 16.3929 11.9974 16.1979 12.2514C16.0028 12.5054 15.7507 12.7065 15.4633 12.8373L12.2301 14.3111C12.5718 15.327 12.5307 16.4383 12.1149 17.4244C11.6991 18.4105 10.9389 19.1993 9.98535 19.6341C9.0318 20.0689 7.95458 20.118 6.96755 19.7716C5.98052 19.4253 5.15587 18.7088 4.65731 17.7644ZM17.3077 5.71231H15.923C15.7394 5.71231 15.5633 5.78755 15.4334 5.92146C15.3036 6.05537 15.2307 6.237 15.2307 6.42638C15.2307 6.61577 15.3036 6.79739 15.4334 6.9313C15.5633 7.06522 15.7394 7.14045 15.923 7.14045H17.3077C17.4913 7.14045 17.6674 7.06522 17.7972 6.9313C17.9271 6.79739 18 6.61577 18 6.42638C18 6.237 17.9271 6.05537 17.7972 5.92146C17.6674 5.78755 17.4913 5.71231 17.3077 5.71231Z" fill="white"/>
</svg>
