<svg width="33" height="33" viewBox="0 0 33 33" fill="none" xmlns="http://www.w3.org/2000/svg">
<path d="M4.125 25.4377V7.56272C4.125 7.05856 4.33125 6.67447 4.74375 6.41047C5.15625 6.14647 5.59167 6.1066 6.05 6.29085L27.225 15.2283C27.7979 15.4804 28.0844 15.9044 28.0844 16.5002C28.0844 17.0961 27.7979 17.52 27.225 17.7721L6.05 26.7096C5.59167 26.8929 5.15625 26.8526 4.74375 26.5886C4.33125 26.3246 4.125 25.941 4.125 25.4377ZM6.875 23.3752L23.1687 16.5002L6.875 9.62522V14.4377L15.125 16.5002L6.875 18.5627V23.3752ZM6.875 16.5002V9.62522V23.3752V16.5002Z" fill="#888888"/>
</svg>
