<svg width="1165" height="568" viewBox="0 0 1165 568" fill="none" xmlns="http://www.w3.org/2000/svg">
<path d="M275.501 300.5C283.476 292.697 287.877 287.211 291.001 276.5C293.322 268.538 294.276 262.456 292.968 255.5C292.551 253.285 291.905 250.981 291.001 248.5L340.001 202L458 234V255.5L307.501 430.5L263.501 446.5C263.501 446.5 222.611 430.622 200.001 414.5C193.297 409.721 183.405 401.5 183.405 401.5L173.501 393.742L170.001 391C170.001 391 166.617 388.633 163.001 385.087C159.231 381.391 155.209 376.414 154.501 371.5C153.302 363.187 155.954 357.714 161.001 351C166.634 343.505 173.08 342.625 181.501 338.5C195.811 331.491 205.394 331.571 220.501 326.5C224.288 325.229 228.693 323.681 233.001 322.139C243.012 318.556 252.501 315 252.501 315C252.501 315 267.911 307.925 275.501 300.5Z" fill="#E5F1FF"/>
<path d="M263.501 446.5C263.501 446.5 222.611 430.622 200.001 414.5C193.297 409.721 183.405 401.5 183.405 401.5M263.501 446.5V439M263.501 446.5L307.501 430.5M263.501 439L183.405 401.5M263.501 439L285.501 425.5L307.501 412M183.405 401.5L173.501 393.742L170.001 391C170.001 391 166.617 388.633 163.001 385.087C159.231 381.391 155.209 376.414 154.501 371.5C153.302 363.187 155.954 357.714 161.001 351C166.634 343.505 173.08 342.625 181.501 338.5C195.811 331.491 205.394 331.571 220.501 326.5C224.288 325.229 228.693 323.681 233.001 322.139C243.012 318.556 252.501 315 252.501 315C252.501 315 267.911 307.925 275.501 300.5C283.476 292.697 287.877 287.211 291.001 276.5C293.322 268.538 294.276 262.456 292.968 255.5C292.551 253.285 291.905 250.981 291.001 248.5L340.001 202L458 234M307.501 430.5L458 255.5V234M307.501 430.5V421.25V412M307.501 412L458 234" stroke="#163767" stroke-width="2"/>
<path d="M275.5 300.5C283.475 292.697 287.876 287.211 291 276.5C293.322 268.538 294.276 262.456 292.967 255.5C296.668 258.377 299.619 260.771 301.5 263.205C307.623 262.66 310.716 263.271 315 267.5C313.134 272.898 312.707 276.456 315 285.5C303.6 298.596 300.6 304.768 297.5 315C288.948 318.642 282.782 319.072 271.5 319.5V312.5L265 323L269 326.5H279.5L282 331L292.5 338.5V360.5C282.261 375.116 274.068 383.1 250 396.5C243.933 393.203 240.476 391.438 237.5 385.087C225.353 392.598 218.231 394.123 205.5 396.5L173.5 393.742L177.5 377.5C186.212 374.512 190.826 378.318 200 377.5C209.058 376.692 214.314 375.461 222.5 371.5C227.131 369.259 229.247 347.825 243.5 343C243.5 343 245.34 335.31 243.5 331C241.393 326.066 233 322.139 233 322.139C243.012 318.556 252.5 315 252.5 315C252.5 315 267.91 307.925 275.5 300.5Z" fill="#D9D9D9"/>
<path d="M374.5 447L282 489.5M282 489.5V475.5M282 489.5L263.5 484M282 475.5L367 434.5M282 475.5L263.5 470M367 425L358.5 423.5L263.5 470M263.5 470V484M263.5 470L187 439C187 439 150.026 421.857 136 401.5C127.009 388.451 124.346 378.589 121.5 363M263.5 484L143.5 444.5V422.5C143.5 422.5 143.459 422.105 143.351 421.5M128.5 439V419.5C128.5 419.5 130.56 415.474 133 414.5C135.952 413.323 138.648 413.862 141 416C142.427 417.298 143.087 420.024 143.351 421.5M128.5 439L143.351 421.5M128.5 439L120.5 436C120.5 436 121.5 391.118 121.5 363M121.5 363C124.441 353.326 125.4 346.354 143.5 331C156.886 319.645 183.5 310.5 183.5 310.5C183.5 310.5 212.444 305.496 228.5 296.5C239.676 290.238 250.108 288.534 254.5 276.5C257.312 268.796 257.9 262.963 254.5 255.5C250.63 247.006 235.5 241 235.5 241L211 231.5L235.5 208C235.5 208 258.943 216.19 271 226C280.119 233.42 286.974 237.455 291 248.5M291 248.5L340 202L458 234M291 248.5C291.904 250.981 292.551 253.285 292.967 255.5M263.5 446.5C263.5 446.5 222.61 430.622 200 414.5C193.297 409.721 183.404 401.5 183.404 401.5M263.5 446.5V439M263.5 446.5L307.5 430.5M263.5 439L183.404 401.5M263.5 439L285.5 425.5L307.5 412M183.404 401.5L173.5 393.742M307.5 430.5L458 255.5V234M307.5 430.5L412.5 366.654M307.5 430.5V421.25V412M307.5 412L458 234M388 442C392.579 439.234 393.477 437.561 393.5 434.5M444 347.5L498.598 274.106M444 347.5L430 343L412.5 360.5M444 347.5L419 362.701M498.598 274.106L505 265.5H497L451 293.5L498.598 274.106ZM412.5 360.5L419 362.701M412.5 360.5V366.654M419 362.701L412.5 366.654M163 385.087C159.231 381.391 155.209 376.414 154.5 371.5C153.301 363.187 155.954 357.714 161 351C166.634 343.505 173.079 342.625 181.5 338.5C195.811 331.491 205.393 331.571 220.5 326.5C224.287 325.229 228.692 323.681 233 322.139M163 385.087C166.616 388.633 170 391 170 391L173.5 393.742M163 385.087C163 385.087 171.383 379.597 177.5 377.5M177.5 377.5C186.212 374.512 190.826 378.318 200 377.5C209.058 376.692 214.314 375.461 222.5 371.5C227.131 369.259 229.247 347.825 243.5 343C243.5 343 245.34 335.31 243.5 331C241.393 326.066 233 322.139 233 322.139M177.5 377.5L173.5 393.742M233 322.139C243.012 318.556 252.5 315 252.5 315C252.5 315 267.91 307.925 275.5 300.5C283.475 292.697 287.876 287.211 291 276.5C293.322 268.538 294.276 262.456 292.967 255.5M292.967 255.5C296.668 258.377 299.619 260.771 301.5 263.205M301.5 276.5C304.752 270.732 304.373 266.921 301.5 263.205M173.5 393.742L205.5 396.5C218.231 394.123 225.353 392.598 237.5 385.087C240.476 391.438 243.933 393.203 250 396.5C274.068 383.1 282.261 375.116 292.5 360.5V338.5L282 331L279.5 326.5H269L265 323L271.5 312.5V319.5C282.782 319.072 288.948 318.642 297.5 315C300.6 304.768 303.6 298.596 315 285.5C312.707 276.456 313.134 272.898 315 267.5C310.716 263.271 307.623 262.66 301.5 263.205M380 403H392.5V420.5C392.5 420.5 398.412 425.859 399.5 430.5C400.168 433.352 400.465 435.235 399.5 438C398.227 441.65 396.053 443.477 392.5 445C388.731 446.615 381 445 381 445C381 445 374.105 442.32 372.5 438C371.48 435.254 371.808 433.346 372.5 430.5C373.654 425.757 380 420.5 380 420.5V403Z" stroke="#163767" stroke-width="2"/>
<path d="M343.494 235.501C332.994 233.501 335.882 231.36 330.994 232.501C324.661 233.98 319.994 245.001 319.994 245.001C319.994 245.001 318.498 253.813 321.996 256.931C326 260.5 321.668 267.169 333.996 266.931C346.324 266.694 362.494 262.501 362.494 262.501C362.494 262.501 370.692 260.69 372.994 257.001C372.994 257.001 376.385 248.792 372.994 238.501C372.383 236.647 370.666 236.509 368.994 235.501C360.463 230.363 353.993 237.501 343.494 235.501Z" fill="#D9D9D9" stroke="#163767" stroke-width="2"/>
<path d="M163.506 208V206.722L168.307 201.466C168.87 200.85 169.334 200.315 169.699 199.861C170.063 199.402 170.333 198.971 170.509 198.568C170.688 198.161 170.778 197.735 170.778 197.29C170.778 196.778 170.655 196.336 170.409 195.962C170.168 195.588 169.836 195.299 169.415 195.095C168.993 194.892 168.52 194.79 167.994 194.79C167.436 194.79 166.948 194.906 166.531 195.138C166.119 195.365 165.8 195.685 165.572 196.097C165.35 196.509 165.239 196.991 165.239 197.545H163.562C163.562 196.693 163.759 195.945 164.152 195.301C164.545 194.657 165.08 194.155 165.757 193.795C166.439 193.436 167.204 193.256 168.051 193.256C168.903 193.256 169.659 193.436 170.317 193.795C170.975 194.155 171.491 194.641 171.865 195.251C172.239 195.862 172.426 196.542 172.426 197.29C172.426 197.825 172.329 198.348 172.135 198.859C171.946 199.366 171.614 199.932 171.141 200.557C170.672 201.177 170.021 201.935 169.188 202.83L165.92 206.324V206.438H172.682V208H163.506ZM175.871 208V193.455H184.592V195.017H177.632V199.932H183.939V201.494H177.632V208H175.871Z" fill="#163767"/>
<path d="M497.506 44V42.7216L502.307 37.4659C502.87 36.8504 503.334 36.3153 503.699 35.8608C504.063 35.4015 504.333 34.9706 504.509 34.5682C504.688 34.161 504.778 33.7348 504.778 33.2898C504.778 32.7784 504.655 32.3357 504.409 31.9616C504.168 31.5876 503.836 31.2988 503.415 31.0952C502.993 30.8916 502.52 30.7898 501.994 30.7898C501.436 30.7898 500.948 30.9058 500.531 31.1378C500.119 31.3651 499.8 31.6847 499.572 32.0966C499.35 32.5085 499.239 32.9915 499.239 33.5455H497.562C497.562 32.6932 497.759 31.9451 498.152 31.3011C498.545 30.6572 499.08 30.1553 499.757 29.7955C500.439 29.4356 501.204 29.2557 502.051 29.2557C502.903 29.2557 503.659 29.4356 504.317 29.7955C504.975 30.1553 505.491 30.6406 505.865 31.2514C506.239 31.8622 506.426 32.5417 506.426 33.2898C506.426 33.8248 506.329 34.348 506.135 34.8594C505.946 35.366 505.614 35.9318 505.141 36.5568C504.672 37.1771 504.021 37.9347 503.188 38.8295L499.92 42.3239V42.4375H506.682V44H497.506ZM509.871 44V29.4545H518.592V31.017H511.632V35.9318H517.939V37.4943H511.632V44H509.871Z" fill="#163767"/>
<path d="M226.5 38.4996C229.857 34.8987 232.105 34.942 236 38.4996C232.792 41.6613 230.803 42.284 226.5 38.4996ZM226.5 38.4996L223 35.9996V40.9996L226.5 38.4996ZM242 35.4996C245.47 31.6031 247.774 31.6316 251.5 35.4996C247.494 39.9277 245.458 39.2787 242 35.4996ZM242 35.4996L238.5 33.4996V38.4996L242 35.4996ZM217 24.5C221.764 20.7525 224.49 18.8314 230.5 19C233.04 15.8917 235.106 15.272 239 14.5L236.5 19L245.5 22L258 19L249.5 24.5L253 31L246 27.5L238.5 27V29L232.5 27.5V29L229 28C229 28 223.856 28.7825 221 27.5C219.219 26.7 217 24.5 217 24.5Z" stroke="#163767"/>
<path d="M30 183V306.5L113 382.5" stroke="#163767"/>
<path d="M334.512 241.999C334.512 241.999 330.045 244.494 331.012 246.499C331.582 247.682 336.06 249.399 338.512 250.499C340.406 251.349 342.012 246.499 342.012 246.499M331.012 256.499C331.012 256.499 338.372 258.651 341.5 255.999C341.921 255.642 342.017 255.767 342.5 255.499C343.353 255.025 345 255.499 345 255.499M352 241.999C354.208 242.355 355.345 242.773 357 244.499M355.5 255C355.5 255 364.896 251.658 366 246.499C366.368 244.781 366 241.999 366 241.999" stroke="#163767"/>
<path d="M428.5 82.5V102.5" stroke="#163767" stroke-width="2"/>
<path d="M276.5 313C283.411 310.832 285.487 308.083 286.5 301M292 309C292.881 304.702 293.34 302.882 295 301M297.5 295.5C297.942 289.126 298.567 287.023 300 284.5M306 280.5C306 281.7 309.666 282.431 309.5 284.5C309.387 285.904 307.5 287.5 307.5 287.5" stroke="#163767"/>
<path d="M173.5 386.5C175 386.5 179 386.5 179 386.5C179 386.5 183.333 383.834 185 382.5C186.667 381.167 192 387.5 192 387.5M207 389.5C207 389.5 214.851 392.822 216 389.5C217.052 386.458 218.701 381.781 219.5 382.5M237.5 373C236.662 364.451 240 363 243.5 364M233 360.5C235.228 356.61 236.73 354.559 242.5 352.5M247.5 368.5C247.5 368.5 243.295 355.173 248.5 353.5M256.5 356.5C256.5 356.5 253.859 342.67 259 341.5C261.83 340.856 262.5 346 262.5 346M251.5 323C251.5 323 258.637 322.478 261 325.5C263.405 328.577 261 335.5 261 335.5M270.5 335.5C270.5 335.5 274.73 335.6 276 337.5C277.194 339.286 276 343 276 343M258.5 368C264.381 366.932 267.018 365.344 269 358.5M262.5 378.5C262.5 378.5 263.623 376.155 265 375.5C266.411 374.83 267.501 375.939 269 375.5C271.786 374.686 274 370 274 370M284.5 338.5C284.5 338.5 284.105 341.889 284.5 344M278.5 355C277.867 357.466 282.24 357.966 282 360.5C281.79 362.717 278.5 365 278.5 365" stroke="#163767"/>
<path d="M820.307 247.801C818.822 247.801 817.619 248.966 817.619 250.403C817.619 251.839 818.822 253.004 820.307 253.004C821.79 253.004 822.993 251.839 822.993 250.403C822.993 248.966 821.79 247.801 820.307 247.801Z" fill="#163767"/>
<path d="M836.695 247.801C835.212 247.801 834.008 248.966 834.008 250.403C834.008 251.839 835.212 253.004 836.695 253.004C838.18 253.004 839.383 251.839 839.383 250.403C839.383 248.966 838.18 247.801 836.695 247.801Z" fill="#163767"/>
<path d="M846.096 237.429H810.905C808.2 237.429 806 239.559 806 242.177V278.658C806 281.277 808.2 283.407 810.905 283.407H846.096C848.801 283.407 851 281.277 851 278.658V242.177C851 239.559 848.801 237.429 846.096 237.429ZM819.729 280.41C819.738 280.35 819.765 280.298 819.765 280.236L820.308 268.327L820.849 280.236C820.849 280.298 820.877 280.35 820.885 280.41H819.729ZM836.117 280.41C836.125 280.35 836.153 280.298 836.153 280.236L836.694 268.327L837.236 280.236C837.236 280.298 837.263 280.35 837.272 280.41H836.117ZM847.905 278.658C847.905 279.624 847.093 280.41 846.096 280.41H839.926C839.934 280.35 839.962 280.298 839.962 280.236L840.5 260.865L840.994 266.068C841.021 266.627 841.512 267.059 842.088 267.031C842.665 267.005 843.111 266.531 843.083 265.971V257.406C843.083 253.821 838.603 253.645 836.694 253.645C834.787 253.645 830.306 253.821 830.306 257.406V265.971C830.279 266.531 830.725 267.005 831.301 267.031C831.878 267.059 832.367 266.627 832.396 266.068L832.889 260.865L833.426 280.236C833.426 280.298 833.454 280.35 833.463 280.41H823.539C823.548 280.35 823.576 280.298 823.576 280.236L824.114 260.865L824.606 266.068C824.633 266.627 825.124 267.059 825.7 267.031C826.277 267.005 826.723 266.531 826.695 265.971V257.406C826.695 253.821 822.215 253.645 820.308 253.645C818.4 253.645 813.919 253.821 813.919 257.406V265.971C813.891 266.531 814.337 267.005 814.914 267.031C815.49 267.059 815.981 266.627 816.008 266.068L816.501 260.865L817.039 280.236C817.039 280.298 817.067 280.35 817.075 280.41H810.904C809.907 280.41 809.095 279.624 809.095 278.658V242.177C809.095 241.211 809.907 240.426 810.904 240.426H846.095C847.093 240.426 847.904 241.211 847.904 242.177L847.905 278.658Z" fill="#163767"/>
<path d="M832.33 229.623L836.008 226.062V234.067C836.008 234.797 836.619 235.389 837.373 235.389C838.127 235.389 838.738 234.797 838.738 234.067V226.062L842.417 229.623C842.683 229.881 843.032 230.01 843.382 230.01C843.731 230.01 844.082 229.881 844.348 229.623C844.882 229.107 844.882 228.269 844.348 227.752L838.339 221.935L837.373 221L836.408 221.935L830.399 227.752C829.866 228.269 829.866 229.107 830.399 229.623C830.932 230.139 831.797 230.139 832.33 229.623Z" fill="#163767"/>
<path d="M819.294 235.002L820.26 235.937L821.226 235.002L827.235 229.183C827.768 228.667 827.768 227.83 827.235 227.314C826.702 226.798 825.837 226.798 825.304 227.314L821.625 230.874V222.87C821.625 222.139 821.014 221.548 820.26 221.548C819.506 221.548 818.895 222.139 818.895 222.87V230.874L815.218 227.314C814.685 226.798 813.82 226.798 813.285 227.314C812.752 227.83 812.752 228.668 813.285 229.184L819.294 235.002Z" fill="#163767"/>
<path d="M575.305 288.802C573.82 288.802 572.617 289.967 572.617 291.404C572.617 292.84 573.82 294.005 575.305 294.005C576.789 294.005 577.992 292.84 577.992 291.404C577.992 289.967 576.789 288.802 575.305 288.802Z" fill="#163767"/>
<path d="M591.695 288.802C590.212 288.802 589.008 289.967 589.008 291.404C589.008 292.84 590.212 294.005 591.695 294.005C593.179 294.005 594.382 292.84 594.382 291.404C594.382 289.967 593.179 288.802 591.695 288.802Z" fill="#163767"/>
<path d="M601.096 278.429H565.905C563.2 278.429 561 280.559 561 283.177V319.658C561 322.277 563.2 324.407 565.905 324.407H601.096C603.801 324.407 606 322.277 606 319.658V283.177C606 280.559 603.801 278.429 601.096 278.429ZM574.729 321.41C574.738 321.35 574.765 321.298 574.765 321.236L575.308 309.327L575.849 321.236C575.849 321.298 575.877 321.35 575.885 321.41H574.729ZM591.117 321.41C591.125 321.35 591.153 321.298 591.153 321.236L591.694 309.327L592.236 321.236C592.236 321.298 592.263 321.35 592.272 321.41H591.117ZM602.905 319.658C602.905 320.624 602.093 321.41 601.096 321.41H594.926C594.934 321.35 594.962 321.298 594.962 321.236L595.5 301.865L595.994 307.068C596.021 307.627 596.512 308.059 597.088 308.031C597.665 308.005 598.111 307.531 598.083 306.971V298.406C598.083 294.821 593.603 294.645 591.694 294.645C589.787 294.645 585.306 294.821 585.306 298.406V306.971C585.279 307.531 585.725 308.005 586.301 308.031C586.878 308.059 587.367 307.627 587.396 307.068L587.889 301.865L588.426 321.236C588.426 321.298 588.454 321.35 588.463 321.41H578.539C578.548 321.35 578.576 321.298 578.576 321.236L579.114 301.865L579.606 307.068C579.633 307.627 580.124 308.059 580.7 308.031C581.277 308.005 581.723 307.531 581.695 306.971V298.406C581.695 294.821 577.215 294.645 575.308 294.645C573.4 294.645 568.919 294.821 568.919 298.406V306.971C568.891 307.531 569.337 308.005 569.914 308.031C570.49 308.059 570.981 307.627 571.008 307.068L571.501 301.865L572.039 321.236C572.039 321.298 572.067 321.35 572.075 321.41H565.904C564.907 321.41 564.095 320.624 564.095 319.658V283.177C564.095 282.211 564.907 281.426 565.904 281.426H601.095C602.093 281.426 602.904 282.211 602.904 283.177L602.905 319.658Z" fill="#163767"/>
<path d="M587.332 270.623L591.009 267.062V275.067C591.009 275.797 591.62 276.389 592.374 276.389C593.128 276.389 593.74 275.797 593.74 275.067V267.062L597.418 270.623C597.684 270.881 598.033 271.01 598.383 271.01C598.733 271.01 599.083 270.881 599.349 270.623C599.883 270.107 599.883 269.269 599.349 268.752L593.34 262.935L592.374 262L591.409 262.935L585.4 268.752C584.867 269.269 584.867 270.107 585.4 270.623C585.934 271.139 586.799 271.139 587.332 270.623Z" fill="#163767"/>
<path d="M574.295 276.002L575.261 276.937L576.227 276.002L582.236 270.184C582.769 269.668 582.769 268.83 582.236 268.314C581.703 267.798 580.838 267.798 580.305 268.314L576.626 271.874V263.87C576.626 263.14 576.015 262.548 575.261 262.548C574.507 262.548 573.896 263.14 573.896 263.87V271.875L570.219 268.314C569.686 267.798 568.821 267.798 568.286 268.314C567.753 268.83 567.753 269.668 568.286 270.184L574.295 276.002Z" fill="#163767"/>
<path d="M607.499 169.5V148.5L611.499 139L622.499 119.5L673.499 161V214V228.31V242.621L663.499 252V263.75L642.499 258.375L621.499 253C613.86 244.84 609.918 239.844 607.499 225.5V173.067C607.464 171.935 607.464 170.75 607.499 169.5Z" fill="#E6F1FF"/>
<path d="M918 489L886.5 481.5V461L918 468.5M918 489V468.5M918 489L961 447.5M918 468.5L961 426M961 426V447.5M961 426L1014.5 439.5M961 447.5L1013 461M1014.5 439.5L1013 461M1014.5 439.5L1147.33 308M1013 461L1164 313.5V291.5M1164 291.5L1094.5 273.5M1164 291.5L1147.33 308M1094.5 273.5L1087.5 272M1094.5 273.5L1083.5 288.367M1094.5 273.5L1095 280M1147.33 308L1122.5 302M1122.5 302V295M1122.5 302L1112.5 311.5M821.5 443.5V464L853 473.5V451.5L837.25 447.5M821.5 443.5L904 361.5M821.5 443.5L837.25 447.5M904 361.5V384.5M904 361.5L1018 391.5M904 384.5L837.25 447.5M904 384.5L1018 414M1018 391.5V414M1018 391.5L1037 374M1018 414L1056 380V356.5M1056 356.5L1037 374M1056 356.5L773.5 280.098M756.5 275.5V298L1037 374M756.5 275.5L841 192V198M756.5 275.5L773.5 280.098M830 224L841 214V198M802 252L773.5 280.098M841 198V176L994.5 218.5V234.5M841 198L990 238M994.5 234.5V257.5L968.5 285.083M994.5 234.5L950 280.098M950 280.098V302L1092.5 339.5M950 280.098L968.5 285.083M1092.5 339.5V318.5M1092.5 339.5L1112.5 321.5V311.5M1092.5 318.5L968.5 285.083M1092.5 318.5L1096 315M1112.5 298.5L1096 315M1112.5 298.5L1109 297.277M1112.5 298.5V303.5M1096 315L1071 308V284M1071 284L1062 280M1071 284L1087.5 266.5M1071 284L1075.5 285.572M1079 260L1070 255.5L1054 272L1062 276.5M1079 260L1062 276.5M1079 260V263.5M1062 276.5V280M1062 280L1079 263.5M1079 263.5L1087.5 266.5M1087.5 266.5V272M1087.5 272L1075.5 285.572M1075.5 285.572L1083.5 288.367M1083.5 288.367L1087.5 289.765M1095 280L1087.5 289.765M1095 280L1103.5 281.5M1087.5 289.765L1095 292.386M1103.5 281.5L1095 292.386M1103.5 281.5L1104.5 286.5M1095 292.386L1098.5 293.608M1104.5 286.5L1098.5 293.608M1104.5 286.5L1112.5 288.367M1098.5 293.608L1105.5 296.054M1112.5 288.367L1105.5 296.054M1112.5 288.367V292.386M1105.5 296.054L1109 297.277M1112.5 292.386L1109 297.277M1112.5 292.386L1122.5 295M1122.5 295L1112.5 303.5M1112.5 303.5V311.5M755 487.5L737.5 484V464L755 467M755 487.5V467M755 487.5L871 377V353.5M755 467L853 371.112M871 353.5L725 314.5M871 353.5L853 371.112M725 314.5V336.5M725 314.5L649 389M725 336.5L853 371.112M725 336.5L649 412.5M649 412.5V389M649 412.5L551 385.5V365.5L579.5 372.334M649 389L595.5 376.171M609 429V450L703.5 474.5V454L626 433.497M609 429L626 412.5M609 429L626 433.497M609 429L561.5 418.5L405.5 566.5M626 412.5V433.497M626 412.5L561.5 396.124M477 436.5L529.5 388L561.5 396.124M477 436.5L510 444.5M477 436.5V442.5M510 444.5L561.5 396.124M510 444.5L505 449.261M405.5 566.5V544M405.5 566.5L20.5 466V444.5M405.5 544L36.5 448.635M405.5 544L471.666 481M20.5 444.5L36.5 448.635M20.5 444.5L78 387.327M171.5 314.5L196.5 291V269.5L95 370.423M122 363.5L36.5 448.635M477 442.5L505 449.261M477 442.5L470 449.261M505 449.261L497.922 456M470 449.261L497.922 456M470 449.261V453M497.922 456L494.246 459.5M470 453L494.246 459.5M470 453L463 459.5M494.246 459.5L486.895 466.5M463 459.5L486.895 466.5M463 459.5V465.5M486.895 466.5L482.5 470.684M463 465.5L482.5 470.684M463 465.5L458 472M482.5 470.684L475.867 477M458 472L475.867 477M458 472V477L471.666 481M475.867 477L471.666 481M78 387.327L12.5 370V348M78 387.327L95 370.423M12.5 348L141 221M12.5 348L30.5 352.892M95 370.423L30.5 352.892M141 221V244.5L148 247M141 221L221.5 241.5M30.5 352.892L119 264M164 250L212 262.5M225 238.5L212 250V272L239.5 244.5M250.5 215L403.5 64.5M403.5 64.5V85.5M403.5 64.5L489.75 86.75M403.5 85.5L265 221.5M403.5 85.5L421.5 89M576 109L558.5 126.196M576 109V120.546M576 109L548.5 101.906M552.5 154L518.5 187V165.5L552.5 132.091M552.5 154V132.091M552.5 154L607.5 169.5M552.5 132.091L558.5 126.196M552.5 132.091L607.5 148.5M569.5 139L576 132.091V120.546M442.5 96.5L474 104M489.75 86.75L435 143.5V165.5L472 128M489.75 86.75V109L505.5 112M489.75 86.75L548.5 101.906M531 118.5L558.5 126.196M607.5 148.5V169.5M607.5 148.5L611.5 139M607.5 169.5C607.125 182.944 610.75 189.018 619.5 199L673.5 214M607.5 169.5V225.5C609.919 239.844 613.861 244.84 621.5 253L642.5 258.375L663.5 263.75M576 120.546L611.5 139M611.5 139L622.5 119.5L673.5 161V214M595.5 376.171L729.5 244.5M595.5 376.171L579.5 372.334M769 206.5L800 175.5V154M800 154L781.5 172.122M800 154L745 141.5M751 202L781.5 172.122M725 230L666.5 287.227M579.5 372.334L649 304.346M649 304.346L622.5 298V275.5L666.5 287.227M649 304.346L666.5 287.227M714.5 227.5L663.5 275.5V263.75M736 184V206.5L723 217.5H714.5M736 184L710 176L723 161L678 148.5L670 157M736 184L673.5 242.621M781.5 172.122L745 162.5M745 162.5V129.5M745 162.5L739.5 167.5V150C733.534 146.736 731.155 148.663 728 157V178.5H723V150M745 129.5L723 150M745 129.5L734 126.196M723 150L681 141.5L548.5 73.5M548.5 73.5L572.5 50.5L689 112M548.5 73.5V101.906M501.5 150C494.676 146.813 489.85 145.869 477 147.5L475.5 114C486.501 113.13 492.339 113.632 501.5 118.5M501.5 150V118.5M501.5 150C510.556 146.126 516.311 145.815 527.5 147.5V116C516.748 113.113 510.989 113.23 501.5 118.5M437 103L438 92.5H408.5L409.5 103M437 103H409.5M437 103L433.5 135.5H415M409.5 103L410 107M415 135.5H394L387.5 118.5M415 135.5L421.5 118.5M387.5 118.5C390.949 117.192 392.871 116.254 396.5 118.5C398.89 120.272 400.079 120.225 402 118.5C403.887 116.903 405.08 116.966 407 118.5C408.859 120.122 409.965 119.914 412 118.5C415.922 116.653 417.938 117.211 421.5 118.5M387.5 118.5C387 101.702 423.25 103 421.5 118.5M704 131.5V127.5M704 119.5V127.5M704 119.5L692 98M704 119.5C704.922 118.692 705.775 118.029 706.576 117.5M718.5 119.5C716.837 118.13 715.393 117.084 714 116.466M718.5 119.5L730 98M718.5 119.5V127.5M718.5 131.5V127.5M730 98L718.5 88H717.5M730 98V117.5M692 98L703 88H704M692 98V117.5M696 131.5H692V117.5M696 131.5V105L704 97M696 131.5H700M704 97V88M704 97H705.5M725.5 131.5H730V117.5M725.5 131.5V105L718.5 97H717.5M725.5 131.5H722M722 131.5V112L715.5 107M722 131.5H700M715.5 107V97M715.5 107H714M705.5 107L700 112V131.5M705.5 107V97M705.5 107H706.5M692 117.5L704 127.5M704 88H717.5M705.5 97H715.5M706.5 107L706.576 117.5M706.5 107H714M706.576 117.5C709.449 115.602 711.653 115.426 714 116.466M717.5 88V97M717.5 97H715.5M714 107V116.466M730 117.5L718.5 127.5M673.5 242.621L663.5 252V263.75M673.5 242.621V228.31V214M361.5 466.5C361.5 466.5 338.171 473.854 338.5 485.5C338.842 497.627 353.032 498.542 364.5 502.5C379.82 507.788 406 502.5 406 502.5C406 502.5 436.319 498.962 436 485.5C435.735 474.298 414.5 466.5 414.5 466.5M607.499 169.5V148.5L611.499 139L622.499 119.5L673.499 161V214M607.499 169.5C607.464 170.75 607.464 171.935 607.499 173.067M607.499 169.5V173.067M607.499 173.067C607.842 184.107 611.563 189.946 619.499 199L673.499 214M607.499 173.067V225.5C609.918 239.844 613.86 244.84 621.499 253L642.499 258.375L663.499 263.75V252L673.499 242.621V228.31V214M854.5 498L840 494.5L848.5 484.5L841.5 481.5L867.5 473.5L871 490.5L863.5 489L854.5 498ZM1026 249L1032.5 267.5L1038 260.5L1051 266.5L1060.5 256.5L1047.5 251L1053 246L1026 249ZM492.5 434.5L500.5 426L495 423.5L517.5 416.5L519.5 431.5L512 429.5L505 438.5L492.5 434.5ZM523 39.5L527.5 58.5L533 53L546 60L556 50.5L543.5 45L548.5 39.5H523ZM212 221L199 218L193 223L188 206.5L212 203L208 208.5L221.5 211L212 221Z" stroke="#163767" stroke-width="2"/>
<path d="M436 489.5V504C436 504 423.067 516.35 412.5 518.5C393.455 522.374 379.506 522.64 360.5 518.5C350.913 516.412 339 505.5 339 505.5V489.5L291.5 515M281 511.5L341 478.5M412.5 457.5L470.5 448.5M414.5 463.5L470.5 453.5M374 489.5V473C374 473 367.372 469.023 367.5 465C367.623 461.126 370.163 458.048 374 457.5C377.2 457.043 381.5 461 381.5 461C381.5 461 383.245 458.31 385 457.5C387.127 456.518 388.826 456.626 391 457.5C392.926 458.274 395 461 395 461C395 461 396.771 458.364 398.5 457.5C400.945 456.277 403.078 456.232 405.5 457.5C408.441 459.04 409.625 461.683 409.5 465C409.344 469.148 402.5 473 402.5 473V489.5M374 489.5V495.5H402.5V489.5M374 489.5H402.5" stroke="#163767" stroke-width="2"/>
<path d="M393.009 475.999C393.009 475.999 394.087 473.549 395.509 472.999C398.241 471.943 398.241 481.556 395.509 480.499C393.634 479.774 393.009 475.999 393.009 475.999ZM393.009 475.999C393.009 475.999 391.742 478.102 390.509 478.999C389.16 479.981 386.509 480.499 386.509 480.499C386.509 480.499 384.616 480.883 383.509 480.499C381.809 479.909 380.371 478.794 380.509 476.999C380.647 475.204 381.971 474.615 383.509 473.999C384.96 473.419 385.963 473.779 387.509 473.999C389.772 474.321 393.009 475.999 393.009 475.999Z" stroke="#163767" stroke-width="2"/>
<path d="M713 476.5L703 487L695.5 483.5L698.5 501.5L724.5 493.5L717.5 491L727 481L713 476.5Z" stroke="#163767" stroke-width="2"/>
<path d="M131.941 253.418C134.541 253.418 136.649 251.308 136.649 248.711C136.649 246.107 134.541 244 131.941 244C129.338 244 127.232 246.107 127.232 248.711C127.232 251.308 129.339 253.418 131.941 253.418ZM131.941 245.526C133.696 245.526 135.122 246.955 135.122 248.711C135.122 250.465 133.696 251.89 131.941 251.89C130.187 251.89 128.758 250.465 128.758 248.711C128.758 246.955 130.187 245.526 131.941 245.526Z" fill="#163767"/>
<path d="M136.02 255.648H131.892H127.764C125.483 255.648 123 258.131 123 260.413V276.239C123 277.38 123.925 278.304 125.066 278.304C125.627 278.304 125.066 278.304 126.507 278.304L127.293 291.801C127.293 293.016 128.277 294 129.491 294C130.004 294 130.949 294 131.892 294C132.836 294 133.782 294 134.294 294C135.508 294 136.492 293.016 136.492 291.801L137.277 278.304C138.719 278.304 138.157 278.304 138.719 278.304C139.859 278.304 140.784 277.38 140.784 276.239V260.413C140.784 258.131 138.302 255.648 136.02 255.648ZM139.258 276.239C139.258 276.536 139.017 276.778 138.719 276.778H137.277H135.838L135.753 278.216L134.969 291.712L134.966 291.756V291.801C134.966 292.171 134.665 292.474 134.294 292.474H131.892H129.491C129.121 292.474 128.819 292.172 128.819 291.801V291.756L128.817 291.712L128.03 278.216L127.947 276.778H126.507H125.066C124.768 276.778 124.526 276.536 124.526 276.239V260.413C124.526 258.96 126.312 257.175 127.764 257.175H131.892H136.02C137.473 257.175 139.258 258.96 139.258 260.413V276.239Z" fill="#163767"/>
<path d="M154.019 253.418C156.62 253.418 158.728 251.308 158.728 248.711C158.728 246.107 156.62 244 154.019 244C151.417 244 149.31 246.107 149.31 248.711C149.31 251.308 151.417 253.418 154.019 253.418ZM154.019 245.526C155.774 245.526 157.201 246.955 157.201 248.711C157.201 250.465 155.774 251.89 154.019 251.89C152.264 251.89 150.837 250.465 150.837 248.711C150.837 246.955 152.264 245.526 154.019 245.526Z" fill="#163767"/>
<path d="M165.236 280.81L160.357 269.337L161.98 261.147C162.148 258.038 159.81 255.707 157.528 255.707H150.509C148.228 255.707 145.889 258.038 146.057 261.147L147.681 269.337L142.801 280.81C142.582 281.324 142.637 281.915 142.945 282.381C143.254 282.848 143.777 283.129 144.336 283.129H149.479L150.809 292.159C150.809 293.043 151.526 293.761 152.412 293.761C152.734 293.761 155.304 293.761 155.626 293.761C156.511 293.761 157.228 293.043 157.228 292.159L158.558 283.129H163.703C164.262 283.129 164.784 282.848 165.092 282.381C165.4 281.915 165.455 281.324 165.236 280.81ZM163.819 281.539C163.794 281.578 163.749 281.602 163.703 281.602H158.558H157.241L157.049 282.906L155.718 291.937L155.701 292.046V292.159C155.701 292.201 155.667 292.235 155.626 292.235H152.412C152.37 292.235 152.337 292.201 152.337 292.159V292.046L152.32 291.937L150.99 282.906L150.797 281.602H149.479H144.336C144.288 281.602 144.245 281.578 144.218 281.539C144.193 281.5 144.188 281.45 144.207 281.407L149.086 269.934L149.27 269.501L149.179 269.039L147.577 260.963C147.531 259.525 148.202 258.593 148.611 258.16C149.16 257.581 149.869 257.234 150.509 257.234H157.528C158.168 257.234 158.877 257.581 159.427 258.16C159.836 258.593 160.506 259.525 160.46 260.963L158.859 269.039L158.768 269.501L158.951 269.934L163.831 281.407C163.849 281.45 163.845 281.5 163.819 281.539Z" fill="#163767"/>
<path d="M866.941 242.418C869.541 242.418 871.649 240.308 871.649 237.711C871.649 235.107 869.541 233 866.941 233C864.338 233 862.232 235.107 862.232 237.711C862.232 240.308 864.339 242.418 866.941 242.418ZM866.941 234.526C868.696 234.526 870.122 235.955 870.122 237.711C870.122 239.465 868.696 240.89 866.941 240.89C865.187 240.89 863.758 239.465 863.758 237.711C863.758 235.955 865.187 234.526 866.941 234.526Z" fill="#163767"/>
<path d="M871.02 244.648H866.892H862.764C860.483 244.648 858 247.131 858 249.413V265.239C858 266.38 858.925 267.304 860.066 267.304C860.627 267.304 860.066 267.304 861.507 267.304L862.293 280.801C862.293 282.016 863.277 283 864.491 283C865.004 283 865.949 283 866.892 283C867.836 283 868.782 283 869.294 283C870.508 283 871.492 282.016 871.492 280.801L872.277 267.304C873.719 267.304 873.157 267.304 873.719 267.304C874.859 267.304 875.784 266.38 875.784 265.239V249.413C875.784 247.131 873.302 244.648 871.02 244.648ZM874.258 265.239C874.258 265.536 874.017 265.778 873.719 265.778H872.277H870.838L870.753 267.216L869.969 280.712L869.966 280.756V280.801C869.966 281.171 869.665 281.474 869.294 281.474H866.892H864.491C864.121 281.474 863.819 281.172 863.819 280.801V280.756L863.817 280.712L863.03 267.216L862.947 265.778H861.507H860.066C859.768 265.778 859.526 265.536 859.526 265.239V249.413C859.526 247.96 861.312 246.175 862.764 246.175H866.892H871.02C872.473 246.175 874.258 247.96 874.258 249.413V265.239Z" fill="#163767"/>
<path d="M889.019 242.418C891.62 242.418 893.728 240.308 893.728 237.711C893.728 235.107 891.62 233 889.019 233C886.417 233 884.31 235.107 884.31 237.711C884.31 240.308 886.417 242.418 889.019 242.418ZM889.019 234.526C890.774 234.526 892.201 235.955 892.201 237.711C892.201 239.465 890.774 240.89 889.019 240.89C887.264 240.89 885.837 239.465 885.837 237.711C885.837 235.955 887.264 234.526 889.019 234.526Z" fill="#163767"/>
<path d="M900.236 269.81L895.357 258.337L896.98 250.147C897.148 247.038 894.81 244.707 892.528 244.707H885.509C883.228 244.707 880.889 247.038 881.057 250.147L882.681 258.337L877.801 269.81C877.582 270.324 877.637 270.915 877.945 271.381C878.254 271.848 878.777 272.129 879.336 272.129H884.479L885.809 281.159C885.809 282.043 886.526 282.761 887.412 282.761C887.734 282.761 890.304 282.761 890.626 282.761C891.511 282.761 892.228 282.043 892.228 281.159L893.558 272.129H898.703C899.262 272.129 899.784 271.848 900.092 271.381C900.4 270.915 900.455 270.324 900.236 269.81ZM898.819 270.539C898.794 270.578 898.749 270.602 898.703 270.602H893.558H892.241L892.049 271.906L890.718 280.937L890.701 281.046V281.159C890.701 281.201 890.667 281.235 890.626 281.235H887.412C887.37 281.235 887.337 281.201 887.337 281.159V281.046L887.32 280.937L885.99 271.906L885.797 270.602H884.479H879.336C879.288 270.602 879.245 270.578 879.218 270.539C879.193 270.5 879.188 270.45 879.207 270.407L884.086 258.934L884.27 258.501L884.179 258.039L882.577 249.963C882.531 248.525 883.202 247.593 883.611 247.16C884.16 246.581 884.869 246.234 885.509 246.234H892.528C893.168 246.234 893.877 246.581 894.427 247.16C894.836 247.593 895.506 248.525 895.46 249.963L893.859 258.039L893.768 258.501L893.951 258.934L898.831 270.407C898.849 270.45 898.845 270.5 898.819 270.539Z" fill="#163767"/>
<path d="M131.941 253.418C134.541 253.418 136.649 251.308 136.649 248.711C136.649 246.107 134.541 244 131.941 244C129.338 244 127.232 246.107 127.232 248.711C127.232 251.308 129.339 253.418 131.941 253.418ZM131.941 245.526C133.696 245.526 135.122 246.955 135.122 248.711C135.122 250.465 133.696 251.89 131.941 251.89C130.187 251.89 128.758 250.465 128.758 248.711C128.758 246.955 130.187 245.526 131.941 245.526Z" fill="#163767"/>
<path d="M136.02 255.648H131.892H127.764C125.483 255.648 123 258.131 123 260.413V276.239C123 277.38 123.925 278.304 125.066 278.304C125.627 278.304 125.066 278.304 126.507 278.304L127.293 291.801C127.293 293.016 128.277 294 129.491 294C130.004 294 130.949 294 131.892 294C132.836 294 133.782 294 134.294 294C135.508 294 136.492 293.016 136.492 291.801L137.277 278.304C138.719 278.304 138.157 278.304 138.719 278.304C139.859 278.304 140.784 277.38 140.784 276.239V260.413C140.784 258.131 138.302 255.648 136.02 255.648ZM139.258 276.239C139.258 276.536 139.017 276.778 138.719 276.778H137.277H135.838L135.753 278.216L134.969 291.712L134.966 291.756V291.801C134.966 292.171 134.665 292.474 134.294 292.474H131.892H129.491C129.121 292.474 128.819 292.172 128.819 291.801V291.756L128.817 291.712L128.03 278.216L127.947 276.778H126.507H125.066C124.768 276.778 124.526 276.536 124.526 276.239V260.413C124.526 258.96 126.312 257.175 127.764 257.175H131.892H136.02C137.473 257.175 139.258 258.96 139.258 260.413V276.239Z" fill="#163767"/>
<path d="M154.019 253.418C156.62 253.418 158.728 251.308 158.728 248.711C158.728 246.107 156.62 244 154.019 244C151.417 244 149.31 246.107 149.31 248.711C149.31 251.308 151.417 253.418 154.019 253.418ZM154.019 245.526C155.774 245.526 157.201 246.955 157.201 248.711C157.201 250.465 155.774 251.89 154.019 251.89C152.264 251.89 150.837 250.465 150.837 248.711C150.837 246.955 152.264 245.526 154.019 245.526Z" fill="#163767"/>
<path d="M165.236 280.81L160.357 269.337L161.98 261.147C162.148 258.038 159.81 255.707 157.528 255.707H150.509C148.228 255.707 145.889 258.038 146.057 261.147L147.681 269.337L142.801 280.81C142.582 281.324 142.637 281.915 142.945 282.381C143.254 282.848 143.777 283.129 144.336 283.129H149.479L150.809 292.159C150.809 293.043 151.526 293.761 152.412 293.761C152.734 293.761 155.304 293.761 155.626 293.761C156.511 293.761 157.228 293.043 157.228 292.159L158.558 283.129H163.703C164.262 283.129 164.784 282.848 165.092 282.381C165.4 281.915 165.455 281.324 165.236 280.81ZM163.819 281.539C163.794 281.578 163.749 281.602 163.703 281.602H158.558H157.241L157.049 282.906L155.718 291.937L155.701 292.046V292.159C155.701 292.201 155.667 292.235 155.626 292.235H152.412C152.37 292.235 152.337 292.201 152.337 292.159V292.046L152.32 291.937L150.99 282.906L150.797 281.602H149.479H144.336C144.288 281.602 144.245 281.578 144.218 281.539C144.193 281.5 144.188 281.45 144.207 281.407L149.086 269.934L149.27 269.501L149.179 269.039L147.577 260.963C147.531 259.525 148.202 258.593 148.611 258.16C149.16 257.581 149.869 257.234 150.509 257.234H157.528C158.168 257.234 158.877 257.581 159.427 258.16C159.836 258.593 160.506 259.525 160.46 260.963L158.859 269.039L158.768 269.501L158.951 269.934L163.831 281.407C163.849 281.45 163.845 281.5 163.819 281.539Z" fill="#163767"/>
<g filter="url(#filter0_d_459_3178)">
<circle cx="29" cy="159" r="24" stroke="#163767" stroke-width="2" shape-rendering="crispEdges"/>
</g>
<g filter="url(#filter1_d_459_3178)">
<circle cx="237" cy="25" r="24" stroke="#163767" stroke-width="2" shape-rendering="crispEdges"/>
</g>
<g filter="url(#filter2_d_459_3178)">
<circle cx="643" cy="27" r="24" stroke="#163767" stroke-width="2" shape-rendering="crispEdges"/>
</g>
<g filter="url(#filter3_d_459_3178)">
<circle cx="753" cy="230" r="24" stroke="#163767" stroke-width="2" shape-rendering="crispEdges"/>
</g>
<circle cx="320.5" cy="187.5" r="3.5" fill="#163767"/>
<circle cx="643.5" cy="175.5" r="3.5" fill="#163767"/>
<path d="M643 50.5V172.5" stroke="#163767"/>
<path d="M237 49.5V110L319.5 185.5" stroke="#163767"/>
<circle cx="113.5" cy="383.5" r="3.5" fill="#163767"/>
<circle cx="222.25" cy="23.75" r="0.75" fill="#163767"/>
<circle cx="762.75" cy="222.75" r="0.75" fill="#163767"/>
<circle cx="743.75" cy="236.75" r="0.75" fill="#163767"/>
<circle cx="248.25" cy="35.75" r="0.75" fill="#163767"/>
<circle cx="232.25" cy="37.75" r="0.75" fill="#163767"/>
<circle cx="226.5" cy="10" r="2.5" stroke="#163767"/>
<circle cx="222.5" cy="16" r="1.5" stroke="#163767"/>
<path d="M948.961 272.837C948.896 272.643 948.757 272.483 948.575 272.392C948.392 272.301 948.181 272.286 947.987 272.35L944.005 273.678L938.149 261.966C938.085 261.838 937.987 261.731 937.865 261.656C937.744 261.581 937.604 261.541 937.461 261.541H921.306V256.184C921.56 256.167 921.816 256.156 922.075 256.156H932.845C933.049 256.156 933.245 256.075 933.389 255.93C933.533 255.786 933.614 255.591 933.614 255.386C933.614 255.182 933.533 254.987 933.389 254.843C933.245 254.698 933.049 254.617 932.845 254.617H922.075C921.817 254.617 921.561 254.627 921.306 254.642V249.167C922.447 248.974 923.474 248.359 924.183 247.445C924.893 246.531 925.233 245.383 925.136 244.23C925.039 243.076 924.513 242.002 923.661 241.218C922.809 240.435 921.694 240 920.536 240C919.379 240 918.264 240.435 917.412 241.218C916.56 242.002 916.034 243.076 915.937 244.23C915.84 245.383 916.18 246.531 916.89 247.445C917.599 248.359 918.626 248.974 919.767 249.167V254.825C917.353 255.258 915.109 256.362 913.292 258.01C911.475 259.657 910.158 261.783 909.492 264.144C908.825 266.504 908.836 269.005 909.523 271.359C910.211 273.714 911.546 275.828 913.377 277.46C915.209 279.091 917.462 280.175 919.88 280.587C922.298 280.999 924.783 280.723 927.052 279.789C929.32 278.856 931.28 277.304 932.708 275.31C934.136 273.315 934.975 270.96 935.128 268.512C935.134 268.411 935.12 268.31 935.088 268.214C935.055 268.118 935.004 268.03 934.937 267.954C934.87 267.879 934.789 267.817 934.698 267.772C934.607 267.728 934.508 267.702 934.407 267.696C934.306 267.689 934.205 267.703 934.11 267.736C934.014 267.769 933.926 267.82 933.85 267.887C933.775 267.954 933.713 268.036 933.668 268.127C933.624 268.217 933.598 268.316 933.592 268.417C933.457 270.565 932.724 272.633 931.476 274.387C930.227 276.141 928.513 277.51 926.527 278.341C924.541 279.171 922.362 279.429 920.237 279.086C918.112 278.743 916.125 277.813 914.501 276.4C912.877 274.987 911.68 273.148 911.047 271.09C910.413 269.033 910.368 266.839 910.916 264.757C911.464 262.676 912.583 260.789 914.147 259.31C915.711 257.831 917.658 256.819 919.767 256.388V262.31C919.767 262.514 919.848 262.71 919.993 262.854C920.137 262.998 920.332 263.079 920.536 263.079H936.985L942.927 274.963C943.01 275.128 943.149 275.259 943.321 275.329C943.492 275.4 943.683 275.407 943.858 275.348L948.474 273.81C948.667 273.745 948.827 273.607 948.919 273.424C949.01 273.242 949.025 273.03 948.961 272.837ZM917.459 244.616C917.459 244.008 917.64 243.413 917.978 242.907C918.316 242.401 918.797 242.006 919.359 241.774C919.921 241.541 920.54 241.48 921.137 241.598C921.734 241.717 922.282 242.01 922.712 242.441C923.143 242.871 923.436 243.419 923.554 244.016C923.673 244.613 923.612 245.232 923.379 245.794C923.146 246.356 922.752 246.837 922.246 247.175C921.74 247.513 921.145 247.694 920.536 247.694C919.721 247.693 918.939 247.368 918.362 246.791C917.785 246.214 917.46 245.432 917.459 244.616Z" fill="#163767"/>
<path d="M140.961 312.837C140.896 312.643 140.757 312.483 140.575 312.392C140.392 312.301 140.181 312.286 139.987 312.35L136.005 313.678L130.149 301.966C130.085 301.838 129.987 301.731 129.865 301.656C129.744 301.581 129.604 301.541 129.461 301.541H113.306V296.184C113.56 296.167 113.816 296.156 114.075 296.156H124.845C125.049 296.156 125.245 296.075 125.389 295.93C125.533 295.786 125.614 295.591 125.614 295.386C125.614 295.182 125.533 294.987 125.389 294.843C125.245 294.698 125.049 294.617 124.845 294.617H114.075C113.817 294.617 113.561 294.627 113.306 294.642V289.167C114.447 288.974 115.474 288.359 116.183 287.445C116.893 286.531 117.233 285.383 117.136 284.23C117.039 283.076 116.513 282.002 115.661 281.218C114.809 280.435 113.694 280 112.536 280C111.379 280 110.264 280.435 109.412 281.218C108.56 282.002 108.034 283.076 107.937 284.23C107.84 285.383 108.18 286.531 108.89 287.445C109.599 288.359 110.626 288.974 111.767 289.167V294.825C109.353 295.258 107.109 296.362 105.292 298.01C103.475 299.657 102.158 301.783 101.492 304.144C100.825 306.504 100.836 309.005 101.523 311.359C102.211 313.714 103.546 315.828 105.377 317.46C107.209 319.091 109.462 320.175 111.88 320.587C114.298 320.999 116.783 320.723 119.052 319.789C121.32 318.856 123.28 317.304 124.708 315.31C126.136 313.315 126.975 310.96 127.128 308.512C127.134 308.411 127.12 308.31 127.088 308.214C127.055 308.118 127.004 308.03 126.937 307.954C126.87 307.879 126.789 307.817 126.698 307.772C126.607 307.728 126.508 307.702 126.407 307.696C126.306 307.689 126.205 307.703 126.11 307.736C126.014 307.769 125.926 307.82 125.85 307.887C125.775 307.954 125.713 308.036 125.668 308.127C125.624 308.217 125.598 308.316 125.592 308.417C125.457 310.565 124.724 312.633 123.476 314.387C122.227 316.141 120.513 317.51 118.527 318.341C116.541 319.171 114.362 319.429 112.237 319.086C110.112 318.743 108.125 317.813 106.501 316.4C104.877 314.987 103.68 313.148 103.047 311.09C102.413 309.033 102.368 306.839 102.916 304.757C103.464 302.676 104.583 300.789 106.147 299.31C107.711 297.831 109.658 296.819 111.767 296.388V302.31C111.767 302.514 111.848 302.71 111.993 302.854C112.137 302.998 112.332 303.079 112.536 303.079H128.985L134.927 314.963C135.01 315.128 135.149 315.259 135.321 315.329C135.492 315.4 135.683 315.407 135.858 315.348L140.474 313.81C140.667 313.745 140.827 313.607 140.919 313.424C141.01 313.242 141.025 313.03 140.961 312.837ZM109.459 284.616C109.459 284.008 109.64 283.413 109.978 282.907C110.316 282.401 110.797 282.006 111.359 281.774C111.921 281.541 112.54 281.48 113.137 281.598C113.734 281.717 114.282 282.01 114.712 282.441C115.143 282.871 115.436 283.419 115.554 284.016C115.673 284.613 115.612 285.232 115.379 285.794C115.146 286.356 114.752 286.837 114.246 287.175C113.74 287.513 113.145 287.694 112.536 287.694C111.721 287.693 110.939 287.368 110.362 286.791C109.785 286.214 109.46 285.432 109.459 284.616Z" fill="#163767"/>
<path d="M761.043 369H751.323V365.88C751.323 363.188 749.134 361 746.443 361H739.954C737.262 361 735.074 363.188 735.074 365.88V369H725.253C723.458 369 722 370.458 722 372.254V409.667C722 411.464 723.458 412.92 725.253 412.92H761.041C762.839 412.92 764.295 411.464 764.295 409.667V372.254C764.295 370.458 762.84 369 761.043 369ZM738.329 365.88C738.329 364.982 739.058 364.253 739.956 364.253H746.445C747.343 364.253 748.071 364.982 748.071 365.88V369H738.329V365.88ZM761.043 409.667H725.255V372.254H735.076V375.601C735.076 375.601 735.032 377.227 736.693 377.227C738.523 377.227 738.329 375.601 738.329 375.601V372.254H748.071V375.601C748.071 375.601 747.962 377.235 749.692 377.235C751.318 377.235 751.325 375.601 751.325 375.601V372.254H761.043V409.667Z" fill="#163767"/>
<path d="M737.643 388.486H735.003C735.757 387.581 736.229 386.449 736.229 385.186C736.229 382.319 733.909 380 731.043 380C727.875 380 725.084 381.678 723.5 384.167C721.916 381.678 719.125 380 715.957 380C713.091 380 710.771 382.319 710.771 385.186C710.771 386.449 711.243 387.581 711.997 388.486H709.357C708.056 388.486 707 389.542 707 390.843V395.557C707 396.689 707.811 397.594 708.886 397.82V410.643C708.886 411.944 709.942 413 711.243 413H735.757C737.058 413 738.114 411.944 738.114 410.643V397.82C739.189 397.594 740 396.689 740 395.557V390.843C740 389.542 738.944 388.486 737.643 388.486ZM737.171 395.086H724.914V391.314H737.171V395.086ZM731.043 382.829C732.344 382.829 733.4 383.885 733.4 385.186C733.4 386.487 732.344 387.543 731.043 387.543H725.084C725.725 384.846 728.158 382.829 731.043 382.829ZM715.957 382.829C718.842 382.829 721.275 384.846 721.916 387.543H715.957C714.656 387.543 713.6 386.487 713.6 385.186C713.6 383.885 714.656 382.829 715.957 382.829ZM709.829 391.314H722.086V395.086H709.829V391.314ZM711.714 397.914H722.086V410.171H711.714V397.914ZM735.286 410.171H724.914V397.914H735.286V410.171Z" fill="#163767"/>
<path d="M738.5 211C742.086 212.195 743.194 214.208 745 218M745 218C740.068 223.471 736.795 224.628 730 224M745 218C746.833 215.167 750.5 210.6 750.5 215C750.5 217.323 750.5 219.702 750.5 221.43C750.5 222.342 749.379 222.777 748.763 222.105L745 218ZM772 218C764.038 216.401 760.352 217.514 756.883 223.337C756.652 223.724 756.725 224.223 757.053 224.533C764.144 231.235 768.277 229.912 775.5 225.5M759 238C749.69 229.791 744.835 229.292 737.124 237.337C736.768 237.709 736.762 238.297 737.11 238.675C744.668 246.884 749.788 246.633 759 238ZM759 238C760.833 234.667 764.5 229 764.5 233C764.5 235.784 764.5 239.213 764.5 241.771C764.5 242.703 763.338 243.127 762.737 242.416L759 238Z" stroke="#163767"/>
<path d="M90.2852 300.272C89.4646 300.272 88.6929 300.591 88.1127 301.172C87.5322 301.752 87.2128 302.523 87.2125 303.344L87.2125 304.464C87.2125 306.323 86.7435 307.048 86.2367 307.555C86.2366 307.555 86.2366 307.555 86.2365 307.555C86.0515 307.74 85.8484 307.906 85.6333 308.083C85.4023 308.272 85.1639 308.467 84.9325 308.698C84.2049 309.426 83.8092 310.296 83.6913 311.454C83.011 311.56 82.3823 311.878 81.8839 312.376C81.2634 312.997 80.9216 313.819 80.9217 314.692C80.9218 315.564 81.2627 316.386 81.8818 317.006C81.4919 317.233 81.1279 317.511 80.7999 317.839C79.8101 318.829 79.265 320.14 79.2649 321.532L79.2653 342.388C79.2654 345.27 81.6105 347.615 84.4929 347.615L96.0793 347.616C97.4708 347.616 98.7822 347.071 99.772 346.081C100.762 345.091 101.307 343.779 101.307 342.388L101.307 321.532C101.306 320.141 100.761 318.829 99.7716 317.839C99.4435 317.511 99.0793 317.233 98.6894 317.006C99.3084 316.386 99.6494 315.565 99.6494 314.693C99.6495 313.82 99.3077 312.997 98.6871 312.377C98.1885 311.878 97.5592 311.56 96.8783 311.454C96.6745 309.506 95.7214 308.724 94.9378 308.083C94.0903 307.389 93.3583 306.79 93.3583 304.465L93.3584 303.345C93.3581 301.65 91.9796 300.272 90.2852 300.272ZM99.5403 320.699L94.9047 320.699C94.4445 320.699 94.0715 321.072 94.0713 321.532C94.0712 321.992 94.4444 322.366 94.9047 322.365L99.6398 322.366L99.6398 325.913L94.9047 325.913C94.4444 325.913 94.0714 326.286 94.0713 326.746C94.0712 327.206 94.4443 327.579 94.9046 327.579L99.6399 327.579L99.6398 331.127L94.9049 331.126C94.4446 331.127 94.0716 331.5 94.0715 331.96C94.0714 332.42 94.4446 332.793 94.9049 332.793L99.6399 332.793L99.6399 336.34L94.9047 336.34C94.4444 336.34 94.0714 336.713 94.0714 337.174C94.0715 337.634 94.4446 338.007 94.9048 338.007L99.64 338.007L99.64 341.554L94.2602 341.554C93.7999 341.554 93.4269 341.927 93.4268 342.387C93.4267 342.848 93.7999 343.221 94.2602 343.221L99.5408 343.221C99.3889 343.851 99.0658 344.43 98.5933 344.902C97.9183 345.577 97.0254 345.949 96.0792 345.949L84.4928 345.949C82.5294 345.949 80.932 344.351 80.932 342.388L80.9317 322.365L83.9985 322.365C84.2287 322.365 84.437 322.272 84.5877 322.121C84.7387 321.97 84.8318 321.762 84.8319 321.532C84.8317 321.071 84.4587 320.698 83.9984 320.698L81.031 320.699C81.1829 320.069 81.5061 319.49 81.9785 319.017C82.6534 318.343 83.5462 317.971 84.4924 317.971L96.0787 317.971C97.025 317.971 97.9181 318.343 98.5931 319.018C99.0652 319.49 99.3884 320.07 99.5403 320.699ZM97.9826 314.693C97.9826 315.121 97.8142 315.524 97.5084 315.83C97.2027 316.136 96.799 316.304 96.3713 316.304L84.1999 316.304C83.7722 316.304 83.3683 316.136 83.0626 315.83C82.7568 315.524 82.5884 315.12 82.5885 314.692C82.5885 314.265 82.7568 313.861 83.0626 313.555C83.3684 313.249 83.7725 313.081 84.2002 313.081L84.4832 313.081C84.4842 313.081 84.4851 313.081 84.4861 313.081L96.0852 313.081C96.0862 313.081 96.0871 313.081 96.088 313.081L96.371 313.081C96.7986 313.081 97.2026 313.249 97.5084 313.555C97.8142 313.861 97.9827 314.265 97.9826 314.693ZM91.6914 303.344L91.6914 304.465C91.6915 307.58 92.9061 308.574 93.8819 309.373C94.5334 309.906 95.0369 310.318 95.1974 311.414L85.375 311.414C85.4952 310.606 85.7941 310.194 86.111 309.877C86.2836 309.704 86.4806 309.543 86.689 309.373C86.9261 309.178 87.1713 308.978 87.4148 308.734C87.4149 308.734 87.4149 308.734 87.415 308.734C88.4276 307.721 88.8792 306.404 88.8791 304.464L88.8791 303.345C88.8791 302.969 89.0254 302.616 89.291 302.35C89.5566 302.085 89.9095 301.938 90.2851 301.938C91.0606 301.938 91.6915 302.569 91.6914 303.344Z" fill="#163767"/>
<path d="M91.8458 341.554C91.3856 341.555 91.0126 341.928 91.0124 342.388C91.0123 342.848 91.3855 343.221 91.8458 343.221L91.8657 343.221C92.0958 343.221 92.3041 343.128 92.455 342.977C92.6058 342.826 92.699 342.618 92.6991 342.388C92.6992 341.928 92.326 341.554 91.8657 341.555L91.8458 341.554Z" fill="#163767"/>
<path d="M86.3866 320.699C85.9264 320.702 85.5558 321.078 85.5593 321.538C85.5626 321.998 85.9386 322.369 86.3988 322.365L86.4185 322.365C86.6465 322.363 86.8522 322.27 87.0017 322.121C87.1539 321.969 87.2475 321.758 87.2458 321.526C87.2425 321.065 86.8665 320.695 86.4063 320.698L86.3866 320.699Z" fill="#163767"/>
<path d="M74.46 151.808H86.032V154.162H74.46V151.808ZM75.098 155.614H83.282V157.858H75.098V155.614ZM71.358 159.948H86.494V162.346H71.358V159.948ZM74.152 164.634H86.252V166.878H74.152V164.634ZM74.482 149.3L77.056 149.872C76.22 152.776 74.768 155.614 73.184 157.374C72.7 156.934 71.578 156.186 70.962 155.856C72.546 154.338 73.8 151.83 74.482 149.3ZM74.042 155.614H76.484C76.066 159.64 75.428 164.81 74.878 167.934L72.37 167.758C72.986 164.634 73.712 159.508 74.042 155.614ZM78.222 156.45H80.51C80.29 159.508 79.916 163.424 79.586 165.778H77.32C77.672 163.336 78.068 159.42 78.222 156.45ZM82.556 155.614H84.998C84.998 155.614 84.976 156.384 84.954 156.692C84.646 164.986 84.294 167.912 83.568 168.88C83.062 169.562 82.534 169.782 81.808 169.892C81.126 170.002 80.092 169.98 78.992 169.936C78.97 169.298 78.706 168.374 78.354 167.78C79.322 167.868 80.158 167.868 80.598 167.868C80.972 167.868 81.192 167.802 81.412 167.516C81.962 166.878 82.292 163.93 82.556 156.098V155.614ZM66.65 151.39L68.124 149.476C69.378 150.026 71.028 150.906 71.82 151.654L70.236 153.766C69.488 153.018 67.926 152.006 66.65 151.39ZM65.638 157.286L67.09 155.35C68.366 155.834 69.972 156.692 70.786 157.396L69.224 159.53C68.498 158.804 66.914 157.858 65.638 157.286ZM66.056 168.308C66.98 166.592 68.3 163.776 69.29 161.18L71.38 162.632C70.522 165.008 69.444 167.604 68.432 169.76L66.056 168.308ZM89.904 150.092H94.304V152.468H89.904V150.092ZM95.734 150.62H108.12V153.084H95.734V150.62ZM89.75 155.108H93.776V157.506H89.75V155.108ZM89.75 160.234H93.798V162.676H89.75V160.234ZM88.782 150.092H91.004V158.078C91.004 161.554 90.828 166.658 89.53 169.936C89.09 169.562 88.078 169.012 87.506 168.814C88.694 165.756 88.782 161.312 88.782 158.078V150.092ZM92.698 150.092H95.008V167.23C95.008 168.33 94.854 169.056 94.216 169.474C93.556 169.892 92.72 169.958 91.444 169.936C91.378 169.298 91.092 168.176 90.784 167.516C91.444 167.56 92.148 167.56 92.368 167.538C92.61 167.538 92.698 167.45 92.698 167.164V150.092ZM101.256 151.412L103.544 152.27C101.784 154.778 98.902 157.066 96.218 158.474C95.91 157.968 95.118 156.89 94.634 156.406C97.186 155.306 99.782 153.458 101.256 151.412ZM97.406 156.318L99.32 155.218C104.182 159.024 104.336 166.768 102.378 168.77C101.652 169.65 100.838 169.914 99.716 169.936C99.254 169.958 98.638 169.936 98.022 169.892C98 169.21 97.846 168.176 97.406 167.472C98.088 167.538 98.726 167.582 99.21 167.582C99.738 167.582 100.09 167.494 100.42 166.944C101.542 165.624 101.41 159.486 97.406 156.318ZM99.496 157.462L101.3 158.584C100.112 160.102 97.934 161.906 96.174 162.896C95.888 162.302 95.316 161.268 94.854 160.74C96.504 160.08 98.506 158.694 99.496 157.462ZM100.97 160.52L102.796 161.686C101.3 163.886 98.55 166.328 96.108 167.648C95.844 167.01 95.272 165.998 94.788 165.448C97.076 164.48 99.694 162.434 100.97 160.52ZM103.852 151.808C104.49 157.506 105.854 163.072 108.67 165.888C108.054 166.372 107.13 167.362 106.69 168.088C103.654 164.656 102.356 158.716 101.63 152.094L103.852 151.808ZM106.426 154.932L108.494 156.868C107.108 157.946 105.7 159.178 104.6 159.926L103.104 158.386C104.138 157.528 105.612 156.032 106.426 154.932Z" fill="#163767"/>
<path d="M732.498 511.108H747.546V513.704H732.498V511.108ZM738.482 494.542H741.232V512.692H738.482V494.542ZM731.2 505.608H733.884V514.98H731.2V505.608ZM746.138 505.608H748.888V514.958H746.138V505.608ZM732.08 496.39H734.72V501.868H745.214V496.39H748.008V504.42H732.08V496.39ZM753.31 496.478H770.712V514.518H767.808V499.162H756.082V514.54H753.31V496.478ZM754.63 510.03H769.612V512.758H754.63V510.03Z" fill="#163767"/>
<path d="M873.038 493.554H879.264V496.238H873.038V493.554ZM877.966 493.554H880.694C880.694 497.734 881.288 505.83 889.45 510.604C888.834 511.088 887.778 512.254 887.316 512.914C878.934 507.876 877.966 498.042 877.966 493.554ZM877.02 498.372L880.056 498.922C878.516 505.456 875.59 510.186 870.992 512.958C870.508 512.386 869.276 511.286 868.594 510.802C873.192 508.47 875.832 504.202 877.02 498.372ZM892.31 494.478H909.712V512.518H906.808V497.162H895.082V512.54H892.31V494.478ZM893.63 508.03H908.612V510.758H893.63V508.03Z" fill="#163767"/>
<path d="M679.77 16.598H686.414V18.908H679.77V16.598ZM680.012 23.352H686.062V25.662H680.012V23.352ZM685.93 24.43H700.428V26.938H685.93V24.43ZM690.638 16.994H692.64V35.936H690.638V16.994ZM693.718 16.994H695.852V35.936H693.718V16.994ZM679.418 30.942C681.266 30.59 684.016 29.996 686.59 29.402L686.854 31.778C684.456 32.372 681.904 32.966 679.858 33.45L679.418 30.942ZM696.996 16.18H699.328V33.252C699.328 34.242 699.218 35.012 698.69 35.452C698.14 35.892 697.546 35.958 696.644 35.958C696.6 35.298 696.336 34.132 696.028 33.472C696.358 33.472 696.666 33.472 696.82 33.472C696.952 33.472 696.996 33.428 696.996 33.208V16.18ZM687.25 16.18H698.03V18.622H689.582V35.958H687.25V16.18ZM681.926 17.61H684.324V30.612L681.926 30.986V17.61ZM710.24 15.608H712.462V26.872H710.24V15.608ZM707.996 19.414H714.75V21.724H707.996V19.414ZM716.576 16.026H720.492V18.314H716.576V16.026ZM716.576 21.306H720.492V23.594H716.576V21.306ZM716.576 26.696H720.492V28.984H716.576V26.696ZM708.304 25.618H710.46V34.704H708.304V25.618ZM709.184 25.618H714.332V33.494H709.184V31.206H712.198V27.906H709.184V25.618ZM715.366 16.026H717.522V26.234C717.522 29.402 717.192 33.582 714.992 36.046C714.684 35.606 713.804 34.77 713.364 34.484C715.212 32.306 715.366 29.05 715.366 26.234V16.026ZM719.37 16.026H721.68V33.296C721.68 34.352 721.526 35.012 720.91 35.408C720.294 35.804 719.48 35.87 718.27 35.87C718.204 35.232 717.918 34.176 717.61 33.582C718.226 33.626 718.842 33.626 719.062 33.604C719.282 33.582 719.37 33.516 719.37 33.252V16.026ZM701.814 16.598H707.93V18.908H701.814V16.598ZM701.968 23H707.732V25.31H701.968V23ZM701.506 31.25C703.134 30.92 705.444 30.326 707.71 29.754L707.996 31.998C705.928 32.592 703.772 33.164 701.968 33.648L701.506 31.25ZM703.75 18.072H706.038V31.36L703.75 31.888V18.072ZM723.814 16.334H732.02V18.732H723.814V16.334ZM726.366 23.198H731.47V33.384H726.366V31.096H729.204V25.464H726.366V23.198ZM726.212 17.61L728.676 17.984C728.06 22.736 726.916 27.378 724.738 30.37C724.518 29.776 723.77 28.456 723.308 27.862C724.98 25.442 725.772 21.592 726.212 17.61ZM725.266 23.198H727.488V34.924H725.266V23.198ZM734.374 21.988H743.196V23.902H734.374V21.988ZM734.374 25.068H743.196V26.982H734.374V25.068ZM737.564 20.47H739.918V29.182H737.564V20.47ZM738.62 15.564L741.37 16.136C740.666 17.632 739.896 19.26 739.28 20.294L737.234 19.722C737.762 18.578 738.356 16.84 738.62 15.564ZM734.132 15.344L736.596 15.96C735.628 18.974 734 21.988 732.218 23.902C731.866 23.396 730.986 22.34 730.458 21.878C732.064 20.316 733.384 17.83 734.132 15.344ZM732.548 30.854L734.572 31.448C734.22 33.186 733.67 34.946 732.438 36.002L730.546 34.946C731.602 34 732.262 32.416 732.548 30.854ZM735.012 31.58L736.904 31.272C737.234 32.614 737.388 34.33 737.344 35.452L735.298 35.738C735.386 34.638 735.276 32.922 735.012 31.58ZM737.63 31.536L739.522 31.074C740.094 32.328 740.578 34.022 740.754 35.122L738.752 35.672C738.642 34.55 738.18 32.834 737.63 31.536ZM740.446 31.514L742.492 30.744C743.394 32.086 744.274 33.868 744.67 35.056L742.492 35.958C742.162 34.748 741.304 32.878 740.446 31.514ZM734.814 18.688H743.834V20.822H733.758L734.814 18.688ZM732.746 20.426H735.166V28.192H744.164V30.282H732.746V20.426Z" fill="#163767"/>
<path d="M285.208 18.874H296.34V21.162H285.208V18.874ZM279.928 23.098H281.688V29.896H279.928V23.098ZM289.542 16.344H292.05V20.326H289.542V16.344ZM286.77 30.006L289.058 30.49C288.53 32.558 287.54 34.604 286.484 35.902C286 35.55 284.944 35.044 284.372 34.802C285.45 33.636 286.308 31.788 286.77 30.006ZM283.008 31.7L284.504 31.15C284.966 31.942 285.428 33.02 285.626 33.724L284.042 34.362C283.888 33.636 283.448 32.536 283.008 31.7ZM292.468 30.622L294.514 29.896C295.306 31.414 296.12 33.416 296.45 34.758L294.272 35.616C293.986 34.274 293.216 32.184 292.468 30.622ZM281.006 31.788L282.546 31.48C283.008 32.712 283.338 34.318 283.426 35.396L281.776 35.726C281.732 34.67 281.424 33.02 281.006 31.788ZM279.004 31.788L280.632 31.568C280.874 32.91 280.962 34.67 280.918 35.792L279.18 36.056C279.29 34.89 279.202 33.152 279.004 31.788ZM278.806 27.3V28.708H282.876V27.3H278.806ZM278.806 24V25.364H282.876V24H278.806ZM276.804 21.91H284.988V30.798H276.804V21.91ZM276.914 31.48L278.696 31.92C278.498 33.834 278.168 35.792 277.156 37.024L275.484 36.056C276.342 34.978 276.738 33.218 276.914 31.48ZM289.542 28.158H292.05V34.538C292.05 35.594 291.874 36.232 291.17 36.606C290.466 36.98 289.586 37.002 288.376 37.002C288.288 36.32 287.936 35.374 287.628 34.736C288.31 34.758 288.992 34.758 289.234 34.736C289.476 34.736 289.542 34.692 289.542 34.45V28.158ZM288.552 24.594V26.948H293.128V24.594H288.552ZM286.176 22.46H295.636V29.082H286.176V22.46ZM278.894 18.324H282.392V20.304H278.894V18.324ZM281.644 18.324H282.15L282.59 18.192L284.02 19.182C283.36 20.678 282.414 22.46 281.578 23.582C281.27 23.164 280.632 22.504 280.236 22.196C280.786 21.272 281.358 19.71 281.644 18.72V18.324ZM278.388 16.322L280.72 16.652C280.082 19.27 279.092 22.108 277.288 24.44C276.87 23.934 276.056 23.208 275.506 22.922C277.068 20.964 277.948 18.412 278.388 16.322ZM299.574 17.752L300.784 16.322C301.884 16.608 303.226 17.224 303.974 17.708L302.742 19.292C302.016 18.764 300.652 18.104 299.574 17.752ZM297.902 20.326L299.09 18.852C300.168 19.094 301.488 19.644 302.236 20.084L301.004 21.734C300.278 21.228 298.958 20.634 297.902 20.326ZM309.606 16.322H312.07V20.7C312.07 21.756 311.872 22.24 311.08 22.526C310.31 22.812 309.276 22.812 307.868 22.812C307.736 22.218 307.406 21.448 307.12 20.92C307.978 20.964 308.946 20.942 309.232 20.942C309.496 20.92 309.606 20.854 309.606 20.634V16.322ZM306.284 17.18L308.638 17.752C307.956 19.468 306.768 21.184 305.602 22.24C305.14 21.866 304.15 21.184 303.578 20.876C304.722 19.974 305.712 18.566 306.284 17.18ZM304.436 25.496H310.53V26.948H303.27L304.436 25.496ZM303.732 31.084V31.92H313.544V31.084H303.732ZM303.732 29.038V29.852H313.544V29.038H303.732ZM301.268 27.74H316.14V33.218H301.268V27.74ZM307.318 28.422H309.76V32.47H307.318V28.422ZM298.232 24.572C299.354 23.758 301.048 22.306 302.698 20.898L303.666 22.768C302.346 24.044 300.828 25.408 299.574 26.508L298.232 24.572ZM313.082 18.016L315.106 16.938C316.382 18.148 317.812 19.842 318.428 21.074L316.25 22.262C315.722 21.052 314.358 19.27 313.082 18.016ZM313.61 20.018L316.206 20.568C314.094 23.89 309.078 24.99 304.304 25.584C303.974 25.078 303.138 24.088 302.632 23.648C307.538 23.34 312.158 22.482 313.61 20.018ZM304.062 24.704L306.658 25.232C304.964 27.256 302.808 28.928 299.772 30.27C299.42 29.72 298.628 28.928 298.078 28.576C300.894 27.542 302.918 26.09 304.062 24.704ZM300.74 33.262L303.072 34.252C302.368 35.396 301.356 36.408 299.706 37.046L297.55 35.55C298.98 35.066 300.168 34.208 300.74 33.262ZM304.084 33.922L306.416 33.636C306.746 34.516 307.01 35.704 307.054 36.474L304.568 36.848C304.546 36.078 304.37 34.868 304.084 33.922ZM307.956 34.164L310.2 33.482C310.86 34.274 311.652 35.374 312.026 36.122L309.65 36.914C309.342 36.166 308.594 35 307.956 34.164ZM312.532 34.428L314.864 33.328C316.008 34.01 317.614 35.066 318.45 35.814L315.942 37.024C315.216 36.32 313.698 35.176 312.532 34.428ZM309.562 25.496H310.156L310.662 25.386L312.07 26.574C311.146 27.52 309.958 28.488 308.836 29.192C308.572 28.796 307.978 28.136 307.648 27.828C308.352 27.322 309.166 26.486 309.562 25.892V25.496Z" fill="#163767"/>
<path d="M641.936 9C641.936 9 641.936 14.235 641.936 17.5893M641.936 46V40.7143M637.17 13.625C637.17 13.625 640.075 16.0411 641.936 17.5893M641.936 17.5893C644.063 16.0411 647.383 13.625 647.383 13.625M641.936 17.5893C641.936 23.0078 641.936 31.4643 641.936 31.4643M633.766 17.5893V26.1786M641.936 40.7143L633.766 34.7679V26.1786M641.936 40.7143V31.4643M641.936 40.7143L651.468 33.987M629 22.2143L633.766 26.1786M633.766 26.1786L638.532 22.2143M637.17 28.1607L641.936 31.4643M656.915 13.625V21.8839M648.064 19.5714V28.1607M651.468 33.987L656.915 30.1429V21.8839M651.468 33.987L648.064 31.4643V28.1607M648.064 28.1607L652.83 23.5357M651.468 17.5893L656.915 21.8839M656.915 21.8839L661 17.5893" stroke="#163767"/>
<path d="M19.5817 147.953C11.0143 148.768 11.1701 155.215 11.1251 157.457C8.04544 160.696 10.7515 160.816 12.2268 160.441C13.1769 160.172 15.4438 159.482 16.9195 159.107C18.5895 161.001 20.6544 162.306 21.2369 162.698C20.884 162.181 20.4965 159.798 20.3378 158.643C26.9061 157.195 34.173 160.038 38.1259 161.448C38.4113 163.528 39.2789 166.552 39.692 167.85L42.2111 163.33L47.5411 161.561C46.1291 159.492 42.0103 159.128 40.2401 159.072C35.1084 150.441 27.8271 148.117 24.5067 148.328C24.0588 147.117 23.3647 145.071 23.6075 144.273C20.8389 144.645 19.9659 146.901 19.5817 147.953Z" stroke="#163767" stroke-linecap="round" stroke-linejoin="round"/>
<path d="M16.3349 154.834C16.8628 154.474 16.9988 153.754 16.6387 153.226C16.2785 152.698 15.5587 152.562 15.0308 152.922C14.5029 153.283 14.3669 154.002 14.727 154.53C15.0872 155.058 15.807 155.194 16.3349 154.834Z" fill="#163767"/>
<path d="M1001.51 258V256.722L1006.31 251.466C1006.87 250.85 1007.33 250.315 1007.7 249.861C1008.06 249.402 1008.33 248.971 1008.51 248.568C1008.69 248.161 1008.78 247.735 1008.78 247.29C1008.78 246.778 1008.66 246.336 1008.41 245.962C1008.17 245.588 1007.84 245.299 1007.41 245.095C1006.99 244.892 1006.52 244.79 1005.99 244.79C1005.44 244.79 1004.95 244.906 1004.53 245.138C1004.12 245.365 1003.8 245.685 1003.57 246.097C1003.35 246.509 1003.24 246.991 1003.24 247.545H1001.56C1001.56 246.693 1001.76 245.945 1002.15 245.301C1002.54 244.657 1003.08 244.155 1003.76 243.795C1004.44 243.436 1005.2 243.256 1006.05 243.256C1006.9 243.256 1007.66 243.436 1008.32 243.795C1008.97 244.155 1009.49 244.641 1009.87 245.251C1010.24 245.862 1010.43 246.542 1010.43 247.29C1010.43 247.825 1010.33 248.348 1010.13 248.859C1009.95 249.366 1009.61 249.932 1009.14 250.557C1008.67 251.177 1008.02 251.935 1007.19 252.83L1003.92 256.324V256.438H1010.68V258H1001.51ZM1013.87 258V243.455H1022.59V245.017H1015.63V249.932H1021.94V251.494H1015.63V258H1013.87Z" fill="#163767"/>
<defs>
<filter id="filter0_d_459_3178" x="0" y="134" width="58" height="58" filterUnits="userSpaceOnUse" color-interpolation-filters="sRGB">
<feFlood flood-opacity="0" result="BackgroundImageFix"/>
<feColorMatrix in="SourceAlpha" type="matrix" values="0 0 0 0 0 0 0 0 0 0 0 0 0 0 0 0 0 0 127 0" result="hardAlpha"/>
<feOffset dy="4"/>
<feGaussianBlur stdDeviation="2"/>
<feComposite in2="hardAlpha" operator="out"/>
<feColorMatrix type="matrix" values="0 0 0 0 0 0 0 0 0 0 0 0 0 0 0 0 0 0 0.25 0"/>
<feBlend mode="normal" in2="BackgroundImageFix" result="effect1_dropShadow_459_3178"/>
<feBlend mode="normal" in="SourceGraphic" in2="effect1_dropShadow_459_3178" result="shape"/>
</filter>
<filter id="filter1_d_459_3178" x="208" y="0" width="58" height="58" filterUnits="userSpaceOnUse" color-interpolation-filters="sRGB">
<feFlood flood-opacity="0" result="BackgroundImageFix"/>
<feColorMatrix in="SourceAlpha" type="matrix" values="0 0 0 0 0 0 0 0 0 0 0 0 0 0 0 0 0 0 127 0" result="hardAlpha"/>
<feOffset dy="4"/>
<feGaussianBlur stdDeviation="2"/>
<feComposite in2="hardAlpha" operator="out"/>
<feColorMatrix type="matrix" values="0 0 0 0 0 0 0 0 0 0 0 0 0 0 0 0 0 0 0.25 0"/>
<feBlend mode="normal" in2="BackgroundImageFix" result="effect1_dropShadow_459_3178"/>
<feBlend mode="normal" in="SourceGraphic" in2="effect1_dropShadow_459_3178" result="shape"/>
</filter>
<filter id="filter2_d_459_3178" x="614" y="2" width="58" height="58" filterUnits="userSpaceOnUse" color-interpolation-filters="sRGB">
<feFlood flood-opacity="0" result="BackgroundImageFix"/>
<feColorMatrix in="SourceAlpha" type="matrix" values="0 0 0 0 0 0 0 0 0 0 0 0 0 0 0 0 0 0 127 0" result="hardAlpha"/>
<feOffset dy="4"/>
<feGaussianBlur stdDeviation="2"/>
<feComposite in2="hardAlpha" operator="out"/>
<feColorMatrix type="matrix" values="0 0 0 0 0 0 0 0 0 0 0 0 0 0 0 0 0 0 0.25 0"/>
<feBlend mode="normal" in2="BackgroundImageFix" result="effect1_dropShadow_459_3178"/>
<feBlend mode="normal" in="SourceGraphic" in2="effect1_dropShadow_459_3178" result="shape"/>
</filter>
<filter id="filter3_d_459_3178" x="724" y="205" width="58" height="58" filterUnits="userSpaceOnUse" color-interpolation-filters="sRGB">
<feFlood flood-opacity="0" result="BackgroundImageFix"/>
<feColorMatrix in="SourceAlpha" type="matrix" values="0 0 0 0 0 0 0 0 0 0 0 0 0 0 0 0 0 0 127 0" result="hardAlpha"/>
<feOffset dy="4"/>
<feGaussianBlur stdDeviation="2"/>
<feComposite in2="hardAlpha" operator="out"/>
<feColorMatrix type="matrix" values="0 0 0 0 0 0 0 0 0 0 0 0 0 0 0 0 0 0 0.25 0"/>
<feBlend mode="normal" in2="BackgroundImageFix" result="effect1_dropShadow_459_3178"/>
<feBlend mode="normal" in="SourceGraphic" in2="effect1_dropShadow_459_3178" result="shape"/>
</filter>
</defs>
</svg>
