<svg xmlns="http://www.w3.org/2000/svg" viewBox="0 0 26.09 27.36"><defs><style>.cls-1{fill:#fff;}.cls-2{fill:#113961;}</style></defs><title>mark_cafe</title><g id="レイヤー_2" data-name="レイヤー 2"><g id="レイヤー_3" data-name="レイヤー 3"><polyline class="cls-1" points="12.66 13.22 11.74 5.8 25.58 5.8 22.95 26.85 14.37 26.85"/><path class="cls-2" d="M23,27.36H14.36v-1H22.5L25,6.31H12.31l.86,6.85-1,.12-.93-7.42a.53.53,0,0,1,.12-.4.52.52,0,0,1,.39-.17H25.58a.52.52,0,0,1,.39.17.53.53,0,0,1,.12.4L23.46,26.91A.52.52,0,0,1,23,27.36Z"/><rect class="cls-2" x="20.75" width="1.02" height="10.64"/><path class="cls-2" d="M14.36,27.36H4.28A.5.5,0,0,1,3.8,27L1.51,19.4a.49.49,0,0,1,.13-.51,4.05,4.05,0,0,1,5.24-.32,4.07,4.07,0,0,1,4.89,0,4,4,0,0,1,5.24.32.49.49,0,0,1,.12.5L14.85,27A.51.51,0,0,1,14.36,27.36Zm-9.7-1H14l2.08-6.93a3,3,0,0,0-3.94.2.51.51,0,0,1-.72,0,3,3,0,0,0-4.17,0,.51.51,0,0,1-.72,0,3,3,0,0,0-3.94-.2Z"/><path class="cls-2" d="M17,19.67l-.56-.85c.68-.45,1.44-1.19,1.15-2.14-.48-1.58-3.53-3.26-8.25-3.26S1.56,15.1,1.08,16.68c-.29.95.47,1.69,1.15,2.14l-.56.85C-.18,18.45-.1,17.08.11,16.38c.69-2.31,4.57-4,9.22-4s8.53,1.67,9.23,4C18.77,17.08,18.85,18.44,17,19.67Z"/><rect class="cls-2" x="12.35" y="10.13" width="12.58" height="1.02"/></g></g></svg>