<svg width="58" height="52" viewBox="0 0 58 52" fill="none" xmlns="http://www.w3.org/2000/svg">
<path d="M54.0429 8.00021H44.3232V4.88016C44.3232 2.18794 42.1337 0 39.4431 0H32.9541C30.2619 0 28.0739 2.18794 28.0739 4.88016V8.00021H18.2534C16.4575 8.00021 15 9.45775 15 11.2536V48.6666C15 50.4641 16.4575 51.92 18.2534 51.92H54.0413C55.8388 51.92 57.2947 50.4641 57.2947 48.6666V11.2536C57.2947 9.45775 55.8404 8.00021 54.0429 8.00021ZM31.329 4.88016C31.329 3.98221 32.0578 3.25344 32.9557 3.25344H39.4447C40.3427 3.25344 41.0714 3.98221 41.0714 4.88016V8.00021H31.329V4.88016ZM54.0429 48.6666H18.2551V11.2536H28.0756V14.6014C28.0756 14.6014 28.0316 16.2265 29.6925 16.2265C31.5226 16.2265 31.329 14.6014 31.329 14.6014V11.2536H41.0714V14.6014C41.0714 14.6014 40.9624 16.2347 42.6916 16.2347C44.3184 16.2347 44.3249 14.6014 44.3249 14.6014V11.2536H54.0429V48.6666Z" fill="#163767"/>
<path d="M30.6429 27.4857H28.0029C28.7571 26.5806 29.2286 25.4491 29.2286 24.1857C29.2286 21.3194 26.9091 19 24.0429 19C20.8749 19 18.084 20.6783 16.5 23.1674C14.916 20.6783 12.1251 19 8.95714 19C6.09086 19 3.77143 21.3194 3.77143 24.1857C3.77143 25.4491 4.24286 26.5806 4.99714 27.4857H2.35714C1.056 27.4857 0 28.5417 0 29.8429V34.5571C0 35.6886 0.810857 36.5937 1.88571 36.82V49.6429C1.88571 50.944 2.94171 52 4.24286 52H28.7571C30.0583 52 31.1143 50.944 31.1143 49.6429V36.82C32.1891 36.5937 33 35.6886 33 34.5571V29.8429C33 28.5417 31.944 27.4857 30.6429 27.4857ZM30.1714 34.0857H17.9143V30.3143H30.1714V34.0857ZM24.0429 21.8286C25.344 21.8286 26.4 22.8846 26.4 24.1857C26.4 25.4869 25.344 26.5429 24.0429 26.5429H18.084C18.7251 23.8463 21.1577 21.8286 24.0429 21.8286ZM8.95714 21.8286C11.8423 21.8286 14.2749 23.8463 14.916 26.5429H8.95714C7.656 26.5429 6.6 25.4869 6.6 24.1857C6.6 22.8846 7.656 21.8286 8.95714 21.8286ZM2.82857 30.3143H15.0857V34.0857H2.82857V30.3143ZM4.71429 36.9143H15.0857V49.1714H4.71429V36.9143ZM28.2857 49.1714H17.9143V36.9143H28.2857V49.1714Z" fill="#163767"/>
</svg>
