<svg width="40" height="40" viewBox="0 0 40 40" fill="none" xmlns="http://www.w3.org/2000/svg">
<path d="M3.5625 39.6504C3.5625 39.6504 0.3125 39.6504 0.3125 36.4004C0.3125 33.1504 3.5625 23.4004 19.8125 23.4004C36.0625 23.4004 39.3125 33.1504 39.3125 36.4004C39.3125 39.6504 36.0625 39.6504 36.0625 39.6504H3.5625ZM19.8125 20.1504C22.3984 20.1504 24.8783 19.1232 26.7068 17.2947C28.5353 15.4662 29.5625 12.9863 29.5625 10.4004C29.5625 7.81453 28.5353 5.33458 26.7068 3.5061C24.8783 1.67762 22.3984 0.650391 19.8125 0.650391C17.2266 0.650391 14.7467 1.67762 12.9182 3.5061C11.0897 5.33458 10.0625 7.81453 10.0625 10.4004C10.0625 12.9863 11.0897 15.4662 12.9182 17.2947C14.7467 19.1232 17.2266 20.1504 19.8125 20.1504Z" fill="#A5DEE4"/>
</svg>
