<svg width="15" height="17" viewBox="0 0 15 17" fill="none" xmlns="http://www.w3.org/2000/svg">
<path d="M6.59345 2.29607V0.681683C6.59345 0.538963 6.64257 0.402088 6.73002 0.301169C6.81747 0.20025 6.93608 0.143555 7.05975 0.143555C7.18342 0.143555 7.30203 0.20025 7.38948 0.301169C7.47693 0.402088 7.52605 0.538963 7.52605 0.681683V2.29607C7.52605 2.43879 7.47693 2.57566 7.38948 2.67658C7.30203 2.7775 7.18342 2.8342 7.05975 2.8342C6.93608 2.8342 6.81747 2.7775 6.73002 2.67658C6.64257 2.57566 6.59345 2.43879 6.59345 2.29607ZM7.05975 3.91046C6.32194 3.91046 5.6007 4.16294 4.98723 4.63598C4.37376 5.10903 3.89563 5.78138 3.61328 6.56802C3.33093 7.35466 3.25706 8.22026 3.401 9.05535C3.54493 9.89045 3.90022 10.6575 4.42193 11.2596C4.94365 11.8617 5.60835 12.2717 6.33198 12.4378C7.05561 12.6039 7.80568 12.5187 8.48733 12.1928C9.16897 11.867 9.75159 11.3152 10.1615 10.6072C10.5714 9.89927 10.7902 9.06694 10.7902 8.21548C10.7891 7.0741 10.3957 5.97983 9.69637 5.17275C8.99701 4.36567 8.04879 3.9117 7.05975 3.91046ZM2.99941 4.29118C3.0869 4.39216 3.20558 4.44888 3.32932 4.44888C3.45306 4.44888 3.57173 4.39216 3.65923 4.29118C3.74672 4.19021 3.79588 4.05326 3.79588 3.91046C3.79588 3.76766 3.74672 3.6307 3.65923 3.52973L2.72662 2.45347C2.63912 2.3525 2.52045 2.29577 2.39671 2.29577C2.27297 2.29577 2.15429 2.3525 2.0668 2.45347C1.9793 2.55445 1.93014 2.6914 1.93014 2.8342C1.93014 2.977 1.9793 3.11395 2.0668 3.21492L2.99941 4.29118ZM2.99941 12.1398L2.0668 13.216C1.9793 13.317 1.93014 13.454 1.93014 13.5968C1.93014 13.7396 1.9793 13.8765 2.0668 13.9775C2.15429 14.0785 2.27297 14.1352 2.39671 14.1352C2.52045 14.1352 2.63912 14.0785 2.72662 13.9775L3.65923 12.9012C3.70255 12.8512 3.73692 12.7919 3.76036 12.7266C3.78381 12.6612 3.79588 12.5912 3.79588 12.5205C3.79588 12.4498 3.78381 12.3798 3.76036 12.3145C3.73692 12.2491 3.70255 12.1898 3.65923 12.1398C3.6159 12.0898 3.56447 12.0501 3.50786 12.0231C3.45126 11.996 3.39059 11.9821 3.32932 11.9821C3.26805 11.9821 3.20738 11.996 3.15077 12.0231C3.09416 12.0501 3.04273 12.0898 2.99941 12.1398ZM10.7902 4.44858C10.8514 4.44864 10.9121 4.43477 10.9687 4.40776C11.0253 4.38075 11.0768 4.34114 11.1201 4.29118L12.0527 3.21492C12.1402 3.11395 12.1894 2.977 12.1894 2.8342C12.1894 2.6914 12.1402 2.55445 12.0527 2.45347C11.9652 2.3525 11.8465 2.29577 11.7228 2.29577C11.5991 2.29577 11.4804 2.3525 11.3929 2.45347L10.4603 3.52973C10.395 3.60499 10.3505 3.70091 10.3325 3.80536C10.3145 3.9098 10.3237 4.01806 10.359 4.11645C10.3944 4.21483 10.4542 4.2989 10.5309 4.35803C10.6077 4.41715 10.6979 4.44867 10.7902 4.44858ZM11.1201 12.1398C11.0326 12.0388 10.9139 11.9821 10.7902 11.9821C10.6664 11.9821 10.5478 12.0388 10.4603 12.1398C10.3728 12.2408 10.3236 12.3777 10.3236 12.5205C10.3236 12.6633 10.3728 12.8003 10.4603 12.9012L11.3929 13.9775C11.4362 14.0275 11.4876 14.0672 11.5442 14.0942C11.6009 14.1213 11.6615 14.1352 11.7228 14.1352C11.7841 14.1352 11.8447 14.1213 11.9013 14.0942C11.9579 14.0672 12.0094 14.0275 12.0527 13.9775C12.096 13.9275 12.1304 13.8681 12.1538 13.8028C12.1773 13.7375 12.1894 13.6675 12.1894 13.5968C12.1894 13.5261 12.1773 13.456 12.1538 13.3907C12.1304 13.3254 12.096 13.266 12.0527 13.216L11.1201 12.1398ZM2.39671 8.21548C2.39671 8.07276 2.34758 7.93589 2.26013 7.83497C2.17268 7.73405 2.05407 7.67736 1.9304 7.67736H0.53149C0.407818 7.67736 0.289212 7.73405 0.201763 7.83497C0.114314 7.93589 0.0651855 8.07276 0.0651855 8.21548C0.0651855 8.35821 0.114314 8.49508 0.201763 8.596C0.289212 8.69692 0.407818 8.75361 0.53149 8.75361H1.9304C2.05407 8.75361 2.17268 8.69692 2.26013 8.596C2.34758 8.49508 2.39671 8.35821 2.39671 8.21548ZM7.05975 13.5968C6.93608 13.5968 6.81747 13.6535 6.73002 13.7544C6.64257 13.8553 6.59345 13.9922 6.59345 14.1349V15.7493C6.59345 15.892 6.64257 16.0289 6.73002 16.1298C6.81747 16.2307 6.93608 16.2874 7.05975 16.2874C7.18342 16.2874 7.30203 16.2307 7.38948 16.1298C7.47693 16.0289 7.52605 15.892 7.52605 15.7493V14.1349C7.52605 13.9922 7.47693 13.8553 7.38948 13.7544C7.30203 13.6535 7.18342 13.5968 7.05975 13.5968ZM13.588 7.67736H12.1891C12.0654 7.67736 11.9468 7.73405 11.8594 7.83497C11.7719 7.93589 11.7228 8.07276 11.7228 8.21548C11.7228 8.35821 11.7719 8.49508 11.8594 8.596C11.9468 8.69692 12.0654 8.75361 12.1891 8.75361H13.588C13.7117 8.75361 13.8303 8.69692 13.9177 8.596C14.0052 8.49508 14.0543 8.35821 14.0543 8.21548C14.0543 8.07276 14.0052 7.93589 13.9177 7.83497C13.8303 7.73405 13.7117 7.67736 13.588 7.67736Z" fill="black"/>
</svg>
