<svg width="38" height="38" viewBox="0 0 38 38" fill="none" xmlns="http://www.w3.org/2000/svg">
<circle cx="19" cy="19" r="19" fill="#CD5648"/>
<path d="M27 19.427C27 24.1252 23.823 27.4688 19.1311 27.4688C14.6328 27.4688 11 23.7898 11 19.2344C11 14.6789 14.6328 11 19.1311 11C21.3213 11 23.1639 11.8135 24.5836 13.1549L22.3705 15.3098C19.4754 12.4809 14.0918 14.6059 14.0918 19.2344C14.0918 22.1064 16.3574 24.434 19.1311 24.434C22.3508 24.434 23.5574 22.0965 23.7475 20.8846H19.1311V18.0523H26.8721C26.9475 18.474 27 18.8791 27 19.427Z" fill="white"/>
</svg>
