<svg width="13" height="13" viewBox="0 0 13 13" fill="none" xmlns="http://www.w3.org/2000/svg">
<path d="M1.625 2.84375C1.40156 2.84375 1.21875 3.02656 1.21875 3.25V3.81113L5.59863 7.40645C6.12422 7.83809 6.87832 7.83809 7.40391 7.40645L11.7812 3.81113V3.25C11.7812 3.02656 11.5984 2.84375 11.375 2.84375H1.625ZM1.21875 5.38789V9.75C1.21875 9.97344 1.40156 10.1562 1.625 10.1562H11.375C11.5984 10.1562 11.7812 9.97344 11.7812 9.75V5.38789L8.17578 8.34844C7.20078 9.14824 5.79668 9.14824 4.82422 8.34844L1.21875 5.38789ZM0 3.25C0 2.35371 0.728711 1.625 1.625 1.625H11.375C12.2713 1.625 13 2.35371 13 3.25V9.75C13 10.6463 12.2713 11.375 11.375 11.375H1.625C0.728711 11.375 0 10.6463 0 9.75V3.25Z" fill="black"/>
</svg>
